<svg version="1.2" xmlns="http://www.w3.org/2000/svg" viewBox="0 0 930 581" width="930" height="581">
	<style>
		.s0 { fill: #8f0c26;stroke: #570101;paint-order:stroke fill markers;stroke-linejoin: round;stroke-width: 4 } 
		.s1 { fill: #570101 } 
		.s2 { fill: #ffffff;stroke: #570101;paint-order:stroke fill markers;stroke-linejoin: round;stroke-width: 4 } 
	</style>
	<g id="Path 0">
		<path id="dark3" fill-rule="evenodd" class="s0" d="m464 84.12c5.37-0.08 7.89 0.51 14.5 3.4 4.4 1.92 11.53 5.63 15.85 8.24 4.32 2.61 12.42 9.06 18 14.34 5.58 5.28 13 13.6 16.48 18.5 3.49 4.89 7.99 12.27 10 16.4 3.53 7.2 3.67 7.91 3.64 18-0.02 9.11-0.36 11.23-2.58 16-1.4 3.02-4.65 8.09-7.22 11.25-2.57 3.16-4.44 5.98-4.17 6.25 0.27 0.27 2.19-0.35 4.25-1.38 2.06-1.04 7.35-4.19 11.75-7 5.42-3.47 9.05-5.12 11.25-5.12 1.79 0 3.26 0.34 3.28 0.75 0.02 0.41-0.87 1.65-1.98 2.75-1.11 1.1-1.85 2.23-1.65 2.5 0.21 0.27 3.01 1.11 6.24 1.86 3.22 0.74 9.23 2.97 20.86 8.52l-17 0.74c-13.08 0.57-19.54 1.36-28 3.41-6.05 1.47-14.15 3.8-18 5.19-3.85 1.39-9.25 3.64-12 5-2.75 1.37-7.58 4.12-10.74 6.13-3.16 2.01-5.75 3.99-5.75 4.4-0.01 0.41 0.78 0.47 1.74 0.13 0.96-0.35 4.45-1.47 7.75-2.51 3.3-1.03 6.11-1.65 6.25-1.37 0.14 0.27-4.14 2.75-9.5 5.49-6.48 3.31-12.1 7.16-16.75 11.45-3.85 3.56-6.33 6.48-5.5 6.5 0.83 0.01 4.88-1.13 9-2.53 4.13-1.41 8.37-2.41 9.43-2.23 1.25 0.21-1.01 1.77-6.5 4.5-4.64 2.29-10.23 5.74-12.43 7.66-2.76 2.41-3.69 3.83-3 4.58 0.55 0.6 3.92 1.78 7.5 2.63 3.58 0.85 6.82 1.86 7.22 2.25 0.39 0.38-2.31 1.02-6 1.4-3.7 0.39-7.17 1.19-7.72 1.78q-1 1.07 0.35 7.3c0.74 3.42 1.97 7.46 2.75 8.97 0.94 1.85 3.78 3.9 8.65 6.25 3.99 1.93 10.85 4.41 15.25 5.51 5.57 1.4 11.27 2.01 18.75 2 5.91 0 14.01-0.64 18-1.42 3.99-0.77 9.73-2.35 12.75-3.51 3.02-1.16 7.84-3.56 10.7-5.34 2.86-1.78 5.02-3.47 4.8-3.74-0.21-0.27-3.23 0.09-6.69 0.8-3.47 0.72-6.93 1.17-7.69 1-0.76-0.16 2.61-2.55 7.5-5.3 4.88-2.74 11.57-7.02 14.85-9.5 3.29-2.47 10-8.55 14.93-13.5 4.92-4.95 11.61-12.38 14.85-16.5 4.32-5.5 5.54-7.7 4.57-8.23-0.73-0.41-5.37-0.78-10.32-0.83-4.95-0.05-11.02-0.41-18-1.53l8-1.81c4.4-1 11.38-3.11 15.5-4.69 4.13-1.59 10.22-4.58 13.55-6.65 3.33-2.07 8.19-5.56 10.8-7.76 2.61-2.2 4.72-4.56 4.7-5.25-0.03-0.69-2.19-3.05-4.8-5.26-2.61-2.2-5.99-4.57-7.5-5.25-1.52-0.68-2.75-1.58-2.75-1.99 0-0.41 1.01-0.46 2.25-0.11 1.24 0.35 6.08 2.38 10.75 4.52 4.67 2.14 9.63 3.86 11 3.84 1.38-0.03 2.86 0.29 3.31 0.72 0.44 0.43-2.54 3.93-6.62 7.78-4.09 3.85-9.96 9.81-13.06 13.25-3.1 3.44-5.62 6.59-5.6 7 0.02 0.41 3.69 3.23 16.26 11.75l-7.64 0.25c-4.27 0.14-7.65 0.69-7.65 1.25 0 0.55 1.91 1.88 4.25 2.96 2.34 1.07 7.85 2.91 12.25 4.07 5.16 1.36 11.55 2.17 18 2.29 5.5 0.1 10.23-0.18 10.5-0.63 0.27-0.44-2.42-2.05-6-3.56-3.58-1.52-8.41-3.97-10.75-5.44-2.34-1.48-4.14-2.91-4-3.18 0.14-0.27 2.73 0.34 5.75 1.36 3.02 1.02 8.88 2.43 13 3.12 4.18 0.7 10.05 0.98 13.25 0.63 3.16-0.34 7.66-1.36 10-2.27 2.34-0.91 5.71-2.71 7.5-4 1.79-1.29 4.15-3.81 5.26-5.6 1.42-2.29 1.82-4.13 1.38-6.25-0.35-1.65-1.56-4.35-2.68-6-1.12-1.65-3.2-4.23-4.62-5.74-1.42-1.51-2.36-2.97-2.09-3.25 0.27-0.28 3.31 1.29 6.75 3.49 3.44 2.2 6.48 4 6.75 4 0.27 0 0.51-0.34 0.53-0.75 0.02-0.41-1.15-2.55-2.6-4.75-2.51-3.82-2.55-4.05-0.78-5.22 1.02-0.67 2.19-1.01 2.6-0.75 0.41 0.26 0.75 1.15 0.75 1.97 0 0.82 0.5 1.39 1.1 1.25 0.61-0.14 2.3-3.97 3.75-8.52 1.46-4.55 2.88-8.27 3.15-8.26 0.27 0 0.89 3.73 1.36 8.27 0.47 4.54 1.53 10.51 2.35 13.26 0.82 2.75 3.33 8.6 5.59 13 2.84 5.54 6.27 10.18 11.15 15.09 4.51 4.53 8.67 7.71 11.55 8.83 3.81 1.48 5.39 1.58 10.25 0.66 3.16-0.59 5.75-1.53 5.75-2.08 0-0.55-2.36-2.31-5.25-3.9-2.89-1.6-7.27-4.58-9.75-6.62-2.48-2.04-6.63-6.24-9.23-9.34-2.6-3.1-4.52-5.87-4.26-6.14 0.26-0.27 3.29 1.51 6.73 3.96 3.44 2.46 8.4 5.27 11.01 6.25 2.61 0.99 6.21 1.78 8 1.76 1.79-0.02 4.71-0.92 6.5-2 2.03-1.23 4.18-3.94 5.73-7.22 1.37-2.89 3.06-8.73 3.75-12.97 0.7-4.25 1.59-7.4 1.99-7 0.39 0.39 1.74 6.01 3 12.47 1.46 7.53 2.73 11.75 3.53 11.75 0.84 0 1.46-2.56 1.89-7.75 0.35-4.26 0.15-10.9-0.45-14.75-0.6-3.85-2.14-10.15-3.44-14-1.29-3.85-4.44-10.82-6.99-15.5-2.56-4.68-6.22-10.98-11.65-19.5l2.43-2.5c1.33-1.38 4.8-5.11 7.69-8.29 3.13-3.44 6.59-6.18 8.52-6.75 1.79-0.53 4.04-0.75 5-0.5 0.96 0.26 2.77 1.5 4.02 2.75 1.25 1.26 3.15 5.44 4.23 9.29 1.09 3.85 2.48 12.18 3.11 18.5 0.87 8.74 0.86 15.09-0.05 26.5-0.66 8.25-2.09 20.4-3.18 27-1.09 6.6-1.81 12.45-1.6 13 0.22 0.55 1.82-1.48 3.57-4.5 1.74-3.02 4.02-8.2 5.06-11.5 1.03-3.3 2.15-8.14 3.09-15.5h4.5c2.67 0 5.11 0.61 6 1.5 1.16 1.16 1.36 2.93 0.91 7.75-0.33 3.44-1.88 12.77-3.46 20.75-1.57 7.98-4.73 20.35-7.02 27.5-2.28 7.15-5.49 16.37-7.12 20.5-1.62 4.12-4.91 10.65-7.31 14.5-2.39 3.85-5.99 8.57-7.99 10.5-3.49 3.36-3.99 3.52-21.73 4.5l3.41-5c1.88-2.75 4.41-7.59 5.61-10.75 1.21-3.16 2.2-6.2 2.2-6.75 0-0.55-0.34-0.98-0.75-0.96-0.41 0.02-3 2.98-5.75 6.59-2.75 3.6-6.58 7.65-12 11.44l-3.2-3.78c-2.65-3.15-3.28-3.5-3.75-2.04-0.3 0.96-1.11 1.75-1.8 1.74-0.69 0-2.38-0.57-3.75-1.27-1.38-0.7-5.99-2.39-10.26-3.75-6.35-2.02-7.67-2.79-7.25-4.22 0.42-1.45-0.13-1.74-3.24-1.69-2.06 0.03-6.9 0.92-10.75 1.98-3.85 1.06-11.73 3.11-17.5 4.57-7.71 1.94-13.29 2.67-21 2.77-6.39 0.07-12.46-0.43-15.5-1.29-2.75-0.78-8.38-3.1-12.5-5.16-4.13-2.06-10.5-5.92-14.17-8.59-3.67-2.66-8.75-6.64-11.28-8.84-2.53-2.2-4.93-3.68-5.32-3.28-0.4 0.39 0.58 2.86 2.19 5.5 1.61 2.63 5.88 7.79 9.5 11.47 3.62 3.68 6.35 7.05 6.08 7.5-0.27 0.45-2.19 1.6-4.25 2.56-2.54 1.19-6.52 5.22-12.35 12.5-4.73 5.91-9.68 13.11-11 16-1.32 2.89-3.17 5.59-4.11 6-0.95 0.41-2.94 1.99-4.43 3.5-1.56 1.59-3.8 2.75-5.28 2.75-1.61 0-3.74 1.22-5.67 3.25-1.7 1.79-3.72 4.26-4.5 5.5-0.78 1.24-1.86 2.25-2.41 2.25-0.55 0-3.81-3.84-7.25-8.53-3.44-4.7-6.92-8.71-7.75-8.93-0.83-0.22-4.88-0.72-9-1.12-6.25-0.61-7.4-0.5-6.89 0.68 0.34 0.77 5.39 7.7 21.82 29.4l0.07 14.5 3.75 0.47c2.06 0.26 5.89 0.71 13.25 1.53l-0.03-7.25c-0.02-6.44 0.26-7.53 5.03-12.25l2.25 2.23c1.24 1.22 3.04 2.24 4 2.25 1.08 0.01 1.75 0.79 1.75 2.02 0 1.1 1.08 3.24 2.41 4.75 1.77 2.03 2.17 3.21 1.5 4.5-0.5 0.96-0.8 8.14-0.41 30.16l4 0.84c2.2 0.45 11.87 2.19 21.5 3.85 9.62 1.67 17.85 3.34 18.27 3.72 0.42 0.37-4.98 7.89-12 16.69-7.02 8.81-17.25 21.41-22.74 28-5.48 6.6-11.03 13.57-12.34 15.49-1.87 2.76-2.26 4.35-1.83 7.5 0.3 2.2 1.35 6.42 2.34 9.39 1.13 3.38 2.55 5.67 3.8 6.15 1.1 0.42 6.27 1.5 11.5 2.39 5.23 0.9 11.75 2.07 14.5 2.6 2.75 0.54 15.35 2.99 28 5.46 12.65 2.47 23.34 4.49 23.75 4.5 0.41 0 0.75 0.68 0.75 1.51 0 0.95-1.38 1.75-3.75 2.17-2.06 0.37-4.2 0.54-4.75 0.38-0.55-0.15-9.55-1.56-20-3.13-10.45-1.56-25.3-3.8-33-4.97-10.63-1.62-14.54-1.87-16.25-1.04-1.24 0.6-3.15 1.09-4.25 1.09-1.11 0-2-0.67-2-1.5 0-0.83-0.45-1.5-1-1.5-0.55 0-2.13-2.36-6.02-10.5l0.02-101.5-2.25-0.45c-1.24-0.25-7.54-1.15-14-2-6.46-0.85-13.33-1.55-18.75-1.55l-0.5 51.5-13.34-26.5c-7.33-14.58-14.08-26.79-15-27.14-0.91-0.35-7.4-1.14-14.41-1.75-7.01-0.61-15-1.11-22.75-1.11v103l-9.5-0.5-0.5-102.5h-38v101l-2.25 0.58c-1.24 0.31-2.58 0.2-2.99-0.25-0.41-0.46-3.64-11.41-7.17-24.33-3.54-12.92-9.4-34.75-13.02-48.5-3.62-13.75-6.58-25.56-6.57-26.25 0-0.78-1.42-1.25-3.75-1.25-2.06 0-12.52 0.95-23.25 2.11-10.73 1.17-20.4 2.46-21.5 2.87-1.51 0.56-2.79 3.44-5.21 11.63-1.77 5.99-8.01 27.99-13.87 48.89-5.86 20.9-11.07 39.58-11.57 41.5-0.52 2.03-2.88 5.48-5.63 8.22-4.51 4.52-5.13 4.8-13.72 6.28-4.95 0.85-18 3.16-29 5.13-11 1.98-20.68 3.97-21.5 4.43-0.82 0.46-2.4 0.68-3.5 0.49-1.1-0.19-3.91-1.07-6.25-1.95-2.34-0.88-4.25-2.16-4.26-2.85 0-0.71 2.46-1.78 5.75-2.48 3.17-0.68 17.24-4 31.26-7.38 14.02-3.37 27.97-6.87 31-7.76 4.97-1.48 5.8-2.15 12.09-12.63l-0.3-27.2c-0.17-16.37-0.69-27.61-1.29-28.22-0.68-0.7-4.2-0.54-11 0.48-5.5 0.83-17.2 2.95-42 7.94l-0.25 12.25c-0.18 9.04 0.08 12.39 1 12.8 0.69 0.3 5.07-0.15 9.75-1.01 4.68-0.86 9.06-1.56 9.75-1.55 0.9 0.01 1.26 2.44 1.29 17.51l-16.77 3.81c-9.22 2.1-17 3.52-17.27 3.17-0.27-0.35-0.61-16.13-1-69.48l11.25-2.46c6.19-1.35 12.15-2.59 13.25-2.75 1.81-0.26 2.02 0.35 2.25 6.46 0.14 3.71 0.7 6.75 1.25 6.75 0.55 0 8.31-1.62 17.25-3.6 12.62-2.8 16.65-4.08 18.04-5.75 1.58-1.89 1.79-4.24 1.75-19.4-0.03-12.11-0.38-17.32-1.18-17.5-0.85-0.18-0.83-0.78 0.07-2.25 0.67-1.1 2.87-3.1 4.9-4.45 2.02-1.35 5.24-2.52 7.17-2.59 1.93-0.06 7.89-0.42 13.25-0.79 8.3-0.57 9.75-0.45 9.75 0.83 0 0.9-1.5 1.88-3.75 2.44-2.06 0.52-7.57 1.66-12.25 2.54-4.68 0.87-8.87 1.91-9.33 2.3-0.46 0.4-0.57 2.86 0.33 10.22l5.25-0.53c2.89-0.29 10.09-1.64 16-3 5.91-1.36 11.86-3.26 13.21-4.22 1.35-0.96 3.44-3.55 4.63-5.75 1.75-3.2 2.05-4.95 1.55-8.75-0.51-3.74-1.33-5.31-3.89-7.38-3.03-2.46-3.72-2.6-10.25-2.03-3.85 0.34-9.25 0.9-12 1.26-4.6 0.6-4.88 0.52-3.5-0.99 0.95-1.05 6.09-2.5 26.5-6.27l0.5-10.34h-3.75c-2.06 0-7.57 0.68-12.25 1.5-4.68 0.82-10.07 1.93-12 2.46-1.94 0.54-3.95 0.6-4.5 0.12-0.55-0.46-1.61-3.71-2.36-7.21-0.74-3.51-2.44-9.3-3.76-12.87-1.73-4.67-4.36-8.75-9.35-14.5-3.81-4.4-7.86-9.01-8.98-10.25-1.13-1.24-2.03-2.59-2.01-3 0.02-0.41 2.1-3.45 4.61-6.75 2.51-3.3 5.19-7.24 5.96-8.75 0.76-1.51 1.16-2.75 0.89-2.75-0.27 0-3.76 2.6-7.75 5.77-3.99 3.17-11.07 8.1-15.75 10.94-4.68 2.85-11.88 6.43-16 7.95-6.78 2.49-8.7 2.75-20 2.66-8.75-0.07-15.05-0.7-21-2.11-4.68-1.1-13.79-3.4-20.25-5.11-6.46-1.7-12.43-3.1-13.25-3.1-0.82 0-1.5 0.67-1.5 1.5 0 0.82-0.79 1.51-1.75 1.51-0.96 0.01-5.13 1.83-9.25 4.05-5.16 2.77-7.81 3.7-8.5 2.98-0.69-0.71-1.94-0.07-4 2.04-2.42 2.49-3.38 2.9-5 2.13-1.1-0.53-4.93-4.15-8.5-8.06-3.57-3.9-6.81-6.77-7.19-6.37-0.38 0.4-0.25 2.07 0.27 3.72 0.53 1.65 2.53 5.81 4.44 9.25 1.91 3.44 3.48 6.7 3.48 7.25 0 0.56-2.83 1-6.5 1-3.78 0-7.76-0.63-9.5-1.5-1.65-0.83-4.76-3.86-6.92-6.75-2.15-2.89-5.7-8.85-7.88-13.25-2.18-4.4-5.55-12.27-7.5-17.5-1.94-5.23-4.69-13.55-6.1-18.5-1.41-4.95-3.51-13.5-4.65-19-1.15-5.5-2.35-14.27-3.24-29l4.39-0.77c2.42-0.42 4.69-0.42 5.04 0 0.35 0.42 1.82 5.5 3.27 11.27 1.77 7.05 3.7 12.07 5.86 15.28 1.78 2.63 3.36 4.66 3.53 4.5 0.16-0.15-0.38-4.55-1.21-9.78-0.83-5.23-2.07-13.33-2.76-18-0.68-4.68-1.22-16.82-1.18-27 0.04-14.28 0.46-20.1 1.83-25.5 0.98-3.85 2.56-8.58 3.51-10.5 0.96-1.93 2.93-4.29 4.38-5.25 2.44-1.62 2.86-1.63 5.88-0.14 1.79 0.88 5.84 4.14 9.01 7.25 3.17 3.1 5.74 5.19 5.71 4.64-0.03-0.55 0.64-0.44 1.49 0.25 0.84 0.69 1.99 1.02 2.54 0.75 0.55-0.27 1 0.06 1.01 0.75 0 0.69-3.81 8-8.48 16.25-5.01 8.85-9.51 18.28-10.98 23-1.38 4.4-2.97 11.15-3.55 15-0.58 3.85-0.78 8.57-0.43 10.5 0.34 1.92 1.03 5.19 1.52 7.25 0.5 2.06 1.25 3.75 1.66 3.76 0.41 0.01 1.56-5.28 2.55-11.75 0.99-6.47 2.19-12.44 2.66-13.26 0.6-1.04 1.08 0.18 1.59 4 0.4 3.02 1.35 7.75 2.09 10.5 0.75 2.75 2.6 6.7 4.11 8.79 1.51 2.08 4.1 4.22 5.75 4.76 1.65 0.54 4.57 0.97 6.5 0.94 1.93-0.02 5.53-0.96 8-2.09 2.47-1.13 7.31-4.04 10.75-6.48 4.26-3.01 6.25-3.94 6.25-2.92 0 0.82-3.3 4.99-7.34 9.25-5.45 5.75-9.33 8.78-15.03 11.75-4.23 2.2-7.67 4.34-7.66 4.75 0.02 0.41 1.49 1.04 3.28 1.4 1.79 0.36 5.39 0.58 8 0.5 2.61-0.08 6.1-0.83 7.75-1.65 1.65-0.82 6.26-4.76 10.25-8.75 3.99-3.99 8.45-9.5 9.92-12.25 1.48-2.75 3.84-8.49 5.25-12.75 1.42-4.26 2.92-11.32 3.33-15.68 0.41-4.37 0.85-7.85 0.97-7.75 0.12 0.1 1.48 3.78 3.04 8.18 2.45 6.96 3.11 7.97 5.03 7.75 1.22-0.14 2.21 0.2 2.21 0.75 0 0.55-0.68 2.35-1.5 4-0.82 1.65-1.27 3.23-1 3.5 0.27 0.27 2.19-0.78 4.25-2.36 2.06-1.57 4.76-3.37 6-4 1.4-0.71 2.25-0.76 2.25-0.14 0 0.55-1.35 2.69-2.99 4.75-1.65 2.06-3.45 5.44-4 7.5-0.81 3.01-0.66 4.47 0.74 7.41 0.96 2.01 3.1 4.77 4.75 6.12 1.65 1.36 4.8 3.42 7 4.58 3.49 1.83 5.67 2.1 17 2.08 10.89-0.03 13.97-0.39 19-2.24 3.3-1.22 6.11-2.21 6.25-2.21 0.14 0.01 0.26 0.35 0.26 0.76 0.01 0.41-3.93 2.43-8.75 4.49-4.82 2.05-10.11 4.24-11.76 4.86-2.75 1.03-2.83 1.19-1 1.94 1.1 0.45 5.6 0.84 10 0.87 4.4 0.03 11.15-0.41 15-0.96 3.85-0.56 11.24-2.47 16.42-4.23 5.18-1.77 9.57-3.78 9.75-4.47 0.24-0.92-1.76-1.25-7.67-1.25-4.4 0-8.02-0.34-8.04-0.75-0.02-0.41 2.79-2.61 6.25-4.88 3.46-2.27 6.85-4.75 7.53-5.5 1.01-1.12-1.19-3.81-12.21-14.87-7.4-7.43-13.47-14.06-13.49-14.75-0.03-0.87 0.95-1.07 3.21-0.66 2.47 0.46 5.05-0.25 10.75-2.92 4.12-1.94 8.62-3.84 10-4.23 1.82-0.52 0.6 1.06-4.5 5.84-6.8 6.38-6.94 6.61-5 8.15 1.1 0.88 5.82 4.2 10.5 7.38 4.68 3.18 11.87 7.2 16 8.93 4.12 1.73 11.55 4.22 25.5 7.94l-7 0.65c-3.85 0.36-10.19 0.66-14.08 0.66-3.9 0.01-7.37 0.35-7.72 0.76-0.34 0.41 1.48 3.45 4.04 6.75 2.57 3.3 9.19 10.52 14.71 16.05 5.53 5.52 12.98 12.27 16.55 14.98 3.57 2.72 10.32 7.36 23.5 15.7l-5-0.67c-2.75-0.37-5.79-0.87-6.75-1.12-0.96-0.24-1.75 0.01-1.75 0.56 0 0.55 1.24 1.86 2.75 2.9 1.51 1.05 6.24 3.3 10.5 5 4.26 1.71 12.14 3.84 17.5 4.74 6.39 1.07 12.51 1.44 17.75 1.07 4.4-0.3 10.93-1.31 14.5-2.23 3.57-0.92 8.75-2.81 11.5-4.18 2.75-1.38 6.7-4.15 8.77-6.15 2.07-2.01 4.21-5 4.76-6.65 0.54-1.65 1.32-5.36 2.47-13.47l-6.75-0.01q-6.75-0.02-6.5-1.15c0.14-0.62 2.5-1.79 5.25-2.59 2.75-0.79 5.37-1.75 5.83-2.11 0.45-0.37-0.49-2.25-2.09-4.17-1.72-2.06-6.67-5.45-12.08-8.25-5.04-2.61-9.05-4.98-8.91-5.27 0.14-0.29 3.4 0.23 7.25 1.15 3.85 0.91 8.24 2.27 9.75 3.02 1.51 0.74 3.2 1.35 3.75 1.35 0.62 0 0.67-0.67 0.13-1.75-0.48-0.96-3.51-4.62-6.75-8.14-3.23-3.51-8.58-8.3-11.88-10.63-3.3-2.34-9.6-6.05-14-8.25-4.4-2.2-12.05-5.42-17-7.16-4.95-1.74-13.5-4.08-19-5.21-5.86-1.2-16.42-2.32-41-3.36l7-3.34c3.85-1.83 9.48-3.97 12.5-4.75 3.02-0.78 6.85-1.4 8.5-1.37 2.73 0.04 2.87-0.1 1.5-1.62-0.82-0.92-3.98-3.57-7-5.9-5.33-4.11-5.43-4.27-3.25-5.38 2-1.01 3.33-0.37 12 5.74 5.36 3.79 12 8.27 14.75 9.96 2.75 1.68 7.93 4.23 11.5 5.65 3.57 1.42 6.61 2.34 6.75 2.05 0.14-0.3-3.49-4.25-8.07-8.79-4.57-4.54-9.5-10.27-10.95-12.75-1.45-2.48-3.38-7.43-4.29-11-1.14-4.52-1.44-8.17-0.96-12 0.38-3.02 2.05-8.88 3.7-13 1.66-4.13 4.71-9.98 6.79-13 2.07-3.02 5.44-7.52 7.48-10 2.04-2.48 6.71-7.6 10.38-11.4 3.67-3.79 9.15-8.74 12.18-11 3.03-2.25 8.88-5.78 13-7.84 4.12-2.05 9.51-4.14 11.99-4.64 2.48-0.49 7.43-0.94 11-1zm-346.75 47.85c1.51 0.02 2.76 0.37 2.77 0.78 0.01 0.41-1.42 3.45-3.17 6.75-1.8 3.39-4 9.92-5.06 15-1.03 4.95-2.13 15.07-2.46 22.5-0.32 7.42-0.08 19.57 0.53 27 0.62 7.42 2.26 19.12 3.65 26 1.39 6.87 3.69 16.77 5.11 22 1.43 5.23 4.62 15.35 7.09 22.5 2.48 7.15 6.46 17.05 8.85 22 2.38 4.95 6.16 11.36 8.39 14.25 3.79 4.91 3.94 5.34 2.3 6.72-0.96 0.81-2.31 1.48-3 1.5-0.69 0.02-3.57-2.56-6.4-5.72-2.84-3.16-6.1-6.97-7.25-8.46-1.16-1.5-2.44-2.51-2.85-2.25-0.41 0.25 0.16 3.05 1.27 6.21 1.1 3.16 2 6.54 2 7.5-0.02 1.2-0.81 1.75-2.52 1.75-1.38 0-3.74-0.49-5.25-1.09-1.51-0.59-6.92-5.21-12.02-10.25-8.61-8.5-9.2-8.91-8.23-5.66 0.58 1.92 2.23 5.52 3.67 8 1.44 2.48 4.13 6.41 5.97 8.75 1.85 2.34 3.36 4.48 3.36 4.75 0 0.27-1.35 0.5-3 0.5-1.65 0-3-0.45-3-1 0-0.56-2.76-1-6.25-1.01-5.09-0.01-7.22-0.56-11.5-3-3.09-1.76-6.43-4.74-8.12-7.24-1.58-2.34-4.79-8.08-7.14-12.75-2.35-4.68-6.48-15.25-9.18-23.5-2.7-8.25-6.2-21.52-7.77-29.5-1.57-7.98-3.12-16.41-3.45-18.75-0.39-2.85-0.18-4.55 0.66-5.16 0.69-0.49 3.27-1.2 10.25-2.25l2.37 13.83c1.3 7.61 3.65 18.33 5.22 23.83 1.56 5.5 4.24 13.37 5.94 17.5 1.7 4.12 3.96 8.96 5.03 10.75 1.07 1.79 2.28 3.05 2.69 2.81 0.41-0.24-1.19-7.32-3.55-15.75-2.37-8.42-5.74-22.06-7.5-30.31-3.16-14.89-3.19-15.21-3.16-43.5 0.02-26.31 0.19-29.11 2.24-36.5 1.22-4.4 3.75-11.15 5.61-15 1.87-3.85 4.57-7.79 6-8.75 1.44-0.96 3.06-1.52 3.61-1.25 0.56 0.28-0.02 1.72-1.29 3.25-1.26 1.51-3.69 6.35-5.41 10.75-1.72 4.4-3.85 11.82-4.73 16.5-1.12 5.96-1.6 14.34-1.59 28 0 12.61 0.52 22.5 1.47 28 0.81 4.67 2.38 11.42 3.49 15 1.12 3.57 3 8.07 4.2 10 1.19 1.92 2.35 3.05 2.57 2.5 0.23-0.55-0.28-5.27-1.12-10.5-0.83-5.23-1.82-13.33-2.18-18-0.52-6.62-0.36-8.76 0.71-9.69 0.76-0.66 3.85-1.49 12.38-2.51l2.31 14.35c1.27 7.89 3.61 19.52 5.19 25.85 1.58 6.32 4.42 15.77 6.3 21 1.88 5.23 4.45 11.52 5.72 14 1.26 2.48 2.47 4.05 2.67 3.5 0.21-0.55-0.93-5.73-2.54-11.5-1.6-5.77-4.52-17.48-6.49-26-1.96-8.52-4.24-20.23-5.07-26-0.83-5.77-2.01-16.35-2.63-23.5-0.62-7.15-0.83-17.27-0.48-22.5 0.36-5.23 1.29-13.66 2.08-18.75 0.79-5.09 2.6-12.51 4.02-16.5 1.42-3.99 3.42-7.93 4.46-8.75 1.03-0.83 1.56-1.85 1.17-2.28-0.39-0.43 0.53-0.76 2.04-0.75zm694.25 1.03c0.83 0 2.23 0.79 3.13 1.75 0.9 0.96 2.21 2.87 2.9 4.25 0.7 1.37 2.21 5.42 3.36 9 1.15 3.57 2.56 8.98 3.13 12 0.57 3.02 1.47 10.9 2.02 17.5 0.66 8.1 0.64 17.03-0.08 27.5-0.58 8.52-1.75 20-2.59 25.5-0.84 5.5-2.41 14.05-3.49 19-1.07 4.95-3.76 15.52-5.97 23.5-2.21 7.98-3.77 14.61-3.47 14.75 0.31 0.14 1.97-2.56 3.69-6 1.72-3.44 4.84-11.43 6.93-17.75 2.09-6.33 4.94-17.13 6.34-24 1.39-6.88 2.89-16.1 4.1-28.5l6-0.26c3.3-0.14 6.56 0.08 7.24 0.5 0.96 0.59 0.99 3.16 0.15 11.76-0.6 6.05-1.6 14.29-2.24 18.32-0.63 4.02-0.81 7.51-0.4 7.75 0.41 0.24 1.64-1.03 2.72-2.82 1.09-1.79 2.88-6.63 3.99-10.75 1.11-4.13 2.52-12.45 3.15-18.5 0.64-6.29 0.88-17.2 0.54-25.5-0.32-8-1.45-18.76-2.52-24-1.07-5.23-2.87-11.98-3.99-15-1.13-3.02-3.42-7.41-5.1-9.75-1.67-2.34-2.93-4.5-2.79-4.82 0.14-0.31 1.15-0.31 2.25-0.01 1.1 0.31 3.87 3.37 6.16 6.82 2.28 3.44 4.86 8.51 5.72 11.26 0.87 2.75 2.26 8.26 3.1 12.25 0.84 3.99 2.01 13.44 2.6 21 0.79 10.03 0.77 17.4-0.06 27.25-0.62 7.42-2.22 19.35-3.56 26.5-1.33 7.15-4.44 20.2-6.9 29-2.46 8.8-4.23 16.23-3.93 16.5 0.29 0.27 1.22-0.4 2.06-1.5 0.83-1.1 2.85-4.93 4.48-8.5 1.63-3.58 4.3-11 5.92-16.5 1.63-5.5 4.03-15.63 5.33-22.5 1.3-6.88 2.64-14.19 2.98-16.25 0.55-3.44 0.87-3.75 3.85-3.74 1.79 0.01 4.26 0.24 5.5 0.5 1.93 0.42 2.25 1.13 2.25 4.99 0 2.48-0.92 9.79-2.03 16.25-1.12 6.46-2.9 15.12-3.96 19.25-1.06 4.12-3.11 11.1-4.56 15.5-1.45 4.4-5.36 13.62-8.69 20.5-4.37 9.02-7.34 13.76-10.66 17.02-2.8 2.76-6.55 5.21-9.6 6.27-2.98 1.03-7.83 1.72-19 1.65l3.75-3.97c2.06-2.18 5.1-6.67 6.75-9.97 1.65-3.3 3.02-7.01 3.04-8.25 0.03-1.85-0.67-1.35-3.87 2.75-2.15 2.75-5.88 6.62-8.29 8.6-2.41 1.98-5.84 4.35-7.63 5.25-2.38 1.21-3.78 1.38-5.25 0.65-1.1-0.55-2-1.56-2.01-2.25 0-0.69 0.68-3.95 1.51-7.25 0.83-3.3 1.25-6.23 0.93-6.5-0.32-0.27-0.95 0.17-1.4 1-0.45 0.82-2.81 3.98-5.24 7-2.44 3.02-6.08 6.51-8.11 7.75-2.03 1.24-4.58 2.03-5.68 1.75-1.1-0.27-2-0.73-2-1 0-0.27 1.87-2.86 4.16-5.75 2.29-2.89 5.96-9.08 8.15-13.75 2.2-4.68 5.75-13.23 7.89-19 2.14-5.77 5.22-15.45 6.83-21.5 1.61-6.05 4.09-16.63 5.51-23.5 1.42-6.92 2.95-18.76 3.41-26.5 0.46-7.7 0.48-21.2 0.05-30-0.55-11.03-1.48-18.64-2.99-24.5-1.21-4.68-3.28-10.64-4.61-13.25-1.32-2.61-2.4-5.2-2.4-5.75 0-0.55 0.67-1 1.5-1zm-609.75 11.25c0.14 4.33 0.69 7.75 1.25 7.75 0.55 0 1.3-0.79 1.67-1.75 0.36-0.96 2.05-3.65 3.75-5.97 1.69-2.32 3.42-4.01 3.83-3.75 0.41 0.26 0.75 3.73 0.75 7.72 0.01 6.56-0.21 7.34-2.25 8.25-1.24 0.55-4.28 4.47-6.75 8.72-2.48 4.25-4.85 7.4-5.28 7-0.43-0.4-0.77-3.42-0.76-6.72 0.02-3.3 0.53-10.7 1.15-16.44 0.62-5.74 1.41-10.91 1.76-11.5 0.35-0.58 0.74 2.43 0.88 6.69zm526.3-7.25c0.52 0 1.2 0.79 1.5 1.75 0.3 0.96 0.96 8.05 1.48 15.75 0.52 7.7 0.95 14.79 0.96 15.75 0 0.96-0.33 1.76-0.74 1.77-0.41 0.01-3.32-3.93-6.47-8.75-5.51-8.45-5.72-9.02-5.75-15.52-0.02-3.71 0.31-6.76 0.72-6.77 0.41-0.01 2.1 1.35 3.75 3.02 1.65 1.67 3.45 3.04 4 3.03 0.63 0 0.74-1.88 0.3-5.02-0.41-2.98-0.31-5.01 0.25-5.01zm157.4 59.03c0.58 0.59 1.07 4.53 1.1 8.77 0.02 4.23 0.14 11.41 0.45 24.2l6.62 1.25c3.64 0.69 7.02 1.81 7.5 2.5 0.48 0.69 0.66 2.37 0.38 3.75-0.48 2.42-0.74 2.49-14.89 2l-0.77 3.5c-0.61 2.74-0.4 3.81 0.94 4.94 1.6 1.34 1.47 1.68-1.78 4.71-1.92 1.8-4.17 3.3-5 3.33-1.24 0.04-1.36-0.78-0.69-4.71 0.44-2.63 1.44-9.95 2.22-16.27 0.77-6.33 1.35-17.39 1.27-24.58-0.07-7.2 0.26-13.39 0.73-13.77 0.48-0.38 1.34-0.2 1.92 0.38zm-839.4 0.97c0.53 0 0.95 3.88 0.95 8.75 0 4.81 0.71 14.82 1.58 22.25 0.86 7.42 2.32 17.38 3.24 22.13 1.66 8.53 1.66 8.62-0.32 8.23-1.1-0.22-2.9-1.19-4-2.18-1.1-0.98-3.69-2.66-5.76-3.73-2.06-1.07-3.75-2.29-3.75-2.7 0.01-0.41 1.59-1.43 3.51-2.25 2.89-1.24 3.5-2.02 3.5-7.5h-17l0.02-2.75c0-1.51 0.34-3.27 0.75-3.9 0.4-0.63 3.66-1.71 7.23-2.39 3.58-0.68 6.82-1.51 7.2-1.85 0.39-0.33 0.77-7.36 0.85-15.61 0.08-8.25 0.35-15.34 0.6-15.75 0.24-0.41 0.88-0.75 1.4-0.75zm-24.49 39c0.79 0 1.46 0.11 1.47 0.25 0.02 0.14 0.69 3.85 2.92 16.25l-2.47 1.75c-1.51 1.07-2.48 2.73-2.48 4.25 0 1.37-0.67 2.73-1.5 3-0.83 0.27-1.31 1.06-1.09 1.75 0.23 0.69 0 1.92-0.52 2.75-0.78 1.25-1.35 0.99-3.38-1.5-1.34-1.65-2.72-4.13-3.05-5.5-0.43-1.8-0.05-2.92 1.36-4 1.08-0.83 3.27-2.18 4.87-3 2.2-1.13 3.09-2.48 3.64-5.5 0.52-2.83 0.34-4.44-0.62-5.5-0.75-0.83-1.18-2.29-0.97-3.25 0.21-0.96 1.03-1.75 1.82-1.75zm887.69 2.02c0.41-0.01 0.8 0.54 0.87 1.23 0.06 0.69 0.01 1.7-0.13 2.25-0.13 0.55-0.63 2.46-1.11 4.25-0.76 2.8-0.57 3.45 1.37 4.68 1.24 0.79 3.49 1.69 5 2 2.19 0.45 2.75 1.13 2.77 3.32 0.01 1.51-0.44 4.21-1 6-0.56 1.79-1.69 3.25-2.52 3.25-0.9 0-1.49-0.9-1.47-2.25 0.02-1.24-0.88-3.49-2-5-1.11-1.51-2.93-2.98-4.03-3.25-1.1-0.27-2.23-1.29-2.51-2.25-0.27-0.96-0.04-4.2 0.53-7.2 0.57-2.99 1.59-5.8 2.26-6.23 0.67-0.44 1.56-0.8 1.97-0.8zm-620.5 69.07c0.14-0.05 0.26 0.25 0.27 0.66 0.01 0.41-0.41-0.6-0.27-0.66z"/>
		<path id="Form 1" class="s1" d=""/>
		<path id="light2" fill-rule="evenodd" class="s2" d="m451 12.99c-3.02 1.13-7.98 3.5-11 5.28-3.02 1.78-9.58 7.28-14.57 12.23-7.38 7.32-9.91 10.68-13.62 18-2.51 4.95-5.49 11.93-6.63 15.5-1.14 3.57-3.7 12.8-5.69 20.5-1.99 7.7-4.29 16.25-5.13 19-0.84 2.75-4.74 11.75-8.67 20-7.08 14.84-7.16 15.1-7.55 24.5-0.22 5.23 0.15 13.32 0.82 18 1 7.01 0.98 8.63-0.12 9.23-0.74 0.41-2.58 0.75-4.09 0.75-1.51 0.01-2.75 0.47-2.75 1.02 0 0.55 3.04 3.2 6.75 5.88 3.71 2.68 9.45 6.6 12.75 8.7 3.3 2.1 9.04 5.08 12.75 6.62 3.71 1.54 6.98 2.57 7.25 2.3 0.27-0.27-3.24-4.21-7.82-8.75-4.57-4.54-9.5-10.27-10.95-12.75-1.45-2.48-3.38-7.43-4.29-11-1.14-4.52-1.44-8.17-0.96-12 0.38-3.02 2.04-8.88 3.69-13 1.65-4.13 5.1-10.51 7.66-14.19 2.57-3.67 7.82-10.22 11.67-14.54 3.85-4.32 9.59-10.09 12.76-12.81 3.17-2.73 8.35-6.49 11.5-8.36 3.16-1.87 8.44-4.5 11.74-5.84 3.99-1.63 8.85-2.64 14.5-3.01 8.16-0.53 8.84-0.41 17 3.1 4.67 2.01 12.03 5.8 16.35 8.41 4.32 2.6 12.42 9.06 18 14.34 5.58 5.28 13 13.6 16.48 18.5 3.49 4.89 7.99 12.27 10 16.4 3.53 7.2 3.67 7.91 3.64 18-0.02 9.11-0.36 11.23-2.58 16-1.4 3.02-4.65 8.09-7.22 11.25-2.57 3.16-4.44 5.98-4.17 6.25 0.27 0.27 2.41-0.47 4.75-1.66 2.34-1.19 7.17-4.06 10.75-6.37 3.58-2.32 8.86-5.39 11.75-6.84 2.89-1.45 5.25-3.31 5.25-4.13 0-1.13-1.22-1.5-5-1.5h-5c1.16-5.04 1.49-12.35 1.48-19.5l-0.01-13c-16.15-32.58-20.54-43.34-27.5-63.5-5.03-14.57-10.46-28.98-12.06-32-1.6-3.03-4.59-7.55-6.66-10.05-2.06-2.5-7.35-7.8-11.75-11.78-5.12-4.63-10.7-8.55-15.5-10.86-6.1-2.94-8.9-3.69-15-4-5.79-0.29-8.75 0.1-13 1.68zm-213.5 70.41c-9.35 2.37-19.48 5.37-22.5 6.66-3.02 1.29-8.2 3.92-11.5 5.85-3.3 1.92-7.96 5.31-10.36 7.54-2.4 2.23-4.95 5.17-5.65 6.55-0.71 1.37-2.91 7.34-4.89 13.25-1.98 5.91-5.4 14.35-7.6 18.75-2.2 4.4-4.45 8.23-5 8.5-0.55 0.27-1 1.06-0.99 1.75 0 0.69-3.81 8-8.48 16.25-5.01 8.85-9.51 18.28-10.98 23-1.38 4.4-2.97 11.15-3.55 15-0.58 3.85-0.78 8.57-0.43 10.5 0.34 1.93 1.03 5.19 1.52 7.25 0.5 2.06 1.25 3.75 1.66 3.76 0.41 0.01 1.56-5.28 2.55-11.75 0.99-6.47 2.19-12.44 2.66-13.26 0.6-1.04 1.08 0.18 1.59 4 0.4 3.02 1.35 7.75 2.09 10.5 0.75 2.75 2.6 6.7 4.11 8.79 1.51 2.08 4.1 4.22 5.75 4.76 1.65 0.54 4.57 0.97 6.5 0.94 1.93-0.02 5.53-0.96 8-2.09 2.47-1.13 7.31-4.04 10.75-6.48 4.26-3.01 6.25-3.94 6.25-2.92 0 0.82-3.3 4.99-7.34 9.25-5.45 5.75-9.33 8.78-15.03 11.75-4.23 2.2-7.67 4.34-7.66 4.75 0.02 0.41 1.49 1.04 3.28 1.4 1.79 0.36 5.39 0.58 8 0.5 2.61-0.08 6.1-0.83 7.75-1.65 1.65-0.82 6.26-4.76 10.25-8.75 3.99-3.99 8.45-9.5 9.92-12.25 1.48-2.75 3.84-8.49 5.25-12.75 1.43-4.28 2.86-11.44 3.21-16 0.37-4.93 0.94-7.65 1.4-6.75 0.43 0.82 1.73 4.54 2.88 8.25 1.15 3.71 2.54 6.98 3.09 7.25 0.55 0.27 1.34 0.3 1.75 0.07 0.41-0.24-0.23-5.3-1.42-11.25-1.19-5.95-3.81-15.55-5.83-21.32-2.01-5.77-4.19-11.97-4.83-13.77-0.64-1.8-1.62-3.28-2.17-3.28-0.55-0.01-1.75 0.79-2.67 1.77-0.92 0.98-3.4 4.81-5.5 8.52-2.11 3.71-4.18 6.41-4.61 6-0.43-0.41-0.77-3.44-0.76-6.74 0.02-3.3 0.5-10.73 1.09-16.5 0.59-5.77 1.5-10.95 2.03-11.5 0.61-0.64 0.95 1.78 0.94 6.75-0.01 4.51 0.4 7.75 0.98 7.75 0.55 0 1.67-1.46 2.5-3.25 0.82-1.79 3.12-5.05 5.1-7.25 1.99-2.2 4.24-5.01 5.01-6.25 1.25-2.02 1.14-2.61-1.11-5.75-1.38-1.93-3.74-5.16-5.25-7.18l-2.75-3.68c8.77 6.8 10.27 7.36 14.5 7.36 3.8 0 5.66-0.56 7.75-2.35 1.51-1.28 3.49-3.87 4.4-5.75l1.65-3.4c2.67 5.43 4.17 7.8 5.07 8.78 1.02 1.12 3.03 1.77 5.38 1.75 2.91-0.02 4.21-0.65 5.78-2.78 1.34-1.81 2.04-4.29 2.04-7.25v-4.5c4.17 12.24 4.75 13.03 7.18 13.25 2.31 0.21 3.07-0.39 4.75-3.75 1.1-2.2 2.04-5.46 2.09-7.25q0.1-3.24 1.51 3.75c0.78 3.85 1.75 7.37 2.16 7.81 0.41 0.45 1.64 0.67 2.74 0.5 1.1-0.17 2.79-1.89 3.75-3.81 1.11-2.23 1.79-6.05 1.87-10.5l0.12-7c1.53 8.52 2.48 11.6 3.11 12.33 0.63 0.73 2.5 1.18 4.15 1 2.79-0.31 3.02-0.65 3.3-4.83 0.16-2.52-0.61-7.47-1.75-11.25-1.69-5.56-3.07-7.8-7.8-12.66-4.58-4.7-6.87-6.23-11.25-7.51-3.02-0.88-7.52-1.58-10-1.55-2.48 0.03-12.15 1.99-21.5 4.37zm419.75-2.35c-3.59 1.33-6.37 3.29-8.8 6.2-1.96 2.34-4.89 6.95-6.52 10.25-2.21 4.46-2.97 7.41-2.97 11.5 0.01 3.1 0.56 6.05 1.27 6.77 0.7 0.69 2.28 1.26 3.52 1.25 1.24-0.01 2.59-0.58 3-1.27 0.41-0.69 1.28-4.18 1.93-7.75 0.94-5.19 1.17-5.69 1.15-2.5-0.01 2.2 0.02 5.91 0.07 8.25 0.08 3.3 0.83 5.07 3.35 7.9 2.3 2.59 3.76 3.47 5 3 1.34-0.5 1.89-2.25 2.36-7.4l0.61-6.75c2.54 7.92 4.18 11.2 5.28 12.39 1.1 1.2 2.67 2.18 3.5 2.19 0.83 0 2.03-0.57 2.68-1.29 0.65-0.71 1.69-4.44 2.32-8.29 0.62-3.85 1.34-7.23 1.6-7.5 0.25-0.27 0.43 2.43 0.41 6-0.04 5.16 0.37 6.97 1.97 8.75 1.33 1.48 3.13 2.24 5.27 2.21 2.38-0.03 4.12-0.96 6.5-3.5 1.79-1.9 3.25-4.14 3.25-4.96 0-0.82 0.45-1.5 1-1.5 0.55 0 1.19 1.01 1.42 2.25 0.23 1.24 2.03 3.71 4 5.5 2.92 2.65 4.4 3.25 8.08 3.25 2.48 0 5.51-0.5 6.75-1.12 1.24-0.62 3.5-2.31 5.02-3.75 2.3-2.18 2.77-2.33 2.75-0.88-0.01 0.96-2.46 4.11-5.44 7l-5.42 5.25c10.7 10.85 14.38 14.19 15.07 14.43 0.98 0.33 1.1-0.76 0.52-4.75-0.48-3.29-0.38-5.18 0.25-5.18 0.55 0 1.25 0.79 1.55 1.75 0.3 0.96 0.96 8.05 1.48 15.75 0.52 7.7 0.95 14.79 0.96 15.75 0 0.96-0.33 1.76-0.74 1.77-0.41 0.01-3.45-4.07-6.75-9.06-3.3-5-6.28-8.72-6.62-8.27-0.34 0.44-2.44 5.54-4.65 11.31-2.22 5.77-4.75 12.64-5.63 15.25-0.88 2.61-2.18 8.46-2.89 13-0.71 4.54-1.16 9.04-1 10 0.16 0.96 0.79 1.64 1.39 1.5 0.61-0.14 2.3-3.97 3.75-8.52 1.46-4.55 2.88-8.27 3.15-8.26 0.27 0 0.89 3.73 1.36 8.27 0.47 4.54 1.53 10.51 2.35 13.26 0.82 2.75 3.33 8.6 5.59 13 2.84 5.54 6.27 10.18 11.15 15.09 4.51 4.53 8.67 7.71 11.55 8.83 3.81 1.48 5.39 1.58 10.25 0.66 3.16-0.59 5.75-1.53 5.75-2.08 0-0.55-2.36-2.31-5.25-3.9-2.89-1.6-7.27-4.58-9.75-6.62-2.48-2.04-6.63-6.24-9.23-9.34-2.6-3.1-4.52-5.87-4.26-6.14 0.26-0.27 3.29 1.51 6.73 3.96 3.44 2.46 8.4 5.27 11.01 6.25 2.61 0.99 6.21 1.78 8 1.76 1.79-0.02 4.71-0.92 6.5-2 2.03-1.23 4.18-3.94 5.73-7.22 1.37-2.89 3.06-8.73 3.75-12.97 0.7-4.25 1.59-7.4 1.99-7 0.39 0.39 1.74 6.01 3 12.47 1.46 7.53 2.73 11.75 3.53 11.75 0.84 0 1.45-2.55 1.87-7.75 0.34-4.26 0.32-10-0.05-12.75-0.36-2.75-1.38-7.7-2.26-11-0.88-3.3-3.03-9.15-4.78-13-1.75-3.85-5.78-11.27-8.95-16.5-3.18-5.23-5.84-9.99-5.93-10.58-0.08-0.6-0.66-1.73-1.29-2.5-0.62-0.78-3.04-5.24-5.38-9.92-2.33-4.68-6.03-13.68-8.21-20-2.18-6.32-4.53-12.63-5.23-14-0.7-1.38-3.28-4.3-5.73-6.5-2.45-2.2-7.58-5.66-11.38-7.68-3.81-2.02-10.98-5.03-15.93-6.69-4.95-1.65-14.96-4.38-22.25-6.07-7.29-1.68-15.61-3.04-18.5-3.01-2.89 0.03-7.61 0.93-10.5 2zm-525.85 45.17c-3.35 1.25-7.18 3.18-8.51 4.28-1.32 1.1-3.93 4.93-5.8 8.5-1.97 3.76-4.2 10.29-5.29 15.5-1.03 4.95-2.14 15.07-2.47 22.5-0.32 7.43-0.08 19.57 0.53 27 0.62 7.43 2.26 19.12 3.65 26 1.39 6.87 3.69 16.77 5.11 22 1.43 5.23 4.63 15.35 7.12 22.5 2.5 7.15 5.96 16.15 7.71 20 1.75 3.85 5.04 9.7 7.32 13 2.28 3.3 4.95 7.02 5.94 8.27 1.76 2.23 1.97 2.25 11.79 1.21 5.5-0.59 12.25-1.7 15-2.47 2.75-0.77 5.96-2.43 7.14-3.7 1.18-1.27 2.98-4.2 4-6.51q1.87-4.2 0.86-5.25c-0.69-0.73-1.93-0.1-4 2.03-2.42 2.49-3.38 2.9-5 2.13-1.1-0.53-4.93-4.15-8.5-8.06-3.57-3.9-6.81-6.77-7.19-6.37-0.38 0.4-0.25 2.07 0.27 3.72 0.53 1.65 2.53 5.81 4.44 9.25 1.91 3.44 3.48 6.7 3.48 7.25 0 0.56-2.83 1-6.5 1-3.78 0-7.76-0.63-9.5-1.5-1.65-0.82-4.76-3.86-6.92-6.75-2.15-2.89-5.7-8.85-7.88-13.25-2.18-4.4-5.55-12.27-7.5-17.5-1.94-5.23-4.69-13.55-6.1-18.5-1.41-4.95-3.51-13.5-4.65-19-1.15-5.5-2.35-14.27-2.67-19.5l-0.57-9.5c6.81-1.19 9.08-1.19 9.43-0.77 0.35 0.42 1.82 5.5 3.27 11.27 1.77 7.05 3.7 12.07 5.86 15.28 1.78 2.63 3.36 4.66 3.53 4.5 0.16-0.15-0.38-4.55-1.21-9.78-0.83-5.23-2.07-13.32-2.76-18-0.68-4.68-1.22-16.82-1.18-27 0.04-14.28 0.46-20.1 1.83-25.5 0.98-3.85 2.56-8.57 3.51-10.5 0.96-1.93 2.93-4.29 4.38-5.25 2.49-1.66 2.83-1.66 6.38-0.04 2.06 0.94 6.11 4.09 9 7 3.35 3.38 5.45 4.84 5.79 4.04 0.3-0.69-0.19-3.5-1.09-6.25-0.9-2.75-2.91-7.02-4.47-9.5-1.68-2.67-4.59-5.47-7.16-6.89-2.38-1.32-6.57-2.57-9.32-2.79-3.53-0.27-6.8 0.29-11.1 1.9zm649.1-1.13c-2.29 0.51-5.44 2.27-7.37 4.15-1.85 1.79-4.39 5.06-5.65 7.26-1.27 2.2-2.81 6.7-3.44 10-0.63 3.3-0.84 6.23-0.47 6.5 0.36 0.27 1.17-0.38 1.8-1.46 0.62-1.07 3.38-4.35 6.13-7.29 2.8-2.99 6.43-5.75 8.25-6.29 1.79-0.53 4.04-0.75 5-0.5 0.96 0.26 2.77 1.5 4.02 2.75 1.25 1.26 3.15 5.44 4.23 9.29 1.09 3.85 2.48 12.18 3.11 18.5 0.87 8.74 0.86 15.09-0.05 26.5-0.66 8.25-2.09 20.4-3.18 27-1.09 6.6-1.81 12.45-1.6 13 0.22 0.55 1.82-1.48 3.57-4.5 1.74-3.02 4.02-8.2 5.06-11.5 1.03-3.3 2.15-8.14 2.49-10.75l0.6-4.75c7.17 0 9.61 0.61 10.5 1.5 1.16 1.16 1.36 2.93 0.91 7.75-0.33 3.44-1.88 12.77-3.46 20.75-1.57 7.98-4.73 20.35-7.02 27.5-2.28 7.15-5.49 16.37-7.12 20.5-1.62 4.12-4.91 10.65-7.31 14.5-2.39 3.85-5.99 8.57-7.99 10.5-3.49 3.36-3.99 3.52-12.68 4l-9.05 0.5c5.29-7.75 7.82-12.59 9.02-15.75 1.21-3.16 2.2-6.2 2.2-6.75 0-0.55-0.34-0.98-0.75-0.96-0.41 0.02-3 2.98-5.75 6.59-2.75 3.6-6.58 7.65-8.5 9l-3.5 2.44c-6.25-7.54-6.28-7.55-7.39-5.32-0.72 1.47-0.76 2.42-0.11 2.75 0.55 0.27 1 1.4 1 2.5 0 1.1 1.3 3.46 2.88 5.25 1.88 2.12 4.57 3.7 7.75 4.56 2.68 0.72 9.54 1.85 15.25 2.5l10.38 1.19c6.88-7.75 10.86-14.05 13.28-19 2.42-4.95 6.23-13.95 8.48-20 2.24-6.05 5.4-15.95 7.01-22 1.61-6.05 4.09-16.63 5.51-23.5 1.42-6.91 2.95-18.77 3.41-26.5 0.46-7.71 0.45-21.42-0.03-30.5-0.57-10.82-1.55-19.08-2.86-24-1.1-4.13-3.25-10.24-4.78-13.59-1.84-4.02-4.22-7.24-7.04-9.5-2.34-1.87-6.39-3.96-9-4.64-2.61-0.68-6.32-1.19-8.24-1.14-1.92 0.04-5.3 0.48-7.5 0.96zm-504.33 4.36c-5.2 2.46-7.32 3.99-7.27 5.26 0.04 0.98 0.64 2.36 1.33 3.06 0.7 0.69 3.52 1.26 6.27 1.25 3.66-0.01 6.01-0.68 8.75-2.52 2.56-1.71 3.91-3.45 4.25-5.5 0.27-1.65 0.27-3.45 0-4-0.27-0.55-1.74-1-3.25-1.01-1.51 0-6.05 1.56-10.08 3.46zm361.81-0.2c-0.01 1.24 1.45 3.75 3.25 5.57 1.8 1.83 4.17 3.55 5.27 3.81 1.1 0.26 4.25 0.34 7 0.18 4.59-0.28 5-0.52 5-2.81 0-2.07-1.11-3.06-6.5-5.77-3.95-1.99-7.97-3.26-10.25-3.25-3.21 0.02-3.75 0.34-3.77 2.27zm-538.98 3.73c-1.38 0.44-4.07 1.51-6 2.37-1.93 0.87-3.2 1.59-2.84 1.61 0.37 0.02-0.33 1.28-1.54 2.79-1.21 1.51-3.6 6.35-5.32 10.75-1.72 4.4-3.85 11.82-4.73 16.5-1.12 5.96-1.6 14.34-1.59 28 0 12.61 0.52 22.5 1.47 28 0.81 4.68 2.38 11.43 3.49 15 1.12 3.57 3 8.07 4.2 10 1.19 1.93 2.35 3.05 2.57 2.5 0.23-0.55-0.28-5.27-1.12-10.5-0.83-5.23-1.82-13.32-2.18-18-0.52-6.62-0.36-8.76 0.71-9.69 0.76-0.66 3.85-1.49 6.88-1.86l5.5-0.65c3.58 22.24 5.92 33.88 7.5 40.2 1.58 6.32 4.42 15.77 6.3 21 1.88 5.23 4.45 11.52 5.72 14 1.26 2.48 2.47 4.05 2.67 3.5 0.21-0.55-0.93-5.73-2.54-11.5-1.6-5.77-4.52-17.48-6.49-26-1.96-8.52-4.24-20.23-5.07-26-0.83-5.77-2.01-16.35-2.63-23.5-0.62-7.15-0.83-17.27-0.48-22.5 0.36-5.23 1.29-13.66 2.08-18.75 0.79-5.09 2.6-12.51 4.02-16.5 1.42-3.99 3.42-7.93 4.46-8.75 1.03-0.82 1.56-1.85 1.17-2.28-0.39-0.43-3.64-0.72-7.21-0.66-3.57 0.06-7.62 0.47-9 0.92zm714.14-0.11c-0.07 0.62 0.2 1.12 0.61 1.11 0.41-0.02 1.72 1.67 2.91 3.75 1.19 2.07 3.1 6.7 4.25 10.27 1.14 3.57 2.54 8.98 3.11 12 0.57 3.02 1.47 10.9 2.02 17.5 0.66 8.1 0.64 17.03-0.08 27.5-0.58 8.52-1.75 20-2.59 25.5-0.84 5.5-2.41 14.05-3.49 19-1.07 4.95-3.76 15.52-5.97 23.5-2.21 7.98-3.77 14.61-3.47 14.75 0.31 0.14 1.97-2.56 3.69-6 1.72-3.44 4.84-11.43 6.93-17.75 2.09-6.32 4.94-17.13 6.34-24 1.39-6.88 2.89-16.1 3.32-20.5l0.78-8c9.3-0.4 12.56-0.18 13.24 0.24 0.96 0.59 0.99 3.16 0.15 11.76-0.6 6.05-1.6 14.29-2.24 18.32-0.63 4.02-0.81 7.51-0.4 7.75 0.41 0.24 1.64-1.03 2.72-2.82 1.09-1.79 2.88-6.63 3.99-10.75 1.11-4.13 2.52-12.45 3.15-18.5 0.64-6.29 0.88-17.2 0.54-25.5-0.32-7.98-1.45-18.77-2.52-24-1.06-5.23-2.88-11.98-4.04-15-1.15-3.02-3.56-7.62-5.35-10.22-2.28-3.32-4.87-5.53-8.74-7.44-3.73-1.85-7.62-2.87-12.11-3.17-4.47-0.3-6.65-0.07-6.75 0.7zm-569.89 1.79c-2.07 0.22-3.25 0.88-3.25 1.84 0 1.01 1.4 1.69 4.25 2.08 2.62 0.35 5.32 0.07 7.04-0.75 1.53-0.73 2.77-1.89 2.75-2.58-0.03-0.8-1.39-1.19-3.79-1.09-2.06 0.09-5.21 0.31-7 0.5zm434.75 0.31c-1.23 0.78-1.27 1.18-0.2 2.24 0.73 0.73 3.34 1.24 6 1.17 2.58-0.06 5.71-0.4 6.95-0.75 1.24-0.35 2.26-0.97 2.27-1.38 0.02-0.41-1.45-1.09-3.25-1.51-1.8-0.42-4.85-0.75-6.77-0.74-1.92 0.02-4.17 0.45-5 0.97zm-600.5 2.91c-2.75 0.99-6.35 2.51-8 3.39-1.65 0.87-4.58 2.77-6.5 4.22-1.92 1.45-4.97 4.74-6.77 7.32-1.8 2.58-4.15 7.39-5.22 10.69-1.07 3.3-2.44 10.05-3.04 15-0.6 4.95-1.06 15.07-1.03 22.5 0.03 7.43 0.73 19.35 1.56 26.5 0.83 7.15 2.21 16.37 3.06 20.5 0.86 4.12 1.46 8.18 1.34 9-0.12 0.82 0.04 2.18 0.35 3 0.32 0.82 2.47 7.57 4.78 15 2.32 7.43 5.98 17.55 8.15 22.5 2.16 4.95 5.87 11.7 8.24 15 2.36 3.3 6.05 7.21 8.19 8.69 2.14 1.49 5.13 3.17 6.64 3.75 1.51 0.58 5 1.06 7.75 1.06 2.75 0 6.35-0.68 8-1.5 1.65-0.82 3-1.95 3-2.5 0-0.56-2.76-1-6.25-1.01-5.09-0.01-7.22-0.56-11.5-3-3.09-1.76-6.43-4.74-8.12-7.24-1.58-2.34-4.79-8.07-7.14-12.75-2.35-4.68-6.48-15.25-9.18-23.5-2.7-8.25-6.2-21.52-7.77-29.5-1.57-7.98-3.12-16.41-3.45-18.75-0.39-2.85-0.18-4.55 0.66-5.16 0.69-0.49 3.28-1.2 5.75-1.57l4.5-0.68c3.67 21.44 6.02 32.16 7.59 37.66 1.56 5.5 4.24 13.37 5.94 17.5 1.7 4.12 3.96 8.96 5.03 10.75 1.07 1.79 2.28 3.05 2.69 2.81 0.41-0.24-1.19-7.32-3.55-15.75-2.37-8.42-5.74-22.06-7.5-30.31-3.16-14.89-3.19-15.21-3.16-43.5 0.02-26.43 0.19-29.08 2.26-36.5 1.24-4.4 3.59-10.81 5.22-14.25 1.64-3.44 4.22-7.39 5.73-8.78l2.75-2.54c-4.65 0.11-8.25 0.95-11 1.95zm763.5-0.38c0 0.82 0.34 1.5 0.75 1.5 0.41 0 2.62 2.81 4.91 6.25 2.28 3.44 4.86 8.5 5.72 11.25 0.87 2.75 2.26 8.26 3.1 12.25 0.84 3.99 2.01 13.44 2.6 21 0.79 10.03 0.77 17.4-0.06 27.25-0.62 7.43-2.22 19.35-3.56 26.5-1.33 7.15-4.44 20.2-6.9 29-2.46 8.8-4.23 16.23-3.93 16.5 0.29 0.27 1.22-0.4 2.06-1.5 0.83-1.1 2.85-4.93 4.48-8.5 1.63-3.57 4.3-11 5.92-16.5 1.63-5.5 4.03-15.63 5.33-22.5 1.3-6.88 2.64-14.19 2.98-16.25 0.55-3.44 0.87-3.75 3.85-3.74 1.79 0.01 4.26 0.24 5.5 0.5 1.93 0.42 2.25 1.13 2.25 4.99 0 2.48-0.92 9.79-2.03 16.25-1.12 6.46-2.9 15.12-3.96 19.25-1.06 4.12-3.11 11.1-4.56 15.5-1.45 4.4-5.36 13.62-8.69 20.5-4.37 9.02-7.34 13.76-10.66 17.02-2.8 2.76-6.55 5.21-9.6 6.27-2.75 0.95-6.69 1.73-8.75 1.72-2.06 0-3.75 0.44-3.75 0.99 0 0.55 1.01 1.51 2.25 2.13 1.29 0.65 5.28 0.97 9.35 0.75 6.44-0.34 7.55-0.74 12-4.21 2.69-2.11 6.66-6.16 8.8-9 2.15-2.84 5.58-8.77 7.64-13.17 2.05-4.4 5.38-12.73 7.39-18.5 2.01-5.77 4.33-13.2 5.16-16.5 0.82-3.3 1.74-6.68 2.05-7.5 0.3-0.82 0.68-3.3 0.83-5.5 0.16-2.2 1-9.63 1.86-16.5 0.86-6.88 1.62-18.8 1.68-26.5 0.06-7.7-0.56-18.95-1.38-25-0.81-6.05-2.64-14.6-4.04-19-1.41-4.4-3.8-9.89-5.32-12.2-1.53-2.31-5.02-5.93-7.77-8.04-2.75-2.11-7.92-4.83-11.5-6.06-3.58-1.22-7.74-2.21-9.25-2.21-1.77 0.01-2.75 0.54-2.75 1.51zm-519 34.82c-4.13 1.29-10.49 4.11-14.15 6.26-3.66 2.16-9.39 6.4-12.74 9.42-3.36 3.02-6.1 5.95-6.11 6.5 0 0.55 1.35 1.11 3 1.25 1.78 0.15 5.95-1.14 10.25-3.17 3.99-1.89 8.37-3.75 9.75-4.14 1.82-0.52 0.6 1.06-4.5 5.84-6.8 6.38-6.94 6.61-5 8.15 1.1 0.88 5.82 4.2 10.5 7.38 4.68 3.18 11.87 7.2 16 8.93 4.12 1.73 11.55 4.22 16.5 5.54l9 2.4c-10.85 1.01-17.19 1.31-21.08 1.31-3.9 0.01-7.37 0.35-7.72 0.76-0.34 0.41 1.48 3.45 4.04 6.75 2.57 3.3 9.19 10.52 14.71 16.05 5.53 5.52 12.98 12.27 16.55 14.98 3.57 2.72 10.32 7.36 15 10.32l8.5 5.38c-7.75-1.04-10.79-1.54-11.75-1.79-0.96-0.24-1.75 0.01-1.75 0.56 0 0.55 1.24 1.86 2.75 2.9 1.51 1.05 6.24 3.3 10.5 5 4.26 1.71 12.14 3.84 17.5 4.74 6.39 1.07 12.51 1.44 17.75 1.07 4.4-0.3 10.93-1.31 14.5-2.23 3.57-0.92 8.75-2.81 11.5-4.18 2.75-1.38 6.7-4.15 8.77-6.15 2.07-2.01 4.21-5 4.76-6.65 0.54-1.65 1.32-5.36 1.73-8.23l0.74-5.24c-11.25-0.02-13.42-0.41-13.25-1.16 0.14-0.62 2.5-1.79 5.25-2.59 2.75-0.79 5.37-1.75 5.83-2.11 0.45-0.37-0.49-2.24-2.09-4.17-1.72-2.06-6.67-5.45-12.08-8.25-5.04-2.61-9.05-4.98-8.91-5.27 0.14-0.29 3.4 0.23 7.25 1.15 3.85 0.91 8.24 2.27 9.75 3.02 1.51 0.74 3.2 1.35 3.75 1.35 0.62 0 0.67-0.67 0.13-1.75-0.48-0.96-3.51-4.62-6.75-8.14-3.23-3.51-8.58-8.3-11.88-10.63-3.3-2.34-9.6-6.05-14-8.25-4.4-2.2-12.05-5.42-17-7.16-4.95-1.74-13.27-4.06-18.5-5.15-5.44-1.14-16.18-2.3-25.13-2.71-11.56-0.52-15.2-0.99-14-1.77 0.9-0.58 4.56-2.34 8.13-3.9 3.57-1.56 9.61-3.34 13.42-3.94l6.91-1.1c-7.62-6.35-12.31-9.86-15.33-11.91-3.02-2.04-7.75-4.4-10.5-5.24-2.75-0.84-9.05-1.72-14-1.95-7.44-0.35-10.3-0.02-16.5 1.92zm260.75-0.74c-3.16 0.78-8.11 2.61-11 4.06-2.89 1.45-6.81 3.82-8.73 5.25-1.91 1.44-4.46 3.73-5.66 5.11-1.2 1.37-2.04 2.73-1.88 3 0.16 0.27 2.93 1.11 6.16 1.86 3.22 0.74 9.23 2.97 13.36 4.94l7.5 3.58c-30.08 1.31-36.54 2.1-45 4.15-6.05 1.47-14.15 3.8-18 5.19-3.85 1.39-9.25 3.64-12 5-2.75 1.37-7.58 4.12-10.74 6.13-3.16 2.01-5.75 3.99-5.75 4.4-0.01 0.41 0.78 0.47 1.74 0.13 0.96-0.35 4.45-1.47 7.75-2.51 3.3-1.03 6.11-1.65 6.25-1.37 0.14 0.27-4.14 2.75-9.5 5.49-6.48 3.31-12.1 7.16-16.75 11.45-3.85 3.56-6.33 6.48-5.5 6.5 0.83 0.01 4.87-1.13 9-2.53 4.12-1.41 8.37-2.41 9.43-2.23 1.25 0.21-1.01 1.77-6.5 4.5-4.64 2.29-10.23 5.74-12.43 7.66-2.76 2.41-3.69 3.83-3 4.58 0.55 0.6 3.92 1.78 7.5 2.63 3.58 0.85 6.82 1.86 7.22 2.25 0.39 0.38-2.31 1.02-6 1.4-3.7 0.39-7.17 1.19-7.72 1.78q-1 1.07 0.35 7.3c0.74 3.42 1.97 7.46 2.75 8.97 0.94 1.85 3.78 3.9 8.65 6.25 3.99 1.93 10.85 4.41 15.25 5.51 5.57 1.4 11.27 2.01 18.75 2 5.91 0 14.01-0.64 18-1.42 3.99-0.77 9.73-2.35 12.75-3.51 3.02-1.16 7.84-3.56 10.7-5.34 2.86-1.78 5.02-3.47 4.8-3.74-0.21-0.27-3.23 0.09-6.69 0.8-3.47 0.72-6.93 1.17-7.69 1-0.76-0.16 2.61-2.55 7.5-5.3 4.88-2.74 11.57-7.02 14.85-9.5 3.29-2.47 10-8.55 14.93-13.5 4.92-4.95 11.61-12.38 14.85-16.5 4.32-5.5 5.54-7.7 4.57-8.23-0.73-0.41-5.37-0.78-10.32-0.83-4.95-0.05-11.02-0.41-13.5-0.81l-4.5-0.72c12.4-2.81 19.37-4.92 23.5-6.5 4.12-1.59 10.22-4.58 13.55-6.65 3.33-2.07 8.19-5.56 10.8-7.76 2.61-2.2 4.72-4.56 4.7-5.25-0.03-0.69-2.19-3.05-4.8-5.26-2.61-2.2-5.99-4.57-7.5-5.25-1.52-0.68-2.75-1.58-2.75-1.99 0-0.41 0.34-0.74 0.75-0.74 0.41 0.01 5.25 2.06 10.75 4.55 6.39 2.9 11.08 4.43 13 4.24 1.65-0.17 3-0.88 3-1.59 0-0.7-3.15-3.96-7-7.24-3.85-3.28-10.38-7.74-14.5-9.9-4.13-2.17-10.42-4.64-14-5.49-3.58-0.85-9.42-1.52-13-1.48-3.58 0.04-9.09 0.7-12.25 1.48zm-334.75 19.47c-2.48 1.17-6.98 3.86-10 5.99-3.02 2.12-6.44 5.12-7.6 6.66-1.15 1.54-2.83 4.26-3.75 6.05-0.91 1.79-1.42 3.48-1.15 3.75 0.27 0.27 2.19-0.78 4.25-2.36 2.06-1.57 4.76-3.37 6-4 1.4-0.71 2.25-0.76 2.25-0.14 0 0.55-1.35 2.69-2.99 4.75-1.65 2.06-3.45 5.44-4 7.5-0.81 3.01-0.66 4.47 0.74 7.41 0.96 2.01 3.1 4.77 4.75 6.12 1.65 1.36 4.8 3.42 7 4.58 3.49 1.83 5.67 2.1 17 2.08 10.89-0.03 13.97-0.39 19-2.24 3.3-1.22 6.11-2.21 6.25-2.21 0.14 0.01 0.26 0.35 0.26 0.76 0.01 0.41-3.93 2.43-8.75 4.49-4.82 2.05-10.11 4.24-11.76 4.86-2.75 1.03-2.83 1.19-1 1.94 1.1 0.45 5.6 0.84 10 0.87 4.4 0.03 11.15-0.41 15-0.96 3.85-0.56 11.24-2.47 16.42-4.23 5.18-1.77 9.57-3.78 9.75-4.47 0.24-0.92-1.76-1.25-7.67-1.25-4.4 0-8.02-0.34-8.04-0.75-0.02-0.41 2.79-2.61 6.25-4.88 3.46-2.27 6.85-4.75 7.53-5.5 1.01-1.12-1.53-4.14-14-16.69-9.8-9.85-16.85-16.1-19.74-17.49-3.65-1.76-6.67-2.22-16-2.46-10.01-0.25-12.08-0.02-16 1.82zm406-0.12c-2.48 1-6.08 2.77-8 3.94-1.92 1.17-3.05 2.13-2.5 2.14 0.55 0.01-2.43 3.27-6.62 7.25-4.19 3.98-10.15 10.05-13.25 13.49-3.1 3.44-5.62 6.59-5.6 7 0.02 0.41 3.69 3.23 8.15 6.25l8.11 5.5c-11.91 0.39-15.29 0.94-15.29 1.5 0 0.55 1.91 1.88 4.25 2.96 2.34 1.07 7.85 2.91 12.25 4.07 5.16 1.36 11.55 2.17 18 2.29 5.96 0.11 10.12-0.22 10.31-0.82 0.17-0.55-2.53-2.15-6-3.56-3.47-1.41-8.22-3.78-10.56-5.25-2.34-1.48-4.14-2.91-4-3.18 0.14-0.27 2.73 0.34 5.75 1.36 3.02 1.02 8.87 2.43 13 3.12 4.18 0.7 10.05 0.98 13.25 0.63 3.16-0.34 7.66-1.36 10-2.27 2.34-0.91 5.71-2.71 7.5-4 1.79-1.29 4.15-3.81 5.26-5.6 1.42-2.29 1.82-4.13 1.38-6.25-0.35-1.65-1.56-4.35-2.68-6-1.12-1.65-3.2-4.23-4.62-5.74-1.42-1.51-2.36-2.97-2.09-3.25 0.27-0.28 3.31 1.29 6.75 3.49 3.44 2.2 6.48 3.77 6.75 3.5 0.27-0.27-0.25-1.96-1.17-3.75-0.91-1.79-3.95-5.53-6.75-8.31-2.98-2.96-8.18-6.6-12.58-8.78-6.95-3.44-8.12-3.71-16-3.63-5.75 0.05-9.96 0.67-13 1.9zm232.51 8.1c-0.28 0.53-0.17 7.47 0.24 15.41l0.75 14.44c9.87 2.03 13.14 3.18 13.62 3.87 0.48 0.69 0.62 2.49 0.31 4l-0.57 2.75c-12.12-1.31-13.98-1.19-14.32-0.25-0.26 0.69-0.6 2.59-0.75 4.23-0.26 2.67 0.24 3.26 4.96 5.75 3.97 2.09 5.25 3.32 5.24 5.02-0.01 1.24-1.07 4.5-2.36 7.25-1.29 2.75-3.32 5.9-4.52 7-1.2 1.1-2.16 2.34-2.14 2.75 0.02 0.41 1.61 0.75 3.53 0.75 2.54 0 4.19-0.75 6.02-2.75 1.38-1.51 3.42-5.23 4.53-8.25 1.11-3.02 2.27-6.18 2.59-7 0.31-0.82 0.69-3.07 0.85-5 0.15-1.93 0.55-4.96 0.89-6.75 0.34-1.79 0.96-3.25 1.37-3.25 0.41 0 0.91-5.52 1.12-12.25 0.32-10.91 0.13-12.72-1.75-16.5-1.17-2.34-3.58-5.11-5.37-6.17-1.79-1.06-5.61-2.84-8.49-3.97-3.09-1.21-5.45-1.65-5.75-1.08zm-851.51 2.02c-3.74 1.31-6.75 3.29-9.41 6.19l-3.9 4.26c0.85 19.37 2.01 29.73 3.13 35.5 1.11 5.77 2.85 12.91 3.85 15.85 1.28 3.73 2.74 5.91 4.83 7.22 1.65 1.03 4.24 1.88 5.75 1.9 1.51 0.02 2.75-0.2 2.75-0.47 0-0.27-1.57-2.41-3.49-4.75-1.91-2.34-3.89-6.05-4.4-8.25-0.5-2.2-0.62-4.84-0.26-5.87 0.36-1.02 3.01-2.93 5.9-4.25 4.64-2.1 5.25-2.73 5.25-5.38v-3h-17c0.02-4.26 0.36-6.02 0.77-6.65 0.4-0.63 3.65-1.71 7.23-2.39 3.57-0.68 6.82-1.51 7.2-1.85 0.39-0.33 0.75-7.1 0.82-15.03 0.11-13.24-0.03-14.45-1.7-14.69-1-0.15-4.3 0.6-7.32 1.66zm-21.5 39.02c-2.75 1.09-5.8 2.76-6.78 3.71-1.33 1.28-1.78 3.24-1.75 7.72 0.02 3.3 0.55 7.8 1.17 10 0.62 2.2 2.42 5.24 4 6.75 1.82 1.75 3.95 2.75 5.86 2.75 2.33 0 3-0.44 3-2 0-1.11-0.67-2-1.5-2-0.83 0-2.4-1.35-3.5-3-1.1-1.65-2.11-4.19-2.25-5.65-0.21-2.2 0.53-3.12 4.25-5.32 3.69-2.19 4.65-3.38 5.32-6.6 0.65-3.06 0.48-4.26-0.75-5.43-0.87-0.83-1.27-1.84-0.91-2.25 0.37-0.41 0.26-0.73-0.24-0.7-0.51 0.02-3.17 0.93-5.92 2.02zm896.73 0.18c-0.06 0.69-0.58 2.94-1.17 5-0.96 3.4-0.85 3.88 1.19 5.18 1.24 0.79 3.49 1.69 5 2 2.26 0.47 2.75 1.1 2.75 3.57 0 1.65-0.5 4.24-1.1 5.75-0.61 1.51-2.19 3.54-3.5 4.5-1.68 1.23-2.11 2.12-1.44 3 0.58 0.76 2.24 1.05 4.25 0.74 2.8-0.44 3.7-1.33 6.06-6 2-3.98 2.77-7 2.78-10.99 0.01-4.23-0.51-6.18-2.27-8.43-1.25-1.61-3.74-3.52-5.53-4.25-1.79-0.72-4.08-1.32-5.08-1.32-1.01 0-1.88 0.56-1.94 1.25zm-597.73 37.59c-3.85 3.13-10.82 8.03-15.5 10.88-4.68 2.84-11.88 6.42-16 7.94-6.78 2.49-8.7 2.75-20 2.66-8.75-0.07-15.05-0.7-21-2.11-4.68-1.1-13.79-3.4-20.25-5.11-6.46-1.7-12.43-3.1-13.25-3.1-0.82 0-1.5 0.67-1.5 1.5 0 0.87 2.81 2.81 6.75 4.64 3.71 1.73 8.55 3.78 10.75 4.57 2.2 0.78 8.05 2.54 13 3.91 7.03 1.94 12.39 2.61 24.5 3.06 12.65 0.48 16.7 0.27 22-1.09 3.57-0.92 8.98-3.07 12-4.77 3.02-1.7 7.52-4.69 10-6.65 2.48-1.95 6.36-6.05 8.64-9.11 2.27-3.06 5.04-7.25 6.15-9.31 1.11-2.06 1.72-3.72 1.36-3.68-0.36 0.04-3.8 2.63-7.65 5.77zm298.46-5.09c-0.02 0.41 1.74 3.45 3.9 6.75 2.17 3.3 6.24 8.14 9.04 10.75 2.81 2.61 5.1 4.98 5.1 5.25 0 0.27 1.46 1.4 3.25 2.49 1.79 1.09 4.94 2.89 7 4 2.06 1.11 6.34 2.69 9.5 3.52 3.51 0.91 10.04 1.48 16.75 1.46 6.05-0.02 14.38-0.66 18.5-1.43 4.13-0.76 12.67-3.18 19-5.37 6.33-2.19 13.08-4.58 15-5.32 1.92-0.74 3.83-1.8 4.23-2.35 0.41-0.55 0.75-1.34 0.75-1.75 0.01-0.41-1.67-0.72-3.73-0.69-2.06 0.03-6.9 0.92-10.75 1.98-3.85 1.06-11.73 3.11-17.5 4.57-7.71 1.94-13.29 2.67-21 2.77-6.38 0.07-12.46-0.43-15.5-1.29-2.75-0.78-8.15-2.97-12-4.89-3.85-1.91-9.48-5.15-12.5-7.2-3.02-2.05-8.2-6.03-11.5-8.85-3.3-2.82-6.34-5.14-6.75-5.14-0.41-0.01-0.77 0.33-0.79 0.74zm-509.95 28.25c0.58 1.92 2.36 5.75 3.96 8.5 1.59 2.75 4.5 6.91 6.46 9.25l3.57 4.25c11.24-0.01 17.1-0.8 20.28-1.76 3.18-0.96 5.77-1.97 5.77-2.24 0-0.27-1.39-1.85-3.09-3.5-1.69-1.65-4.96-5.34-7.27-8.19-2.3-2.86-4.53-5-4.94-4.75-0.41 0.24 0.16 3.03 1.27 6.19 1.1 3.16 2 6.54 2 7.5-0.02 1.2-0.81 1.75-2.52 1.75-1.37 0-3.74-0.49-5.25-1.09-1.51-0.59-6.92-5.21-12.02-10.25-8.6-8.49-9.2-8.9-8.22-5.66zm726.26 1.12c-1.52 2.26-5.02 6.02-7.77 8.37-2.75 2.34-6.46 4.99-8.25 5.88-2.38 1.19-3.79 1.36-5.25 0.63-1.1-0.55-2-1.56-2.01-2.25 0-0.69 0.68-3.95 1.51-7.25 0.83-3.3 1.25-6.23 0.93-6.5-0.32-0.27-0.95 0.17-1.4 1-0.45 0.82-2.89 4.09-5.42 7.25-2.54 3.16-5.96 6.42-7.61 7.25-1.65 0.82-3 1.95-3 2.5 0 0.55 2.36 1.5 5.25 2.12 2.89 0.61 8.85 1.37 13.25 1.67l8 0.54c7.36-7.23 10.89-12.14 12.58-15.58 1.7-3.44 2.83-7.03 2.52-7.99-0.45-1.39-1.12-0.92-3.33 2.36zm-519.94-0.37c-0.34 0.96-0.34 3.32 0.01 5.25 0.34 1.92 2.99 8.38 5.89 14.33 2.9 5.96 6.29 11.81 7.53 13 1.97 1.9 2.57 2.01 4.75 0.92 1.37-0.69 2.5-1.81 2.51-2.5 0.01-0.69-3.18-6.65-7.1-13.25-3.91-6.6-7.97-13.69-9.02-15.75-1.04-2.06-2.36-3.75-2.92-3.75-0.57 0-1.31 0.79-1.65 1.75zm311.34 5c-1.3 2.06-4.94 8.7-8.1 14.75l-5.74 11c3.62 2.78 5.23 3.57 5.92 3.54 0.69-0.02 2.36-1.73 3.72-3.79 1.36-2.06 3.65-6.68 5.09-10.25 1.44-3.58 2.94-8.63 3.34-11.24 0.39-2.61 0.57-5.42 0.41-6.25-0.17-0.83-0.76-1.51-1.3-1.51-0.54 0-2.05 1.69-3.34 3.75zm-74.35 26.38c0.22 0.75 5.18 7.67 11.01 15.37l10.6 14 0.07 14.5c5.81 0.73 9.64 1.18 12.25 1.47l4.75 0.53v-14c13.98-14.34 18.03-19.06 18.02-19.75-0.01-0.69-1.48-1.89-3.27-2.68-1.79-0.78-4.15-1.75-5.25-2.15-1.1-0.41-2.67-0.65-3.5-0.55-0.82 0.1-2.4 0.38-3.5 0.62-1.1 0.24-3.8 2.7-6 5.48-2.2 2.77-4.34 5.04-4.75 5.04-0.41-0.01-3.56-3.85-7-8.54-3.44-4.7-6.92-8.71-7.75-8.93-0.82-0.22-4.78-0.71-8.8-1.08-5.92-0.56-7.21-0.44-6.88 0.67zm-192.82 2.37c-3.85 0.7-8.8 1.75-11 2.34-2.2 0.58-4.34 0.86-4.75 0.61-0.41-0.25-2.62 1.24-4.91 3.3-3.94 3.55-4.18 4.1-4.56 10.25-0.39 6.25-0.27 6.63 2.91 9.85 2.29 2.32 3.92 3.19 5.31 2.82 1.1-0.29 6.17-0.9 11.26-1.35 8.47-0.75 9.26-0.67 9.25 0.93-0.01 1.18-1.22 2.05-3.76 2.69-2.06 0.52-7.57 1.66-12.25 2.54-4.67 0.87-8.87 1.91-9.33 2.3-0.46 0.4-0.57 2.86-0.25 5.47l0.58 4.75c8.14-0.82 15.34-2.17 21.25-3.53 5.91-1.36 11.86-3.26 13.21-4.22 1.35-0.96 3.44-3.55 4.63-5.75 1.75-3.2 2.05-4.95 1.55-8.75-0.51-3.74-1.33-5.31-3.89-7.38-3.03-2.46-3.72-2.6-10.25-2.03-3.85 0.34-9.25 0.9-12 1.26-4.6 0.6-4.88 0.52-3.5-0.99 0.95-1.05 6.09-2.5 14-3.96l12.5-2.31 0.27-10.34c-7.19 0.17-12.42 0.79-16.27 1.5zm-64 15.56c-6.6 2.24-15.49 5.84-19.75 8-4.47 2.28-7.75 4.57-7.75 5.44 0 0.83 0.34 1.5 0.75 1.5 0.41 0 5.48-0.92 11.25-2.05 5.78-1.12 13.43-2.67 17-3.44 3.58-0.78 8.98-1.89 12-2.48l5.5-1.08c-0.97-9.12-1.21-9.47-4-9.71-1.65-0.14-8.4 1.58-15 3.82zm329.76-2.81c-0.54 0.69-1.23 2.37-1.56 3.75-0.32 1.37-0.21 3.17 0.24 4 0.51 0.92 3.85 2.02 8.69 2.84 4.33 0.74 13.5 2.46 20.37 3.83 6.88 1.37 13.51 2.68 14.75 2.91q2.26 0.43 2.25-1.08c0-0.92-4.34-3.6-11.25-6.94-6.19-3-14.85-6.6-19.25-8.01-4.4-1.41-9.19-2.56-10.64-2.55-1.45 0-3.07 0.56-3.6 1.25zm-306.47 26.36c-4.01 0.68-11.34 1.96-16.29 2.85-4.95 0.9-16.87 3.4-26.5 5.57-9.62 2.17-21.77 5.3-27 6.95-5.22 1.66-11.22 4.25-13.33 5.76-2.1 1.52-4.93 4.34-6.28 6.26-1.35 1.92-2.89 5.75-3.42 8.5-0.53 2.75-1.01 23.45-1.06 46-0.07 27.93 0.26 41.96 1.02 44 0.61 1.65 1.66 4.04 2.34 5.31 0.68 1.27 3.03 3.17 5.23 4.23 2.81 1.36 6.16 1.94 11.25 1.95 3.99 0 7.25-0.33 7.24-0.74 0-0.41 2.58-1.31 5.75-1.98 3.17-0.68 17.24-4 31.26-7.38 14.03-3.37 27.97-6.87 31-7.76 4.97-1.48 5.8-2.15 8.79-7.13l3.3-5.5c-0.47-43.57-0.99-54.81-1.59-55.42-0.68-0.7-4.2-0.54-11 0.48-5.5 0.83-17.2 2.95-26 4.72l-16 3.22c-0.43 21.29-0.17 24.64 0.75 25.05 0.69 0.3 5.08-0.15 9.75-1.01 4.68-0.86 9.06-1.56 9.75-1.55 0.9 0.01 1.26 2.44 1.27 8.76l0.02 8.75c-25.99 5.91-33.76 7.33-34.04 6.98-0.27-0.35-0.61-16.13-0.75-35.06l-0.25-34.42c17.44-3.81 23.4-5.05 24.5-5.21 1.81-0.26 2.02 0.35 2.25 6.46 0.14 3.71 0.7 6.75 1.25 6.75 0.55 0 8.31-1.62 17.25-3.6 12.62-2.8 16.65-4.08 18.04-5.75 1.58-1.89 1.78-4.2 1.71-19.29-0.08-13.89-0.36-17.23-1.51-17.57-0.78-0.23-4.7 0.14-8.7 0.82zm288.69 1.64c-0.31 1.24-0.43 8.31-0.27 15.71l0.29 13.45c6.2 1.29 15.88 3.03 25.5 4.69 9.63 1.67 17.85 3.34 18.27 3.72 0.42 0.37-4.98 7.89-12 16.69-7.02 8.81-17.25 21.41-22.74 28-5.48 6.6-11.03 13.57-12.34 15.49-1.87 2.76-2.26 4.35-1.83 7.5 0.3 2.2 1.35 6.42 2.34 9.39 1.13 3.38 2.55 5.67 3.8 6.15 1.1 0.42 6.28 1.5 11.5 2.39 5.23 0.9 11.75 2.07 14.5 2.6 2.75 0.54 15.58 3.04 28.5 5.55 12.93 2.52 23.73 4.93 24 5.37 0.28 0.43 1.4 0.73 2.5 0.67 1.1-0.07 6.36 0.55 11.7 1.38 5.33 0.83 10.06 1.13 10.5 0.67 0.44-0.46 0.91-7.1 1.05-14.75l0.25-13.92c-16.66-3.8-27.69-6.27-35.25-7.95-7.56-1.68-15.1-3.05-16.75-3.05-1.65 0-3-0.45-3-1 0-0.55 4.86-6.51 10.79-13.25 5.94-6.74 15.91-18.1 22.15-25.25 6.24-7.15 12.97-15.44 14.95-18.41 3.27-4.91 3.64-6.17 3.96-13.5 0.29-6.88 0.07-8.34-1.5-9.75-1.02-0.91-4.77-2.61-8.35-3.77-3.57-1.17-15.05-3.94-25.5-6.17-10.45-2.23-23.5-4.93-29-6-5.5-1.06-14.72-2.61-20.5-3.42-5.77-0.82-11.96-1.49-13.73-1.49-2.53 0.01-3.36 0.51-3.79 2.26zm-160.48 58.25c0 39.73-0.27 50.5-1.25 50.52q-1.25 0.01 0.25 0.98c0.83 0.54 9.96 0.98 20.5 0.98l19 0.02-0.5-103h-38zm47.99 1.25v51.75c16.67 1.17 24.55 1.5 28.26 1.5h6.75c0.2-18.21 0.53-28.41 0.88-34.41l0.62-10.9 23 48.25c10.08 0.92 19.19 1.84 26.75 2.63 7.56 0.78 13.98 1.43 14.25 1.43 0.28 0 0.5-23.17 0.5-51.5v-51.5c-3.49-0.7-9.79-1.6-16.25-2.45-6.46-0.85-13.32-1.55-15.25-1.55h-3.5l-0.5 51.5c-20.67-41.08-27.42-53.29-28.34-53.64-0.91-0.35-7.4-1.14-14.41-1.75-7.01-0.61-15-1.11-17.75-1.11h-5zm-108.99-48.52c-9.63 1.09-18.4 2.32-19.5 2.74-1.51 0.57-2.8 3.46-5.21 11.64-1.77 5.99-7.54 26.41-12.82 45.39-5.28 18.98-10.48 37.42-11.56 41-1.08 3.58-1.95 6.84-1.94 7.25 0.02 0.41 1.26 0.76 2.78 0.76 1.51 0.01 9.05-0.73 16.75-1.65 7.7-0.92 14.59-2.16 15.32-2.76 0.73-0.61 1.99-3.58 2.8-6.6 0.81-3.02 2.12-6.96 2.92-8.75 1.24-2.77 2.09-3.33 5.71-3.75 2.33-0.28 7.62-0.62 11.75-0.75l7.5-0.25c2.8 13.95 3.7 18.1 3.8 18.22 0.11 0.13 8.3-0.23 18.2-0.78 9.9-0.56 18.35-1.33 18.78-1.73 0.44-0.39 0.34-1.84-0.22-3.21-0.56-1.38-3.94-13.3-7.5-26.5-3.56-13.2-9.2-34.35-12.53-47-3.32-12.65-6.04-23.56-6.04-24.25 0-0.87-1.74-1.21-5.74-1.12-3.17 0.06-13.63 1.01-23.25 2.1zm-59.09 117.18c-0.23 0.22-4.69 1.13-9.91 2.02-5.23 0.88-18.5 3.22-29.5 5.2-11 1.98-20.79 3.99-21.75 4.48-0.97 0.49-1.64 1.08-1.5 1.31 0.13 0.23 8.35 2.06 18.25 4.06 9.9 2 28.57 6.12 41.5 9.17 12.92 3.04 32.05 7.77 42.5 10.5 10.45 2.73 28.33 7.64 39.75 10.91 11.41 3.27 21.42 5.94 22.25 5.94 0.82 0 1.48-0.34 1.46-0.75-0.02-0.41-11.61-9.36-25.75-19.88-14.14-10.52-29.09-21.17-33.21-23.66-4.13-2.49-8.4-4.68-9.5-4.87-1.2-0.2-1.9 0.16-1.75 0.91 0.13 0.69 1.82 3.72 3.75 6.75 1.92 3.02 3.5 5.72 3.5 6 0 0.27-7.88-3.78-17.5-9-9.63-5.23-18.55-9.5-19.84-9.5-1.28 0-2.52 0.18-2.75 0.41zm280.59 2.97c-1.65 0.63-8.74 4.18-15.75 7.88-7.02 3.71-12.94 6.63-13.17 6.49-0.23-0.14 1.16-2.73 3.1-5.75 1.94-3.03 3.25-6.06 2.92-6.75-0.47-0.97-1.34-0.88-3.85 0.38-1.79 0.9-9.78 5.96-17.75 11.25-7.98 5.29-22.15 15.37-31.5 22.4-9.35 7.03-17 13.33-17 14 0 0.67 0.9 1.06 2 0.87 1.1-0.2 10.55-2.82 21-5.84 10.45-3.02 32.5-8.87 49-13.01 16.5-4.13 43.95-10.62 61-14.42 17.05-3.79 31.22-7.12 31.5-7.39 0.27-0.27 0.27-0.72 0-1.01-0.28-0.29-9.5-1.87-20.5-3.52-11-1.66-25.63-3.9-32.5-4.98-6.88-1.08-13.18-1.92-14-1.86-0.83 0.07-2.85 0.63-4.5 1.26zm-12.5 34.74c-5.78 1.04-15 2.98-20.5 4.3-5.5 1.32-13.38 3.6-17.5 5.05-4.13 1.45-10.2 4.6-13.5 6.99-3.3 2.39-8.48 6.6-11.5 9.34-3.03 2.74-5.15 5.37-4.73 5.84 0.43 0.47 5.61-1.31 11.5-3.97 5.9-2.66 17.48-7.43 25.73-10.6 8.25-3.18 22.09-8.2 30.76-11.17 9.1-3.12 15.75-5.93 15.75-6.65-0.01-0.72-1.17-1.2-2.76-1.14-1.52 0.07-7.48 0.97-13.25 2.01zm-255.49 0.13c0.23 0.69 4.6 2.78 9.7 4.65 5.11 1.87 14.91 5.52 21.79 8.11 6.87 2.59 19.25 7.93 27.5 11.86 8.25 3.93 15.32 6.81 15.72 6.39 0.4-0.42-2.75-3.95-7-7.84-4.25-3.9-9.52-8.22-11.72-9.61-2.2-1.39-7.15-3.66-11-5.04-3.85-1.39-11.28-3.46-16.5-4.62-5.23-1.15-13.55-2.78-18.5-3.62-4.95-0.84-9.32-1.53-9.71-1.53-0.39 0-0.51 0.56-0.28 1.25zm86.6-405.56c-0.06 1.55 0.59 7.08 1.43 12.31 0.85 5.23 2.39 11.3 3.43 13.5 1.04 2.2 5.3 7.26 9.46 11.25 4.16 3.99 8.02 7.25 8.57 7.25 0.55 0-2.79-7.31-7.43-16.25-4.63-8.94-9.7-19.35-11.25-23.14-1.55-3.79-3.11-7.08-3.47-7.31-0.35-0.23-0.69 0.85-0.74 2.39zm89.43 0.56c-0.79 1.79-5.26 12.93-9.93 24.75-4.66 11.82-8.24 21.73-7.94 22 0.3 0.27 3-2.2 6-5.5 3.01-3.3 6.73-7.8 8.27-10 1.55-2.2 3.59-6.25 4.53-9 0.98-2.84 1.94-9.43 2.22-15.25 0.34-7.09 0.15-10.25-0.61-10.25-0.61 0-1.75 1.46-2.54 3.25zm-108.54 20.25c0 0.82 0.69 4.99 1.53 9.25 0.84 4.26 2.85 10.45 4.45 13.75 1.61 3.3 5.09 8.43 7.72 11.41 2.64 2.97 12.43 11.52 21.75 19 11.04 8.85 18.62 15.77 21.75 19.84 2.64 3.44 5.25 6.25 5.8 6.25 0.62 0 0.76-1.83 0.36-4.75-0.35-2.61-1.02-5.76-1.5-7-0.47-1.24-7.2-8.66-14.96-16.5-7.75-7.84-15.85-16.95-18-20.25-2.15-3.3-4.07-6.45-4.27-7-0.19-0.55-0.76-0.66-1.24-0.24-0.5 0.42 0.1 3.27 1.37 6.5 1.24 3.16 2.03 5.97 1.74 6.24-0.28 0.27-1.68-0.62-3.11-2-1.43-1.37-4.54-5.2-6.91-8.5-2.37-3.3-5.83-8.7-7.71-12-1.87-3.3-4.27-8.15-5.33-10.78-1.07-2.63-2.28-4.77-2.69-4.75-0.41 0.01-0.75 0.71-0.75 1.53zm132.47 14.25c-1.45 3.16-4.06 7.74-5.8 10.17-1.75 2.43-7.67 8.14-13.17 12.7-5.5 4.55-10.11 8.08-10.25 7.83-0.14-0.25 1.38-3.71 3.38-7.7 1.99-3.99 4.02-8.26 4.5-9.5 0.48-1.24 0.53-2.47 0.12-2.73-0.41-0.27-2.83 2.09-5.37 5.25-2.54 3.15-11.11 12.48-19.04 20.73-12.5 12.99-14.59 15.64-15.64 19.75-0.66 2.61-1.2 6.1-1.2 7.75 0 2.8 0.52 2.39 7.75-6.19 4.26-5.06 10.45-11.17 13.75-13.59 3.3-2.41 11.4-7.33 18-10.93 6.6-3.61 13.8-8 16-9.76 2.2-1.77 5.46-5.87 7.24-9.12 2.49-4.56 3.37-7.57 3.81-13.16 0.35-4.54 0.19-7.25-0.43-7.25-0.55 0-2.19 2.59-3.65 5.75zm-320.76 68.66c-4.96 5.44-9.31 9.12-13.29 11.23-3.26 1.73-7.38 3.42-9.17 3.75-1.79 0.34-3.24 0.95-3.24 1.36 0.01 0.41 1.58 1.76 3.5 3 1.92 1.24 6.3 3.44 9.74 4.89 3.93 1.67 8.85 2.83 13.25 3.13 3.85 0.26 9.47-0.05 12.5-0.69 3.02-0.65 8.1-2.39 11.29-3.88 3.18-1.48 5.77-2.93 5.76-3.2-0.01-0.27-3.63-1.29-8.03-2.25-4.41-0.96-8.36-2.29-8.77-2.95-0.58-0.92 2.2-1.03 12-0.5 7.01 0.39 12.77 0.36 12.79-0.05 0.03-0.41-3.87-3-8.65-5.75-4.79-2.75-11.77-7.52-15.51-10.59l-6.8-5.59zm490.26-0.28c-5.21 3.92-12.06 8.42-15.22 10-3.16 1.58-5.75 3.43-5.76 4.12 0 0.95 2.4 1.13 10 0.75 6.44-0.32 9.88-0.15 9.67 0.5-0.18 0.55-3.11 1.67-6.51 2.5-3.4 0.82-6.18 1.72-6.18 2 0.01 0.27 3.05 2 6.77 3.84 4.77 2.36 8.68 3.5 13.26 3.87 3.58 0.29 9.65 0.04 13.5-0.56 4.4-0.68 10.07-2.59 15.25-5.12 4.54-2.22 8.25-4.48 8.25-5.03 0-0.55-2.36-1.69-5.25-2.54-2.89-0.84-7.05-2.59-9.25-3.88-2.2-1.29-7.26-5.78-11.25-9.97-3.99-4.18-7.38-7.61-7.53-7.61-0.16 0-4.55 3.21-9.75 7.13zm-552.34 10.62c-0.88 4.26-1.87 9.55-2.2 11.75-0.5 3.37-0.13 4.63 2.32 8 1.6 2.2 4.67 5.22 6.83 6.71 2.16 1.49 7.07 3.86 10.92 5.26 3.85 1.4 10.6 2.96 15 3.46 4.57 0.52 11.21 0.55 15.5 0.07 4.13-0.47 9.75-1.88 12.5-3.13l5-2.28c-28.54-1.08-37.4-1.94-41.5-2.99-3.57-0.92-8.07-2.49-10-3.48-1.92-0.99-4.17-2.97-5-4.4-0.82-1.43-1.14-2.97-0.7-3.41 0.44-0.45 3.14-0.18 6 0.58 2.86 0.77 5.76 1.55 6.45 1.75 0.69 0.2 1.33-0.11 1.42-0.68 0.09-0.58-2.73-4.29-6.27-8.25-3.54-3.97-8.01-9.36-9.92-11.99-1.91-2.63-3.76-4.77-4.11-4.75-0.34 0.02-1.35 3.52-2.24 7.78zm626.83-3.02c-1.63 2.61-6.22 8.23-10.21 12.5-3.99 4.27-7.25 8.22-7.25 8.77 0 0.57 2.92 0.13 6.75-1 3.71-1.1 7.31-2 8-2 0.69 0 1.23 0.56 1.21 1.25-0.02 0.69-1.51 2.6-3.3 4.25-1.8 1.65-5.72 3.76-8.71 4.69-3 0.93-8.94 2.17-13.2 2.75-4.26 0.58-12.7 1.06-18.75 1.06-8.32 0-10.92 0.3-10.65 1.25 0.18 0.69 2.77 2.09 5.75 3.12 2.97 1.03 8.33 2.08 11.9 2.34 4.38 0.32 9.76-0.2 16.5-1.61 5.5-1.15 12.7-3.35 16-4.9 3.3-1.54 7.91-4.69 10.25-7 2.34-2.31 4.53-5.44 4.88-6.95 0.37-1.62-0.4-6.98-1.86-13-1.37-5.64-2.9-10.25-3.41-10.25-0.52 0-2.27 2.13-3.9 4.73zm-444.95 10.52c0.39 1.79 2.1 6.62 3.81 10.75 1.7 4.12 5.19 10.65 7.75 14.5 2.56 3.85 6.63 8.47 9.04 10.28 2.42 1.8 6.87 4.2 9.89 5.32 3.03 1.13 9.33 2.92 14 3.99 5.18 1.18 8.89 1.58 9.5 1.03 0.63-0.58-2.5-2.93-8.5-6.39-5.22-3.01-13.1-8.33-17.5-11.83-4.4-3.49-10.16-8.61-12.81-11.37-2.64-2.77-6.92-8.31-9.5-12.31-2.58-4-5.07-7.26-5.54-7.25-0.47 0.02-0.53 1.49-0.14 3.28zm265.88 5.38c-3.9 4.88-9.75 11.31-12.99 14.29-3.25 2.98-8.6 7.42-11.9 9.86-3.3 2.44-9.72 6.75-14.27 9.58-4.55 2.83-7.93 5.51-7.5 5.97 0.42 0.45 3.92 0.3 7.77-0.34 3.85-0.65 10.15-2.36 14-3.81 5.32-2.01 8.33-3.97 12.53-8.16 3.05-3.04 7.3-8.22 9.46-11.52 2.15-3.3 5.4-9.71 7.21-14.25 1.82-4.54 3.18-8.75 3.04-9.37-0.14-0.61-3.45 2.88-7.35 7.75zm-297.89-4.71c-1.1 0.43-10.55 1.02-21 1.3l-19 0.5c-8.52 6.15-13.47 9.51-16.5 11.45-3.02 1.93-7.52 4.51-10 5.74-2.89 1.44-4.14 2.57-3.5 3.17 0.55 0.51 5.05 1.6 10 2.42 4.95 0.82 11.59 1.49 14.75 1.49 3.16 0.01 8.11-0.48 11-1.07 2.89-0.59 9.53-3.17 14.75-5.72 7.03-3.45 11.25-6.35 16.21-11.18 3.69-3.59 6.73-7.08 6.75-7.77 0.02-0.69-0.3-1.22-0.71-1.19-0.41 0.04-1.65 0.42-2.75 0.86zm331.51 1.07c0 0.55 2.8 3.56 6.24 6.68 3.44 3.13 8.73 7.25 11.75 9.17 3.03 1.91 8.43 4.64 12 6.06 5.9 2.33 7.79 2.57 20.5 2.55 11.08-0.01 14.78-0.38 17.75-1.73 2.06-0.95 3.75-2.17 3.75-2.72 0-0.55-0.67-1-1.5-1-0.82 0-4.54-1.63-8.25-3.62-3.71-1.99-10.24-6.04-14.5-9l-7.75-5.38c-25.19-0.84-34.18-1.29-36.24-1.55-2.16-0.28-3.74-0.05-3.75 0.54zm-173.51 35.59c-4.95 3.01-12.37 6.56-16.5 7.89-4.12 1.33-11.77 3.32-17 4.42-5.22 1.1-12.54 2.37-16.26 2.81l-6.76 0.8c0.02 7.36 0.36 9.49 0.77 9.49 0.41-0.01 7.73-0.65 16.25-1.42 8.53-0.78 21.92-1.78 29.76-2.24 12.59-0.73 14.25-1.03 14.25-2.58-0.01-0.96-0.5-3.89-1.09-6.5-0.99-4.34-0.85-5.23 1.64-10.25l2.73-5.5c2.88 10.46 4.84 15.97 6.21 19 2.28 5.02 2.79 5.5 5.75 5.51 1.79 0.01 11.13 0.45 20.75 0.98 9.63 0.53 21.21 1.2 25.75 1.49l8.25 0.52c0-8.82-0.13-9.02-3.25-9.45-1.79-0.25-7.97-1.13-13.75-1.96-5.77-0.83-14.55-2.93-19.5-4.66-4.95-1.74-12.15-4.74-16-6.67-3.85-1.93-8.24-4.36-9.75-5.39-1.51-1.03-2.86-1.85-3-1.82-0.14 0.04-4.3 2.52-9.25 5.53zm-128.06 3.67c0.36 2.89 1.14 7.5 1.73 10.25 0.59 2.75 2.6 8.26 4.46 12.25 1.85 3.99 3.82 7.25 4.37 7.25 0.55 0 2.24-0.49 3.75-1.08 1.51-0.59 3.05-1.6 3.41-2.25 0.36-0.64 0.1-2.75-0.59-4.67-0.69-1.93-3.19-6.88-5.57-11-2.37-4.13-5.6-9.41-7.16-11.75-1.56-2.34-3.34-4.25-3.95-4.25-0.75 0-0.9 1.68-0.45 5.25zm268.91 3.92c-3.34 4.58-6.65 9.45-7.36 10.83-0.71 1.37-2.14 4.97-3.17 8-1.8 5.26-1.8 5.55-0.1 6.77 0.98 0.69 2.79 1.26 4.03 1.25 1.49-0.02 3.28-1.45 5.29-4.27 1.68-2.34 3.93-6.61 5-9.5 1.08-2.89 2.34-8.42 2.81-12.3 0.47-3.87 0.56-7.51 0.21-8.07-0.36-0.57-3.38 2.71-6.71 7.29zm-21.35 3.98c-4.12 2.76-10.85 7.57-14.95 10.69l-7.45 5.66c6.12 0.51 10.15 0.39 12.9 0.06q5-0.6 8.5-3.39c1.93-1.54 4.97-5.7 6.77-9.24 1.8-3.53 3.26-6.99 3.25-7.68-0.01-0.69-0.36-1.22-0.77-1.19-0.41 0.03-4.12 2.32-8.25 5.09zm-226.91-2.46c-0.06 0.99 0.98 4.06 2.32 6.81 1.33 2.75 4.04 6.46 6.01 8.25 1.97 1.79 5.04 3.51 6.83 3.82 1.79 0.32 4.79 0.43 6.67 0.25 1.89-0.18 3.57-0.88 3.75-1.57 0.18-0.69-1.67-2.71-4.11-4.5-2.43-1.79-7.72-5.55-11.75-8.35-4.02-2.81-7.83-5.42-8.46-5.81-0.69-0.43-1.19 0.01-1.26 1.1zm84.22 30.68l-5.81 8.37c-10.89-14.91-11.84-15.74-14.75-15.73-1.79 0-5.62 0.34-8.51 0.75l-5.27 0.74-0.02 43c5.08-1.18 8.46-1.52 10.8-1.51l4.25 0.01c-0.02-11.24 0.25-16.08 0.58-18l0.61-3.5c8.38 12.01 11.26 15.5 11.81 15.5 0.55 0 3.59-3.87 6.75-8.61l5.75-8.61 0.5 21.22h15v-42h-15.88zm29.69 12.63v21h17v-10c19.74-0.01 22.03-0.34 24.75-2 1.79-1.1 3.74-3.24 4.34-4.75 0.59-1.51 0.93-5.53 0.75-8.92-0.24-4.29-0.98-7.03-2.43-9-1.15-1.56-3.17-3.37-4.5-4.03-1.32-0.67-5.56-1.67-9.41-2.23-3.85-0.57-12.29-1.04-18.75-1.05l-11.75-0.02zm51.99 2.25l-0.01 21.25c30.63 3.07 39.97 3.97 40.52 3.98 0.55 0.01 1.11-2.79 1.25-6.23l0.25-6.25c-11.24-0.82-17.09-1.27-20.25-1.53l-5.75-0.47 0.43-30.72c-10.02-1-13.72-1.29-14.68-1.29-1.61 0.01-1.75 1.69-1.76 21.26zm-133.49-19.34l-5 0.59-0.53 43 16.05-2-0.02-42.5c-4.26 0.24-7.75 0.58-10.5 0.91z"/>
		<path id="dark2" class="s0" d="m471.5 22.84c-0.27 0.36 2.28 2.46 5.68 4.66 3.4 2.2 7.7 5.8 9.56 8 1.87 2.2 4.67 6.7 6.24 10 1.57 3.3 4.69 12.41 6.94 20.25 2.24 7.84 4.08 14.48 4.08 14.75 0 0.27-2.59-0.42-5.75-1.53-3.16-1.12-6.61-1.91-7.67-1.75-1.34 0.2 0.57 1.94 6.5 5.9 4.63 3.09 12.25 9.04 16.92 13.22 4.67 4.18 8.84 7.62 9.25 7.63 0.41 0.02 0.74-0.53 0.73-1.22-0.02-0.69-2.96-10.02-6.54-20.75-3.58-10.72-8.3-23.1-10.49-27.5-2.18-4.4-6.21-11.04-8.96-14.75-2.74-3.71-7.13-8.31-9.74-10.22-2.61-1.91-7.34-4.34-10.5-5.41-3.16-1.06-5.97-1.64-6.25-1.28zm-48.02 30.91c-3.05 3.71-7.51 10.57-9.91 15.25-2.39 4.68-6 13.68-8.02 20-2.01 6.32-3.52 12.09-3.36 12.81 0.19 0.81 3.02-0.95 7.31-4.54 3.85-3.22 9.7-7.9 13-10.4 3.3-2.5 8.14-5.74 10.75-7.21 2.61-1.46 4.75-2.88 4.75-3.16 0-0.28-1.24-0.21-2.75 0.15-1.51 0.36-6.69 2.39-11.5 4.5-7.53 3.31-8.75 3.61-8.74 2.1 0-0.96 1.94-6.47 4.3-12.25 2.36-5.78 5.96-13.31 7.99-16.75 2.04-3.44 3.7-6.47 3.7-6.75 0-0.28-0.44-0.5-0.98-0.5-0.54 0-3.48 3.04-6.54 6.75zm-241.1 95.84c-3.36 4.9-7.37 11.39-8.89 14.41-1.53 3.02-3.62 7.98-4.65 11-1.03 3.02-1.86 5.95-1.84 6.5 0.02 0.55 3.1-4.85 6.86-12 3.76-7.15 8.72-16.15 11.02-20 2.31-3.85 4.07-7.41 3.91-7.91-0.16-0.5-3.04 3.1-6.41 8zm559.68-7.09c-0.01 0.55 2.62 5.73 5.85 11.5 3.22 5.77 7.93 14.66 10.47 19.75 2.54 5.09 4.85 9.25 5.12 9.25 0.28 0 0.2-1.24-0.16-2.75-0.37-1.51-2.01-5.9-3.65-9.75-1.64-3.85-5.14-10.6-7.78-15-2.64-4.4-5.94-9.35-7.32-11-1.39-1.65-2.52-2.55-2.53-2zm-365.88 290.75c-1.75 8.39-3.19 15.59-3.19 16 0.01 0.41 3.05 0.47 6.76 0.13 3.71-0.35 6.88-0.68 7.03-0.75 0.15-0.07-1.08-6.99-2.75-15.38-1.66-8.39-3.39-15.25-3.84-15.25-0.44 0-2.25 6.86-4.01 15.25z"/>
		<path id="dark1" class="s0" d="m480.11 342.41l-0.11 4.59c7.75 0 11.12-0.45 12.5-1 1.5-0.6 2.5-1.8 2.5-3 0-1.15-0.96-2.37-2.25-2.88-1.24-0.48-4.56-1.19-7.39-1.59l-5.14-0.72z"/>
	</g>
</svg>