<?xml version="1.0" encoding="UTF-8" standalone="no"?>
<svg
   version="1.2"
   viewBox="0 0 32 32"
   width="32"
   height="32"
   id="svg1"
   xmlns="http://www.w3.org/2000/svg"
   xmlns:svg="http://www.w3.org/2000/svg">
  <defs
     id="defs1" />
  <style
     id="style1">
		.s0 { fill: #ffffff;stroke: #ffffff;paint-order:stroke fill markers;stroke-miterlimit:100;stroke-width: 30 } 
		.s1 { fill: #ffffff;stroke: #ffffff;paint-order:stroke fill markers;stroke-linecap: square;stroke-miterlimit:100;stroke-width: 30 } 
	</style>
  <rect
     style="fill:#000000;stroke:#860c26;stroke-width:0.969154;stroke-opacity:1"
     id="rect6"
     width="31.032032"
     height="31.041597"
     x="0.49153855"
     y="0.49153855" />
  <g
     id="RAW"
     transform="matrix(0.02996051,0,0,0.02996051,-3.5355637,8.8946118)">
    <g
       id="Ordner 1 copy">
      <path
         id="r"
         fill-rule="evenodd"
         class="s0"
         d="m 380.59,87.95 q 25.27,11.93 39.59,35.37 14.73,23.44 14.73,51.99 0,33.25 -20.21,59.67 -19.79,26 -50.95,34.52 l 82.2,125.42 h -17.63 l -80.57,-122.43 -13.48,0.42 H 228.58 l -0.2,93.91 -13.13,17.99 L 213,78.14 h 111.59 q 18.53,0 31.58,2.56 13.48,2.13 24.42,7.25 z M 228.58,257.14 h 109.9 q 21.9,0 40.43,-11.08 18.53,-11.08 29.48,-29.83 10.94,-18.75 10.94,-40.92 0,-24.71 -13.05,-44.75 -12.63,-20.03 -35.37,-29.83 -16.42,-6.82 -46.32,-6.82 l -28.75,50.32 z" />
      <path
         id="W"
         fill-rule="evenodd"
         class="s1"
         d="M 881.58,354.22 936.24,180.86 908.36,77.18 h 179.92 L 1022.57,394.68 994.56,395 944.52,211.79 894.97,395.4 H 865.32 L 806.34,127.25 820.22,93.61 Z m 125.35,-1.27 56.46,-259.65 H 929.27 l 23.53,87.56 z" />
      <path
         id="A"
         fill-rule="evenodd"
         class="s1"
         d="M 653.72,99.32 783.31,378.12 653.9,310.63 531.97,376.42 Z m 0,35.54 -98.69,214.63 97.6,-52.03 102.45,52.03 z" />
    </g>
  </g>
</svg>
