<svg version="1.2" xmlns="http://www.w3.org/2000/svg" viewBox="0 0 1303 476" width="1303" height="476">
	<style>
		.s0 { fill: #000000;stroke: #8f0c26;stroke-miterlimit:100;stroke-width: 25 } 
		.s1 { fill: #ffffff;stroke: #ffffff;paint-order:stroke fill markers;stroke-miterlimit:100;stroke-width: 30 } 
		.s2 { fill: #ffffff;stroke: #ffffff;paint-order:stroke fill markers;stroke-linecap: square;stroke-miterlimit:100;stroke-width: 30 } 
	</style>
	<g id="RAW">
		<path id="Form 2" fill-rule="evenodd" class="s0" d="m1289.55 12.68v450.23h-1276.47v-450.23z"/>
		<g id="Ordner 1 copy">
			<path id="r" fill-rule="evenodd" class="s1" d="m381.59 88.95q25.27 11.93 39.59 35.37 14.73 23.44 14.73 51.99 0 33.25-20.21 59.67-19.79 26-50.95 34.52l82.2 125.42h-17.63l-80.57-122.43-13.48 0.42h-105.69l-0.2 93.91-13.13 17.99-2.25-306.67h111.59q18.53 0 31.58 2.56 13.48 2.13 24.42 7.25zm-152.01 169.19h109.9q21.9 0 40.43-11.08 18.53-11.08 29.48-29.83 10.94-18.75 10.94-40.92 0-24.71-13.05-44.75-12.63-20.03-35.37-29.83-16.42-6.82-46.32-6.82l-28.75 50.32z"/>
			<path id="W" fill-rule="evenodd" class="s2" d="m882.58 355.22l54.66-173.36-27.88-103.68h179.92l-65.71 317.5-28.01 0.32-50.04-183.21-49.55 183.61h-29.65l-58.98-268.15 13.88-33.64zm125.35-1.27l56.46-259.65h-134.12l23.53 87.56z"/>
			<path id="A" fill-rule="evenodd" class="s2" d="m654.72 100.32l129.59 278.8-129.41-67.49-121.93 65.79zm0 35.54l-98.69 214.63 97.6-52.03 102.45 52.03z"/>
		</g>
	</g>
</svg>