<svg version="1.2" xmlns="http://www.w3.org/2000/svg" viewBox="0 0 1024 1024" width="2048" height="2048">
	<style>
		.s0 { opacity: 1;fill: #fcfafa } 
		.s1 { fill: #000000 } 
	</style>
	<g id="Ebene 4">
		<path id="Path 0" class="s0" d="m166.67 305.35c-2.1 0.63-4.94 2.5-6.3 4.15-1.36 1.65-3.3 4.57-4.31 6.5-1.01 1.92-2.74 6.42-3.85 10-1.11 3.57-2.77 11.45-3.7 17.5l-1.69 11c-9.16 1.16-12.72 1.95-13.82 2.5-1.62 0.81-2.11 2.36-2.61 8.25-0.34 3.99-0.29 12.2 0.09 18.25 0.39 6.05 1.31 15.72 2.05 21.5 0.74 5.77 2.23 14.55 3.3 19.5 1.08 4.95 2.9 12.15 4.06 16 1.16 3.85 2.44 7.61 2.86 8.35 0.63 1.14 1.9 1.11 7.75-0.16 3.85-0.83 7-1.44 7.01-1.35 0 0.09 1.06 3.31 2.34 7.16 1.29 3.85 4.75 11.95 7.69 18 2.94 6.05 7.29 13.2 9.65 15.89 2.37 2.69 6.22 5.95 8.56 7.25 3.12 1.74 5.11 2.2 7.5 1.74l3.25-0.62c-5.42-2.7-8.94-5.68-11.31-8.37-2.45-2.78-7.05-10.49-10.67-17.89-3.5-7.15-7.33-15.93-8.52-19.5-1.19-3.58-3.24-10.78-4.55-16-1.32-5.23-3.28-14.68-4.36-21-1.08-6.33-2.48-18.25-3.12-26.5-0.86-11.25-0.86-18.38-0.01-28.5 0.62-7.43 1.82-16.88 2.67-21 0.85-4.13 2.65-10.65 4-14.5 1.36-3.85 3.29-8.35 4.31-10 1.01-1.65 3.55-4.46 5.63-6.25 2.89-2.48 3.33-3.23 1.85-3.15-1.05 0.06-3.64 0.63-5.75 1.25zm685.6 3.65c2.05 2.2 4.57 5.69 5.59 7.75 1.03 2.06 2.83 6.67 4 10.25 1.18 3.57 2.84 9.87 3.69 14 0.88 4.27 1.79 15.67 2.12 26.5 0.36 11.66 0.14 23.06-0.56 29.5-0.63 5.77-2.53 17.25-4.22 25.5-1.69 8.25-4.61 19.72-6.49 25.5-1.88 5.77-6.1 15.9-9.39 22.5-3.28 6.6-7.89 14.22-10.24 16.94-2.35 2.71-6.3 6.17-8.77 7.68l-4.5 2.75c6.2 0.64 8.22 0.53 8.5 0.17 0.27-0.35 2.07-1.58 4-2.73 1.92-1.15 5.52-4.3 8-7 2.47-2.7 6.36-8.49 8.63-12.86 2.27-4.37 5.76-12.56 7.75-18.2 3.31-9.37 3.81-10.21 5.87-9.76 1.24 0.27 4.5 0.95 7.25 1.51 2.75 0.56 5.05 0.9 5.11 0.76 0.07-0.14 1.08-3.19 2.25-6.76 1.18-3.58 3.25-11.9 4.61-18.5 1.35-6.6 3.16-17.63 4-24.5 0.84-6.88 1.54-17.9 1.54-24.5 0.01-6.6-0.33-13.47-0.75-15.26-0.7-3-1.2-3.34-6.26-4.33-3.03-0.6-6.4-1.25-7.5-1.45-1.72-0.31-2.25-1.88-3.75-11.16-0.96-5.94-2.85-14.4-4.2-18.8-1.59-5.2-3.78-9.68-6.25-12.81-2.58-3.26-4.93-5.11-7.3-5.74-1.93-0.52-4.16-0.94-4.98-0.94-0.92-0.01-0.08 1.49 2.25 3.99zm32.07 7c1.66 1.92 4.27 6.2 5.81 9.5 1.54 3.3 3.67 9.37 4.73 13.5 1.06 4.12 2.43 11.89 3.03 17.25 0.6 5.36 1.09 15.49 1.09 22.5 0 7.01-0.7 18.82-1.56 26.25-0.85 7.42-2.87 19.57-4.48 27-1.62 7.42-4.46 18.22-6.32 24-1.86 5.77-4.84 13.42-6.63 17-1.78 3.57-5.16 9.42-7.5 13-2.33 3.57-6.22 8.16-8.63 10.18-2.41 2.03-4.02 4.05-3.59 4.5 0.44 0.45 2.42-0.08 4.41-1.18 1.98-1.1 6.05-4.7 9.05-8 3.69-4.06 7.15-9.55 10.74-17 2.91-6.05 6.12-13.42 7.15-16.38l1.86-5.37c6.2 1.22 9.56 1.62 11.46 1.67 3.21 0.07 3.58-0.25 5.14-4.42 0.93-2.48 2.84-9.68 4.26-16 1.42-6.33 3.27-16 4.13-21.5 0.85-5.5 1.8-16.3 2.12-24 0.31-7.7 0.18-16.48-0.28-19.5l-0.83-5.5-15-3.63c-1.15-10.36-2.62-17.53-3.99-22.62-1.38-5.09-3.25-10.71-4.15-12.5-0.9-1.79-2.86-4.83-4.35-6.75-1.81-2.34-4.03-3.83-6.7-4.5l-3.99-1zm-749.96-1.76c-1.95 0.65-4.29 2.78-6.23 5.65-1.72 2.54-4.2 7.76-5.53 11.61-1.33 3.85-3.25 11.9-4.27 17.89-1.01 5.99-2.3 10.99-2.85 11.12-0.55 0.13-3.7 0.75-7 1.38-3.3 0.63-6.33 1.71-6.73 2.38-0.41 0.68-0.74 8.88-0.75 18.23 0 9.71 0.61 21.07 1.43 26.5 0.78 5.22 2.41 14.22 3.6 20 1.2 5.77 3.15 13.87 4.33 18l2.14 7.5c5.41-0.14 8.92-0.36 11.28-0.59l4.3-0.41c6.62 16.27 9.36 22.57 10.36 24.5 1.01 1.92 3.51 5.97 5.57 9 2.06 3.02 5.42 6.85 7.48 8.5 2.06 1.65 4.7 3.63 5.87 4.4 1.22 0.8 2.97 1.1 4.12 0.71 1.85-0.64 1.77-0.83-1-2.49-1.65-0.99-4.59-3.56-6.54-5.71-1.95-2.15-5.39-7.06-7.63-10.91-2.25-3.85-5.52-10.38-7.25-14.5-1.74-4.13-4.49-12.23-6.11-18-1.62-5.78-4.05-15.68-5.39-22-1.34-6.33-2.92-15.89-3.51-21.25-0.59-5.36-1.07-17.51-1.07-27 0-9.49 0.47-21.08 1.05-25.75 0.58-4.68 1.75-11.2 2.6-14.5 0.85-3.3 2.5-8.48 3.65-11.5 1.16-3.03 3.53-7.41 5.28-9.75 1.75-2.34 2.9-4.2 2.55-4.15-0.34 0.06-2.03 0.57-3.75 1.14zm-45.82 62.52l-2.79 1.74c0.87 23.33 2.06 35.11 3.22 41.5 1.15 6.32 2.98 15.44 4.06 20.25 1.88 8.42 2.06 8.75 4.7 8.73l2.75-0.03c-3.38-15.07-5.13-24.4-6.06-30.45-0.94-6.05-2.01-18.31-2.39-27.24l-0.69-16.25zm841.22 13.99c-0.39 8.12-1.64 20.61-2.77 27.76-1.13 7.15-2.94 16.71-4.03 21.25-1.09 4.53-1.98 8.7-1.98 9.25 0 0.55 1.1 1.11 2.45 1.25 2.33 0.23 2.58-0.29 4.97-10.25 1.39-5.78 3.4-15.9 4.47-22.5 1.08-6.6 2.29-18.08 2.69-25.5 0.69-12.72 0.62-13.55-1.18-14.25-1.04-0.42-2.35-0.98-2.9-1.26-0.63-0.32-1.27 4.97-1.72 14.25zm23.17 22.13c-0.57 4.75-1.66 11.33-2.42 14.63-1.04 4.54-1.09 6.17-0.2 6.7 0.64 0.39 1.47 0.39 1.84 0 0.38-0.39 1.59-4.3 2.69-8.7 1.11-4.4 2.33-10.7 2.7-14 0.64-5.56 0.53-6.05-1.44-6.63-2-0.58-2.18-0.11-3.17 8zm-888.45-7.21c-0.46 0.37-0.77 2.51-0.68 4.75 0.08 2.25 1.06 8.59 2.18 14.09 1.11 5.5 2.02 10.11 2.01 10.25-0.01 0.13 0.89 0.25 1.99 0.25 1.1 0 2-0.34 2.01-0.75 0-0.42-0.89-5.03-1.99-10.25-1.09-5.23-2-11.64-2.01-14.25-0.01-3.29-0.42-4.75-1.35-4.75-0.73 0-1.7 0.3-2.16 0.66zm355.51 145.84c0.02 1.1 1.64 6.5 3.6 12 2.81 7.85 3.75 12.36 4.41 21 0.7 9.25 1.32 11.95 3.86 17 1.7 3.36 7.02 10.38 12.12 16 5 5.5 11.04 12.92 13.41 16.5 2.37 3.57 5.38 8.41 6.7 10.76l2.39 4.27 90-0.19c4.51-8.02 7.47-12.59 9.5-15.34 2.03-2.75 8.05-9.95 13.39-16 5.33-6.05 10.91-13.48 12.39-16.5 1.47-3.03 2.79-6.18 2.92-7 0.14-0.83 0.46-5.55 0.73-10.5 0.36-6.75 1.37-11.64 4.03-19.5 1.96-5.78 3.55-11.07 3.55-11.75-0.01-0.69-2.15 0.47-4.76 2.57-2.61 2.11-6.89 5.26-9.5 7-2.61 1.75-5.09 3.19-5.5 3.2-0.41 0.02-2.1 1.06-3.75 2.32-1.65 1.26-5.22 6.31-7.92 11.23-4.45 8.07-5 9.78-5.76 17.93-0.46 4.95-0.87 9.67-0.92 10.5-0.04 0.82-0.78 3.75-1.63 6.5-0.85 2.75-2.68 7.25-4.05 10-1.38 2.75-4.47 8.03-6.87 11.75-2.39 3.71-4.56 6.63-4.81 6.5-0.26-0.14 1.32-5.43 3.51-11.75 2.4-6.97 4.2-14.26 4.55-18.5 0.39-4.66 0.13-8.35-0.76-11l-1.34-4c-14.25-0.78-18.86-1.45-19.44-2-0.71-0.68 1.61-1.62 7.19-2.9 4.54-1.04 9.37-2.39 10.75-3 1.37-0.61 3.8-2.01 5.38-3.11 1.59-1.1 3.67-3.57 4.63-5.49 0.96-1.93 2.08-5.53 2.47-8 0.4-2.48 0.44-6.75 0.09-9.5-0.36-2.75-0.97-5.58-1.36-6.28-0.54-0.96-1.81-1.05-5.21-0.34-3.24 0.68-6.74 0.52-12.5-0.55-4.83-0.89-10.78-1.28-15-0.96-3.85 0.29-8.24 1-9.75 1.57-1.66 0.64-3.35 2.44-4.25 4.56-0.83 1.92-1.82 7.66-2.2 12.75-0.39 5.08-0.84 8.46-1 7.5-0.17-0.97-0.75-1.75-1.3-1.75-0.55 0-1.29 1.01-1.63 2.25-0.36 1.29-1-2.22-1.5-8.25-0.63-7.61-1.37-11.19-2.71-13-1.01-1.38-3.15-3.17-4.75-3.98-2.07-1.04-5.94-1.43-13.41-1.35-5.78 0.07-12.41 0.62-14.75 1.23-2.86 0.73-5.65 0.78-8.5 0.15-2.34-0.53-4.61-0.64-5.05-0.25-0.44 0.38-0.67 5.27-0.5 10.86 0.28 9.49 0.5 10.46 3.35 14.5 1.68 2.39 4.83 5.31 7 6.51 2.17 1.19 7.67 2.99 12.21 4 4.54 1 8.25 2.16 8.25 2.58-0.01 0.41-1.02 0.96-2.26 1.23-1.24 0.27-5.51 0.49-9.5 0.5-6.44 0.01-7.41 0.27-8.64 2.27-0.76 1.23-1.66 3.93-2 6-0.34 2.06-0.12 6.56 0.47 10 0.6 3.43 2.43 10.52 4.06 15.75 1.63 5.22 2.71 9.61 2.41 9.75-0.3 0.13-2.21-2.34-4.23-5.5-2.02-3.17-5.17-8.9-6.99-12.75-1.81-3.85-3.72-9.25-4.24-12-0.51-2.75-1.23-8.6-1.59-13-0.59-7.03-1.3-9.21-5.84-17.9l-5.16-9.9c-13.95-8.38-19.92-12.7-22.27-15.01-3.5-3.45-4.25-3.84-4.22-2.19zm77.49-351.04c-3.3 1.39-8.43 4.22-11.4 6.28-2.96 2.07-7.65 6.01-10.4 8.76-2.76 2.75-6.38 7.02-8.06 9.5-1.67 2.47-4.82 8.32-6.99 13-2.18 4.67-5.92 14.57-8.32 22-2.4 7.42-4.37 14.17-4.37 15 0 1.06 0.8 0.74 2.77-1.11 1.52-1.44 5.47-4.41 8.77-6.61 3.3-2.2 7.91-4.97 10.25-6.14 2.34-1.18 4.47-2.14 4.75-2.14 0.27 0-4.85 5.28-11.38 11.75-6.54 6.46-15.2 16.25-19.26 21.75-4.05 5.5-9.11 13.6-11.24 18-2.13 4.4-4.54 10.7-5.37 14-1.21 4.86-1.29 7.41-0.4 13.5 0.62 4.3 2.33 10.05 4.01 13.5 1.68 3.45 4.77 7.61 7.28 9.8 2.4 2.1 7.73 5.76 11.86 8.14 4.12 2.38 13.57 7.35 21 11.04 7.42 3.69 15.41 8.02 17.75 9.61 2.34 1.6 4.59 2.91 5 2.92 0.41 0.01-1.28-2.05-3.75-4.58-2.48-2.52-8.1-6.97-12.5-9.88-4.4-2.92-12.05-7.39-17-9.94-4.95-2.55-11.14-6.21-13.75-8.13-2.61-1.92-6.12-5.62-7.79-8.23-1.67-2.62-3.75-7.23-4.62-10.25-1.03-3.63-1.35-7.21-0.94-10.5 0.35-2.75 2.13-8.15 3.97-12 1.84-3.85 6.17-10.83 9.63-15.5 3.45-4.68 9.93-12.08 14.39-16.45 4.46-4.36 10.81-9.92 14.11-12.35 3.3-2.43 8.02-5.45 10.5-6.71 2.47-1.26 7.2-3.01 10.5-3.88 3.3-0.87 9.37-1.59 13.5-1.61 4.77-0.02 9.5 0.64 13 1.83 3.02 1.03 7.07 2.68 9 3.67 1.92 0.99 7.1 4.53 11.5 7.88 4.4 3.34 11.19 9.24 15.1 13.1 3.9 3.86 9.9 10.84 13.33 15.52 3.44 4.67 7.67 11.41 9.41 14.98 2.39 4.91 3.25 8.18 3.54 13.5 0.32 6.07-0.01 7.88-2.5 13.4-1.77 3.92-4.62 8.01-7.38 10.58-2.48 2.31-6.98 5.77-10 7.68-3.03 1.91-9.95 5.93-15.39 8.92-5.74 3.15-12.58 7.95-16.29 11.44-3.52 3.3-6.27 6.11-6.11 6.25 0.16 0.13 4.11-1.96 8.79-4.65 4.67-2.7 9.96-5.85 11.75-7 1.79-1.16 3.7-2.1 4.25-2.1 0.55 0 5.77-2.59 11.6-5.75 5.83-3.17 13.09-8 16.14-10.75 3.04-2.75 6.54-7.03 7.76-9.5 1.22-2.48 2.8-6.98 3.5-10 0.7-3.05 1.07-8.63 0.82-12.5-0.33-5.13-1.32-8.88-3.71-14-1.79-3.85-4.88-9.7-6.87-13-1.98-3.3-7.73-11.18-12.77-17.5-5.04-6.33-12.04-14.09-15.57-17.25-3.52-3.16-6.06-5.98-5.65-6.25 0.41-0.28 3.11 0.8 6 2.4 2.89 1.6 7.84 4.97 11 7.5 3.16 2.53 5.98 4.48 6.27 4.35 0.29-0.14-1.67-7-4.35-15.25-2.69-8.25-6.43-18.38-8.32-22.5-1.89-4.13-5.44-10.38-7.9-13.9-2.45-3.51-7.83-9.28-11.95-12.81-4.13-3.53-10.42-7.85-13.98-9.61-5.08-2.49-8-3.24-13.5-3.46-5.68-0.23-8.17 0.2-13.02 2.24zm-194.5 60.63c-4.68 1.05-13.45 3.32-19.5 5.04-6.05 1.72-16.18 5.33-22.5 8.03-6.33 2.69-12.96 6.01-14.75 7.37-1.79 1.35-4.32 4.6-5.61 7.22-1.3 2.61-3.18 7.22-4.19 10.25-1 3.02-5.29 12.47-9.54 21-4.25 8.52-10.83 20.67-14.63 27-3.79 6.32-8.04 13.52-9.45 16-1.41 2.47-3.52 7.08-4.69 10.25-1.18 3.16-2.78 9.46-3.57 14-0.88 5.11-1.16 10.34-0.74 13.75l0.69 5.5c3.48-13.95 5.95-20.93 7.72-24.5l3.23-6.5c0.94 26.59 1.44 30.15 3.53 35.94 1.67 4.65 4.01 8.61 7.08 12 2.53 2.78 8.83 7.83 14 11.21 5.18 3.38 11.89 7.17 14.92 8.42 4.51 1.86 7.38 2.27 16 2.28 8.45 0 11.67-0.43 16.5-2.24 3.3-1.24 6.9-2.85 8-3.59 1.87-1.25 1.67-1.45-3-3.04-2.75-0.94-5.68-1.99-6.5-2.34-0.83-0.36 2.89-0.76 8.25-0.89 5.66-0.15 9.75-0.67 9.75-1.25 0-0.55-3.04-2.79-6.75-4.97-3.71-2.18-10.24-6.91-14.5-10.5l-7.75-6.53c-5.81 4.41-9.53 6.85-12 8.26-2.48 1.42-7.3 3.18-10.72 3.91-3.42 0.73-6.44 1.1-6.72 0.83-0.28-0.28 1.73-2.19 4.47-4.25 2.73-2.07 6.81-6.12 9.06-9 2.25-2.89 5.36-7.95 6.9-11.25 1.54-3.3 3.29-8.37 3.9-11.25 0.61-2.89 1.11-7.28 1.11-9.75 0-2.48-1.15-10.02-2.55-16.75-2.18-10.47-2.46-13.85-1.97-23.25 0.57-10.71 0.54-10.94-1.2-8.66-0.98 1.28-3.96 6.23-6.61 11l-4.83 8.66c0.9-13.57 2.29-21.44 3.67-26.25 1.39-4.82 3.14-10.55 3.89-12.75 1.17-3.41 1.16-4.6-0.03-8-0.77-2.2-1.17-4.79-0.89-5.75 0.43-1.47 1.34-1.01 5.52 2.75 3.91 3.52 5.76 4.5 8.5 4.5 1.92 0 4.51-0.52 5.75-1.14 1.24-0.63 4.61-3.1 7.5-5.5l5.25-4.36c3.87 8.52 5 11.22 5 11.5 0 0.27-1.35 0.5-3 0.5q-3 0-3 1.5c0 0.82 1.01 2.17 2.25 3 1.24 0.83 3.26 1.51 4.5 1.5 1.24 0 3.82-0.68 5.75-1.5 2.66-1.15 3.5-2.1 3.5-4 0-1.38-0.71-5.54-1.56-9.25-0.86-3.72-1.43-8.33-1.25-10.25 0.27-3.14 0.78-2.31 4.81 7.86 2.47 6.26 4.84 11.54 5.25 11.75 0.41 0.21 1.87-0.06 3.25-0.61 1.64-0.66 2.49-1.78 2.48-3.25 0-1.24-0.9-6.53-1.98-11.75-1.09-5.23-1.98-10.29-1.99-11.25-0.01-0.97 0.33-1.59 0.74-1.38 0.41 0.2 3 5.39 5.75 11.53 4.38 9.78 5.25 11.08 7 10.52 1.1-0.36 2.45-1.05 3-1.54 0.65-0.58-0.12-4.94-2.24-12.64-1.78-6.46-3.24-12.31-3.25-12.99-0.01-0.69 0.44-1.03 0.99-0.75 0.55 0.27 3.02 4.55 5.5 9.5 2.47 4.95 4.95 9.22 5.5 9.5 0.55 0.27 1.67 0.27 2.5 0 0.82-0.28 1.5-1.52 1.49-2.75 0-1.24-2.61-7.65-5.8-14.25-3.18-6.6-6.56-12.34-7.49-12.75-0.94-0.42-3.39-0.72-5.45-0.67-2.06 0.05-7.58 0.95-12.25 2.01zm397-1.18c-0.83 0.47-4.2 6.56-7.5 13.53-4.81 10.17-5.78 13.02-4.9 14.37 0.61 0.93 1.74 1.82 2.5 1.97 0.87 0.18 2.83-2.64 5.22-7.5 2.1-4.28 4.67-8.91 5.72-10.28 1.75-2.29 1.91-2.33 1.93-0.5 0.01 1.1-1.33 6.95-2.97 13-1.65 6.05-3.01 11.22-3.03 11.5-0.01 0.27 1.11 1.06 2.5 1.75 1.39 0.68 2.87 1.08 3.28 0.88 0.41-0.2 2.23-3.91 4.05-8.25 1.82-4.34 4.16-9.46 5.21-11.38 1.9-3.5 1.9-3.5 1.95-0.75 0.02 1.51-0.88 7.13-2.01 12.5-1.13 5.36-1.82 10.42-1.55 11.25 0.28 0.82 1.54 1.82 2.8 2.21 1.27 0.39 2.6 0.39 2.97 0 0.37-0.39 2.33-4.76 4.36-9.71 2.03-4.95 4.09-9.79 4.58-10.75 0.49-0.97 1.13-1.64 1.42-1.5 0.29 0.13-0.42 5.65-1.57 12.25-2.03 11.58-2.04 12.04-0.28 13.26 1 0.7 3.17 1.54 4.82 1.87 1.7 0.34 4.29 0 5.98-0.77 1.64-0.75 3.11-2.15 3.25-3.11 0.2-1.34-0.44-1.75-2.73-1.75-1.65 0-3.01-0.12-3.03-0.25-0.01-0.14 1.23-3.07 2.75-6.52l2.78-6.26c6.97 7.12 10.24 9.83 11.75 10.61 1.51 0.78 4.32 1.42 6.25 1.42 2.74 0 4.58-0.98 8.5-4.5 4.18-3.77 5.08-4.22 5.52-2.75 0.28 0.96-0.14 3.32-0.94 5.25-1.37 3.29-1.26 4.12 1.86 14 1.82 5.77 3.86 13.87 4.52 18 0.67 4.12 1.06 9.25 0.87 11.4l-0.33 3.91c-6.63-13.03-9.46-17.94-10.57-19.31l-2.03-2.5c1.19 19.54 0.92 22.73-1.31 33.5-1.43 6.87-2.59 15.08-2.59 18.25 0 3.32 1.03 9.01 2.45 13.5 1.35 4.26 4.18 10.45 6.3 13.75 2.11 3.3 5.84 7.66 8.29 9.69 2.45 2.03 5.58 4.59 6.96 5.68l2.5 1.98c-6.98-0.78-11.48-1.87-14.5-2.94-3.03-1.06-7.64-3.73-10.25-5.92-2.61-2.2-4.98-3.99-5.25-3.99-0.28 0-3.54 2.41-7.25 5.37-3.71 2.95-9.68 7.36-13.25 9.79-3.58 2.43-7.29 4.74-8.25 5.13-0.96 0.39-1.53 1.16-1.25 1.71 0.27 0.55 4.44 1.01 9.25 1.03 7.97 0.03 8.57 0.16 6.75 1.51-1.1 0.82-2.9 1.49-4 1.49-1.1 0-2.68 0.45-3.5 1-1.3 0.87-1.23 1.21 0.5 2.52 1.1 0.83 4.47 2.48 7.5 3.67 4.37 1.73 7.56 2.17 15.5 2.15 7.75-0.02 11.35-0.52 16-2.22 3.3-1.21 9.51-4.32 13.8-6.92 4.29-2.61 10.14-6.8 13-9.33 2.86-2.53 6.4-6.81 7.86-9.5 1.47-2.7 3.43-7.83 4.36-11.4 1.29-4.94 1.61-9.57 1.34-19.25-0.2-7.01-0.25-12.75-0.11-12.75 0.14 0 1.6 2.7 3.25 6 1.65 3.3 4.13 10.16 5.52 15.25 1.39 5.08 2.75 9.47 3.03 9.75 0.28 0.27 0.5-3.33 0.49-8-0.01-5.03-0.8-11.57-1.93-16-1.05-4.13-3-9.98-4.34-13-1.34-3.03-5.96-11.35-10.27-18.5-4.31-7.15-10.44-17.95-13.62-24-3.18-6.05-8.17-16.86-11.08-24.02-2.92-7.16-6.09-14.24-7.05-15.75-0.96-1.5-3.44-3.85-5.5-5.22-2.06-1.37-7.8-4.25-12.75-6.4-4.95-2.15-15.3-5.7-23-7.9-7.7-2.2-17.38-4.73-21.5-5.62-4.13-0.89-9.08-1.6-11-1.58-1.93 0.03-4.18 0.43-5 0.9zm-330.5 96.68c-3.85 0.78-9.93 2.8-13.5 4.49-3.58 1.7-8.19 4.4-10.25 6-2.06 1.6-3.53 3.14-3.25 3.42 0.27 0.27 2.97-0.4 6-1.5 3.02-1.1 6.25-2 7.17-2 1.09 0-0.32 1.99-4.07 5.75l-5.74 5.75c8.73 7.94 14.93 11.77 22.64 15.52 6.6 3.21 15.72 6.88 20.27 8.16 4.55 1.27 8.26 2.54 8.25 2.82-0.01 0.27-5.76 0.64-12.77 0.82-7.01 0.18-12.98 0.5-13.25 0.71-0.28 0.22 0.81 2.55 2.41 5.18 1.6 2.63 8.8 10.64 16 17.8 8.07 8.03 17.41 16.08 24.36 21 6.19 4.39 10.92 8.11 10.5 8.27-0.43 0.15-2.68-0.19-5.02-0.75-3.31-0.81-4.18-0.76-3.9 0.22 0.19 0.68 2.33 2.62 4.75 4.3 2.42 1.68 8.9 4.52 14.4 6.32 6.6 2.16 12.88 3.46 18.5 3.83 5.68 0.38 11.65 0.03 18-1.05 5.22-0.89 11.75-2.28 14.5-3.1 2.75-0.82 7.14-2.85 9.75-4.52 3.5-2.24 5.4-4.41 7.24-8.28 1.37-2.89 2.77-7.5 3.12-10.25l0.63-5c-8.52-1.24-10.33-1.91-9.74-2.41 0.55-0.47 2.69-1.36 4.75-1.97 2.06-0.62 3.77-1.69 3.79-2.37 0.03-0.69-1.66-2.84-3.75-4.78-2.08-1.94-6.38-4.98-9.54-6.75-3.16-1.77-5.64-3.43-5.5-3.69 0.14-0.25 2.05 0.02 4.25 0.61 2.2 0.6 5.69 1.93 7.75 2.97 2.06 1.04 3.97 1.89 4.25 1.89 0.27 0 0.5-1.35 0.5-3 0-1.65-1.13-5.25-2.5-8-1.85-3.69-4.14-6.15-8.75-9.39-3.44-2.41-9.63-6.07-13.75-8.14-4.13-2.06-13.35-5.67-20.5-8.02-7.15-2.35-16.6-5.02-21-5.92-4.4-0.9-14.08-2.1-21.5-2.66-7.43-0.56-14.63-1.39-16-1.84-2.3-0.75-1.94-1.07 4.5-4.02 3.85-1.77 9.14-3.5 11.76-3.86 2.62-0.36 4.76-0.99 4.75-1.4-0.01-0.42-4.17-2.75-9.26-5.19-5.24-2.52-12.62-5.12-17-6-4.26-0.86-9.89-1.52-12.5-1.47-2.61 0.05-7.9 0.73-11.75 1.5zm258 0.01c-3.85 0.78-10.15 2.85-14 4.6-3.85 1.75-8.35 4.09-10 5.19l-3 2c10.07 2.03 15.7 3.91 19 5.48 5.34 2.56 5.72 2.93 3.5 3.41-1.38 0.29-9.25 1.04-17.5 1.65-8.25 0.61-17.93 1.8-21.5 2.64-3.58 0.83-11 2.91-16.5 4.61-5.5 1.7-14.28 4.95-19.5 7.24-5.23 2.28-11.98 6-15 8.25-3.03 2.25-6.72 5.38-8.2 6.96-1.48 1.58-3.4 4.55-4.25 6.62-0.85 2.06-1.55 4.87-1.55 6.25v2.5c11.24-3.99 15.14-5 15.93-4.83 0.78 0.18-1.13 1.56-4.25 3.08-3.13 1.51-7.5 4.43-9.73 6.5-2.22 2.06-4.03 4.2-4.02 4.75 0.02 0.55 2.63 1.85 5.8 2.88 4.72 1.55 5.41 2.04 3.77 2.69-1.1 0.44-3.8 1.08-6 1.44l-4 0.64c1.16 8.02 2.51 12.37 3.74 14.84 1.24 2.48 3.83 5.54 5.76 6.8 1.92 1.26 5.97 3.22 9 4.35 3.02 1.13 10.22 2.92 16 3.96 5.77 1.05 13.42 1.91 17 1.91 3.57 0.01 10.1-0.9 14.5-2.01 4.4-1.12 11.6-3.78 16-5.93 4.4-2.14 8.67-4.68 9.5-5.64 1.41-1.65 1.17-1.71-4-1.03-3.39 0.44-5.12 0.36-4.5-0.21 0.55-0.51 4.37-3.18 8.5-5.93 4.12-2.76 11.32-8.36 16-12.46 4.67-4.1 10.8-10.11 13.62-13.38 2.81-3.26 6.98-8.62 9.27-11.92 2.29-3.3 4.14-6.57 4.13-7.25-0.02-0.92-2.99-1.27-11.27-1.32-6.19-0.04-12.15-0.41-13.25-0.82-1.48-0.54 0.37-1.33 7-2.98 4.95-1.23 13.27-4.27 18.5-6.75 5.22-2.48 12.54-6.84 16.26-9.69 3.72-2.86 6.98-5.76 7.25-6.44 0.27-0.69-1.42-2.95-3.76-5.01-2.34-2.07-5.6-4.76-7.25-5.97-1.65-1.22-2.44-2.23-1.75-2.24 0.69-0.02 3.84 0.81 7 1.84 3.16 1.03 6.65 2.23 7.75 2.66 1.54 0.6 1.31 0.04-1-2.41-1.65-1.75-6.15-4.71-10-6.58-3.85-1.88-10.49-4.12-14.75-4.98-4.26-0.86-9.89-1.52-12.5-1.47-2.61 0.05-7.9 0.73-11.75 1.51zm-325.5 18.74c-2.48 0.66-6.3 2.31-8.5 3.65-2.2 1.35-5.98 4.27-8.39 6.48-2.42 2.21-5.51 5.83-6.88 8.03-2 3.21-2.37 4.78-1.87 8 0.34 2.2 1.75 5.46 3.13 7.25 1.38 1.78 4.87 4.39 7.76 5.79 3.73 1.8 7.56 2.69 13.25 3.08 5.93 0.39 10.46 0.01 17.5-1.5 5.22-1.12 10.62-2.31 12-2.66l2.5-0.63c-3.88 3.15-8.75 5.77-13.32 7.86-6.79 3.11-7.99 3.97-6.5 4.71 1 0.5 6.31 0.61 11.82 0.24 5.5-0.36 12.92-1.5 16.5-2.53 3.57-1.03 9.09-3.05 12.25-4.49 3.16-1.44 5.75-3.07 5.75-3.62 0-0.57-2.73-0.99-6.25-0.97l-6.25 0.03c3.1-3.31 5.91-5.35 8.25-6.67 2.34-1.32 4.25-2.84 4.25-3.39 0-0.55-2.36-3.53-5.25-6.62-2.89-3.09-7.84-7.59-11-10-3.16-2.41-6.99-4.94-8.5-5.61-1.51-0.68-2.98-1.48-3.25-1.78-0.28-0.3-2.3-1.32-4.5-2.26-2.2-0.94-6.03-2.15-8.5-2.7-2.48-0.54-6.08-0.97-8-0.94-1.93 0.02-5.53 0.58-8 1.25zm399.25 0.16c-2.89 0.82-7.39 2.57-10 3.89-2.61 1.32-7.68 4.54-11.25 7.17-3.58 2.64-8.86 7.18-11.75 10.11-2.89 2.93-5.25 5.78-5.25 6.33 0 0.55 2.81 3.13 6.25 5.75l6.25 4.75-13 1c6.97 4.21 11.7 6.4 15 7.58 3.3 1.18 10.72 2.64 16.5 3.25 6.85 0.71 11.32 0.76 12.87 0.13 2.16-0.88 1.49-1.4-7.5-5.85-5.43-2.68-9.42-5.07-8.87-5.3 0.55-0.24 5.39 0.5 10.75 1.63 5.36 1.13 12.34 2.01 15.5 1.96 3.16-0.06 8-0.77 10.75-1.6 2.75-0.82 6.8-2.71 9-4.2 2.2-1.49 5.02-4.26 6.28-6.16 1.25-1.89 2.27-4.79 2.27-6.44 0-1.73-1.23-4.7-2.9-7-1.6-2.2-4.65-5.67-6.78-7.7-2.13-2.03-7.02-5.14-10.87-6.91-4.46-2.04-9-3.34-12.5-3.55-3.03-0.18-7.86 0.34-10.75 1.16zm-503.49 48.76c-0.4 1.23-0.73 4.94-0.73 8.24 0 3.3 0.33 6.53 0.73 7.18 0.41 0.65 2.43 1.89 4.49 2.75 2.06 0.86 6.45 2.24 9.75 3.07 3.3 0.82 5.99 1.16 5.98 0.75 0-0.42-2.29-3.23-5.08-6.25-2.79-3.03-7.1-8.2-9.58-11.5-2.48-3.3-4.58-6.11-4.67-6.24-0.08-0.13-0.48 0.77-0.89 2zm620.25 3.51c-1.92 3.15-6.19 8.55-9.5 12-3.31 3.45-5.79 6.49-5.51 6.75 0.27 0.26 3.65-0.49 7.5-1.66 3.85-1.18 8.35-2.9 10-3.84 2.04-1.16 3.23-2.8 3.71-5.12 0.39-1.87 0.46-4.98 0.16-6.9-0.3-1.93-0.73-4.29-0.96-5.25-0.23-0.97-0.75-1.74-1.16-1.73-0.41 0.02-2.32 2.61-4.24 5.75zm-443.01 6.73c0 0.82 1.33 4.98 2.97 9.25 1.63 4.26 4.59 10.45 6.56 13.75 1.98 3.3 5.25 7.72 7.28 9.83 2.03 2.11 5.49 4.9 7.69 6.21 2.2 1.31 7.37 3.55 11.5 4.97 4.12 1.43 10.65 2.83 14.5 3.11l7 0.52c-9.3-5.15-15.83-9.17-20.5-12.27-4.68-3.09-12.28-9.17-16.91-13.5-4.67-4.38-10.66-11.31-13.5-15.62-2.8-4.27-5.43-7.75-5.84-7.75-0.41 0-0.75 0.67-0.75 1.5zm264.43 9.19c-3.81 4.79-9.86 11.21-13.43 14.27-3.58 3.06-9.43 7.66-13 10.22-3.58 2.56-10.1 6.75-14.5 9.31l-8 4.66c10.9-0.7 17.76-2.17 22.5-3.77 5.21-1.75 10.34-4.31 13.25-6.62 2.61-2.07 6.99-6.8 9.74-10.51 2.74-3.72 6.28-9.9 7.87-13.75 1.59-3.85 3.1-8.24 3.35-9.75 0.26-1.52 0.17-2.75-0.19-2.75-0.36 0-3.78 3.91-7.59 8.69zm-294.6-7.13c-0.27 0.31-9.46 1.02-20.42 1.58l-19.91 1c-12.4 9.01-18.82 13.13-22.27 14.99-3.45 1.85-6.11 3.82-5.92 4.37 0.2 0.55 2.35 1.59 4.78 2.31 2.42 0.72 8.68 1.57 13.91 1.9 8.1 0.5 10.6 0.26 17-1.67 4.12-1.24 10.09-3.56 13.25-5.15 3.27-1.65 9.21-6.23 13.79-10.64 4.42-4.27 8.02-8.09 8-8.5-0.02-0.42-0.42-0.75-0.88-0.75-0.45 0-1.05 0.25-1.33 0.56zm330.32 0.8c-0.08 0.35 1.76 2.73 4.1 5.28 2.34 2.56 6.72 6.47 9.75 8.69 3.02 2.23 7.75 5.08 10.5 6.34 2.75 1.26 8.15 2.96 12 3.79 3.85 0.83 9.25 1.49 12 1.48 2.75-0.01 8.6-0.67 13-1.47 4.4-0.8 8.45-1.88 9-2.4 0.64-0.6-1.14-1.99-5-3.9-3.3-1.62-9.88-5.82-14.62-9.31l-8.61-6.36c-23.07-1.2-32.52-1.82-35.87-2.16-3.35-0.34-6.16-0.33-6.25 0.02zm-167.35 31c-1.91 2.27-6.13 5.56-9.39 7.29-3.25 1.74-8.84 4.12-12.41 5.28-3.58 1.16-13.48 3.87-22 6.01-8.53 2.14-19.78 4.38-25 4.98-5.23 0.61-9.65 1.21-9.84 1.34-0.18 0.13-0.08 1.36 0.22 2.74 0.31 1.37 1.6 3.62 2.89 5 1.28 1.37 2.59 3.17 2.9 4 0.46 1.23-0.53 1.5-5.56 1.5h-6.11c0.47 5.42 1.92 9.47 3.52 12.5 1.6 3.02 4.73 6.96 6.95 8.75 2.21 1.78 5.15 3.7 6.53 4.25 1.37 0.55 3.85 1 5.5 1 1.65 0 4.35-0.68 6-1.5l3-1.5c0.02 6.65 1 10.4 2.26 12.87 1.3 2.55 3.7 5.23 5.74 6.42 2.75 1.59 4.47 1.89 8 1.39 2.47-0.36 8.1-1.31 12.5-2.13 4.4-0.82 10.81-1.5 14.25-1.52 5.8-0.03 6.35-0.23 7.63-2.78 0.76-1.52 1.74-5.23 2.18-8.25 0.44-3.03 0.67-7.98 0.52-11-0.15-3.03-0.68-6.52-1.18-7.75-0.49-1.24-1.91-3.16-3.15-4.27-1.77-1.59-3.64-2.02-8.75-2.03-3.58 0-9.43 0.88-13 1.95-3.58 1.08-9.65 4.03-13.5 6.56-5.6 3.68-7.85 4.59-11.25 4.57-3.5-0.03-4.87-0.65-7.75-3.53-1.93-1.93-3.5-4.18-3.5-5 0-1.34 0.31-1.34 2.75-0.01 1.51 0.82 4.21 1.5 6 1.5 1.88 0 7.55-2.1 13.5-5.02 6.62-3.24 14.32-6.02 21.75-7.85 6.32-1.56 12.51-3.13 13.75-3.48 1.5-0.43 3.23-2.71 5.21-6.89l2.96-6.25c1.65 4.65 2.68 7.29 3.35 8.88 0.68 1.58 2.02 3.27 2.98 3.75 0.96 0.48 5.91 1.74 11 2.81 5.09 1.06 11.05 2.57 13.25 3.35 2.2 0.78 6.92 2.87 10.5 4.64 3.57 1.77 6.95 3.62 7.5 4.1 0.55 0.49 3.02 1.19 5.5 1.57 3.29 0.5 5.37 0.24 7.75-0.96 2.82-1.43 3.25-1.45 3.25-0.14 0 0.82-1.53 3.07-3.4 5-2.74 2.81-4.15 3.49-7.25 3.48-2.77-0.01-5.95-1.28-11.35-4.53-4.13-2.49-10.43-5.41-14-6.51-3.58-1.09-9.2-1.99-12.5-2-4.48-0.01-6.7 0.5-8.75 2.02-1.56 1.15-3.18 3.66-3.75 5.79-0.54 2.06-1 6-1.01 8.75-0.01 2.75 0.46 7.47 1.04 10.5 0.57 3.02 1.82 6.3 2.76 7.28 1.27 1.32 3.26 1.78 7.71 1.78 3.3 0 9.6 0.67 14 1.48 4.4 0.81 9.8 1.77 12 2.15 3.27 0.55 4.67 0.23 7.71-1.76 2.04-1.34 4.61-4.01 5.72-5.93 1.21-2.12 2.01-5.38 2.03-8.25l0.04-4.75c4.65 2.32 7.24 3.01 8.75 3.02 1.51 0.01 4.32-0.61 6.25-1.39 1.92-0.77 5.04-2.7 6.92-4.27 1.88-1.58 4.69-5.56 6.25-8.86 1.55-3.3 2.83-7.58 2.84-9.5l0.01-3.5c-8.54 1.16-11.02 1.27-11.02 1 0-0.28 1.57-2.87 3.5-5.75 1.93-2.89 3.5-5.82 3.5-6.5 0-0.76-1.88-1.45-4.75-1.74-2.61-0.27-9.25-1.18-14.75-2.04-5.5-0.85-16.3-3.36-24-5.57-7.7-2.21-16.48-4.93-19.5-6.03-3.03-1.1-7.3-3.04-9.5-4.3-2.2-1.26-5.63-4.11-7.61-6.32l-3.62-4.03zm-134.8 5.89c-0.01 2.33 0.67 6.83 1.5 10 0.82 3.16 2.69 8.11 4.14 11 1.45 2.88 4.55 7.72 6.89 10.75 2.34 3.02 5.44 6.62 6.89 8l2.63 2.5c-0.04-4.27-0.54-7.87-1.14-10.75-0.6-2.89-2.81-8.85-4.92-13.25-2.11-4.4-6.11-11.27-8.91-15.25-2.79-3.99-5.53-7.25-6.08-7.25-0.55 0-1 1.91-1 4.25zm274-2.25c-1.1 1.1-3.83 4.81-6.06 8.25-2.24 3.43-5.62 9.4-7.52 13.25-1.9 3.85-4.08 10.37-4.86 14.5-0.78 4.12-1.22 7.61-0.99 7.75 0.24 0.13 1.77-0.77 3.41-2 1.64-1.24 5.01-4.95 7.5-8.25 2.49-3.3 5.92-9.6 7.62-14 1.87-4.86 3.28-10.66 3.59-14.75 0.28-3.72 0.23-6.75-0.09-6.75-0.33 0-1.5 0.9-2.6 2zm-252.02 10.25c0 0.68 0.51 2.82 1.14 4.75 0.64 1.92 2.33 5.05 3.77 6.94 1.54 2.04 4.87 4.46 8.11 5.9 3.03 1.35 8.2 2.67 11.5 2.93q6.01 0.48 5-0.53c-0.55-0.55-7.19-5.55-14.75-11.12-7.56-5.57-13.97-10.12-14.25-10.12-0.27 0-0.51 0.56-0.52 1.25zm221.41 6c-5.45 3.98-12.15 8.99-14.9 11.12l-4.99 3.88c11.63-1.09 16.8-2.18 19-3.13 2.2-0.95 5.21-3.28 6.69-5.18 1.48-1.89 3.39-5.13 4.25-7.19 0.86-2.07 1.56-4.43 1.56-5.25 0-0.83-0.38-1.5-0.85-1.5-0.47 0-5.31 3.26-10.76 7.25zm-215.28 19.18c-0.06 0.86 0.79 3.37 1.89 5.57 1.1 2.2 3.24 4.91 4.75 6.03 1.71 1.26 4.27 2.03 6.75 2.01l4-0.02c-6.97-7.03-10.86-10.44-13.14-12.11-3.19-2.35-4.16-2.68-4.25-1.48zm214.89 2.85c-3.02 2.5-6.74 5.93-8.25 7.63l-2.75 3.09c5.81 0.01 8.51-0.67 9.75-1.5 1.24-0.83 3.38-3.53 4.75-6 1.38-2.48 2.39-5.24 2.25-6.14-0.19-1.24-1.56-0.55-5.75 2.92zm-17.8 19.02c-2.37 2.31-7.21 6.07-10.76 8.35-3.55 2.28-7.61 5.66-9.03 7.5-2.18 2.83-2.5 4.04-2.03 7.85 0.3 2.47 0.68 4.63 0.84 4.79 0.15 0.16 2.08-0.43 4.28-1.32 2.2-0.88 5.99-3.26 8.43-5.29 2.43-2.03 5.46-5.26 6.72-7.18 1.26-1.93 3.44-6.43 4.83-10 1.4-3.58 2.54-7.07 2.53-7.75 0-0.69-0.35-1.23-0.76-1.2-0.41 0.04-2.68 1.95-5.05 4.25zm-177.93-0.55c0.32 1.51 1.48 5.22 2.59 8.25 1.11 3.02 4 7.75 6.42 10.5 2.41 2.75 6.93 6.35 10.02 8 3.71 1.97 5.95 2.66 6.58 2 0.52-0.55 1.04-2.13 1.15-3.5 0.1-1.38 0.14-3.52 0.08-4.75-0.06-1.24-1.16-3.49-2.45-5-1.29-1.52-5.46-4.64-9.25-6.95-3.8-2.31-8.6-5.79-10.66-7.75-2.06-1.95-4.04-3.55-4.4-3.55-0.36 0-0.4 1.23-0.08 2.75z"/>
		<path id="Path 1" fill-rule="evenodd" class="s1" d="m499 187.22c-3.57 1.26-9.43 3.93-13 5.93-3.57 2-8.86 5.48-11.75 7.74-2.89 2.26-8.18 7.82-11.76 12.36-3.58 4.54-8.07 11.4-9.96 15.25-1.9 3.85-5.29 11.95-7.55 18-2.25 6.05-5.68 16.63-7.62 23.5-2.36 8.36-5.95 17.46-10.84 27.5-4.02 8.25-8.09 17.93-9.04 21.5-1.4 5.24-1.62 8.78-1.11 18.25l0.63 11.75c-6.59-0.57-11.88-1.99-16-3.53-6.47-2.41-9.01-2.8-18.5-2.85-7.47-0.05-13.08 0.49-17.5 1.67-3.57 0.96-9.2 3.06-12.5 4.67-3.3 1.61-8.48 4.71-11.5 6.9-3.02 2.18-7.02 5.25-8.87 6.8-3.25 2.74-3.54 2.79-8 1.6-2.55-0.68-6.43-1.51-8.63-1.85-2.2-0.34-7.26-0.12-11.25 0.49-3.99 0.6-9.61 2.28-12.5 3.73-2.89 1.45-7.05 3.95-9.25 5.57-2.2 1.61-4.89 2.79-5.98 2.62-1.57-0.25-2.15-1.43-2.75-5.57-0.43-2.89-1.71-8.06-2.86-11.5-1.15-3.44-2.51-8.5-3.03-11.25-0.68-3.62-0.52-7.89 0.6-15.5 0.84-5.77 1.98-11.96 2.53-13.75 0.69-2.28 1.74-3.4 3.49-3.75 1.66-0.33 3.6 0.3 5.75 1.88 1.79 1.32 4.15 2.67 5.25 3.02 1.1 0.35 5.82-0.32 10.5-1.48 4.68-1.17 9.74-2.3 11.25-2.52 2.11-0.31 3.56 0.41 6.25 3.1 2.88 2.88 3.99 3.39 6.25 2.86 1.51-0.36 5.23-1.88 8.25-3.38 3.02-1.51 6.96-4.14 8.75-5.86 2.6-2.49 3.14-3.67 2.69-5.87-0.31-1.51-0.76-3.99-1-5.5-0.31-1.93 0.34-3.72 2.18-6 2.04-2.54 2.51-4.01 2.12-6.75-0.27-1.93-3.48-9.57-7.15-17-4.13-8.39-7.97-14.73-10.12-16.75-2.85-2.67-4.27-3.25-7.97-3.25-2.48 0-8.44 0.87-13.25 1.94-4.81 1.07-16.29 4.22-25.5 7-9.73 2.94-20.84 7.1-26.5 9.93-5.36 2.68-11.27 6.17-13.14 7.75-1.86 1.58-4.18 4.45-5.15 6.38-0.98 1.93-3.18 7.32-4.9 12-1.73 4.68-5.59 13.11-8.6 18.75-3.2 6.02-6.08 10.25-6.96 10.25-0.82 0-3.03-2.59-4.9-5.75-1.87-3.16-5.36-7.58-7.75-9.82-2.39-2.24-6.15-4.66-8.35-5.39-2.58-0.85-6.04-1.09-9.75-0.68-3.16 0.35-6.99 1.25-8.5 2-1.51 0.75-4.45 3.34-6.53 5.75-2.08 2.42-4.87 7.32-6.2 10.89-1.33 3.57-3.09 9.2-3.91 12.5-0.82 3.3-1.94 9.6-2.49 14-0.56 4.4-1.29 12.05-1.64 17-0.35 4.95-0.12 15.52 0.51 23.5 0.63 7.98 2.02 19.68 3.1 26 1.08 6.32 3.04 15.77 4.36 21 1.31 5.23 3.36 12.43 4.55 16 1.19 3.57 5.02 12.35 8.52 19.5 3.62 7.39 8.22 15.11 10.67 17.89 2.37 2.69 6.11 5.81 8.31 6.93 2.55 1.3 5.81 2 9 1.95 2.75-0.04 7.47-0.81 10.5-1.7 3.03-0.89 7.19-2.73 9.25-4.1 2.06-1.36 4.76-4.38 5.99-6.72 1.23-2.34 3.37-7.13 4.75-10.64 1.38-3.51 3.26-6.89 4.19-7.5 1.32-0.88 4.49-0.08 15 3.75 7.32 2.68 18.27 6.14 24.32 7.7 6.05 1.56 14.82 3.34 19.5 3.96 6.35 0.84 11.16 0.83 19-0.03 5.78-0.64 13.2-2.18 16.5-3.44 3.3-1.25 8.25-3.69 11-5.43 2.75-1.73 5.56-3.14 6.25-3.13 0.69 0 2.08 2.37 3.1 5.26 1.02 2.89 3.15 8.85 4.73 13.25 1.58 4.4 5.4 11.82 8.48 16.5 3.09 4.68 7.82 11.24 10.52 14.6 2.71 3.35 10.04 11.45 16.29 18 6.25 6.54 12.38 13.92 13.61 16.4 1.24 2.48 2.82 6.98 3.51 10 0.9 3.92 1.05 9.1 0.52 18-0.7 11.85-0.59 13.02 2.07 22.5l2.81 10c-4.21 16.27-5.42 22.01-5.41 23.25 0.02 1.76 0.84 2.45 3.77 3.18 2.06 0.52 5.55 1.4 7.75 1.96 2.2 0.56 11.99 2.39 21.75 4.07 9.76 1.67 19.32 3.04 21.25 3.04h3.5c-4.1-7.36-7.23-12.42-9.6-16-2.37-3.58-8.39-11-13.39-16.5-5.11-5.61-10.42-12.63-12.12-16-2.55-5.05-3.16-7.74-3.87-17-0.66-8.64-1.6-13.15-4.41-21-1.96-5.5-3.58-10.9-3.6-12-0.03-1.64 0.72-1.25 4.23 2.2 2.34 2.31 8.31 6.63 13.26 9.6l9 5.4c9.7 18.59 10.41 20.78 11 27.8 0.36 4.4 1.08 10.25 1.6 13 0.51 2.75 2.42 8.15 4.24 12 1.82 3.85 4.96 9.59 6.98 12.75 2.02 3.16 3.93 5.64 4.23 5.5 0.31-0.14-0.78-4.52-2.41-9.75-1.63-5.23-3.46-12.31-4.05-15.75-0.6-3.44-0.81-7.94-0.48-10 0.34-2.06 1.24-4.76 2-6 1.23-2 2.21-2.25 8.64-2.26 3.99-0.01 8.26-0.24 9.5-0.5 1.24-0.27 2.25-0.83 2.26-1.24 0.01-0.41-3.71-1.57-8.25-2.58-4.54-1.01-10.04-2.81-12.21-4-2.17-1.19-5.32-4.12-7-6.5-2.84-4.04-3.07-5.02-3.35-14.5-0.17-5.59 0.06-10.48 0.5-10.87 0.44-0.38 2.71-0.27 5.05 0.25 2.85 0.64 5.65 0.59 8.5-0.15 2.34-0.61 8.98-1.16 14.75-1.22 7.47-0.09 11.34 0.3 13.41 1.35 1.6 0.81 3.74 2.6 4.75 3.97 1.34 1.81 2.09 5.4 2.71 13 0.5 6.03 1.14 9.54 1.5 8.25 0.35-1.24 1.08-2.25 1.63-2.25 0.55 0 1.13 0.79 1.3 1.75 0.16 0.96 0.61-2.41 1-7.5 0.38-5.09 1.37-10.83 2.2-12.75 0.91-2.12 2.59-3.92 4.25-4.55 1.51-0.58 5.9-1.29 9.75-1.57 4.23-0.32 10.17 0.06 15 0.96 5.76 1.07 9.26 1.22 12.5 0.55 3.4-0.71 4.67-0.63 5.21 0.33 0.39 0.71 1 3.53 1.36 6.28 0.35 2.75 0.32 7.02-0.08 9.5-0.4 2.48-1.52 6.08-2.48 8-0.96 1.92-3.04 4.4-4.63 5.5-1.58 1.09-4.01 2.49-5.38 3.1-1.38 0.61-6.21 1.96-10.74 3-5.58 1.29-7.91 2.22-7.19 2.9 0.57 0.55 5.18 1.23 10.24 1.5l9.19 0.5c2.23 6.66 2.49 10.35 2.1 15-0.35 4.24-2.14 11.53-4.55 18.5-2.18 6.33-3.76 11.61-3.51 11.75 0.25 0.14 2.42-2.79 4.82-6.5 2.39-3.71 5.48-9 6.86-11.75 1.38-2.75 3.2-7.25 4.05-10 0.85-2.75 1.59-5.67 1.64-6.5 0.04-0.83 0.46-5.55 0.91-10.5 0.76-8.14 1.31-9.85 5.76-17.93 2.71-4.91 6.27-9.96 7.92-11.22 1.65-1.26 3.34-2.31 3.75-2.32 0.41-0.02 2.89-1.46 5.5-3.2 2.61-1.75 6.89-4.9 9.5-7 2.61-2.11 4.75-3.27 4.76-2.58 0 0.69-1.59 5.98-3.54 11.75-2.66 7.87-3.68 12.76-4.04 19.5-0.27 4.95-0.59 9.67-0.72 10.5-0.14 0.83-1.45 3.98-2.93 7-1.48 3.02-7.05 10.45-12.39 16.5-5.33 6.05-11.35 13.25-13.37 16-2.02 2.75-4.87 7.02-6.33 9.5-1.45 2.48-2.66 5.06-2.67 5.75-0.01 0.94 1.68 1.1 6.73 0.66 3.71-0.32 13.27-1.69 21.25-3.05 7.98-1.35 18-3.45 22.27-4.66 4.28-1.21 7.77-2.65 7.76-3.2 0-0.55-1.4-5.95-3.09-12-1.77-6.29-2.88-12.29-2.61-14 0.27-1.65 1.43-6.37 2.6-10.5 1.87-6.66 2.04-9.06 1.47-21.5-0.45-9.74-0.28-15.37 0.57-18.5 0.67-2.48 2.71-6.98 4.54-10 1.82-3.02 8.71-11.13 15.3-18 6.6-6.87 12.86-13.63 13.93-15 1.07-1.37 4.23-5.87 7.02-10 2.8-4.12 6.41-10.2 8.03-13.5 1.62-3.3 4.11-9.6 5.53-14 1.42-4.4 3.31-8.68 4.2-9.5 1.46-1.34 2.32-1.12 8.3 2.13 3.68 2 8.93 4.36 11.68 5.25 2.75 0.89 8.38 2.03 12.5 2.55 4.39 0.55 11.86 0.59 18 0.09 6.09-0.48 15.54-2.18 22.5-4.03 6.6-1.76 16.73-4.97 22.5-7.13 5.77-2.16 12.08-4.2 14-4.52l3.5-0.59c4.57 12.98 7.27 18.55 8.95 20.75 1.76 2.31 5.37 5.17 8.55 6.78 3.03 1.52 8.65 3.28 12.5 3.9 6.68 1.07 7.21 1.01 11.5-1.39 2.48-1.38 6.65-4.94 9.29-7.9 2.84-3.2 7.2-10.26 10.74-17.39 3.27-6.6 7.49-16.73 9.37-22.5 1.88-5.77 4.8-17.25 6.49-25.5 1.69-8.25 3.59-19.73 4.21-25.5 0.68-6.19 0.93-18.1 0.63-29-0.3-10.7-1.19-21.87-2.11-26.5-0.87-4.4-2.74-11.37-4.14-15.5-1.41-4.12-3.62-9.3-4.93-11.5-1.31-2.2-3.88-5.39-5.71-7.08-1.84-1.7-5.14-3.61-7.34-4.24-2.2-0.63-6.02-1.15-8.5-1.15-2.48 0-6.3 0.86-8.5 1.92-2.2 1.05-5.91 3.97-8.25 6.48-2.34 2.51-5.26 6.6-6.5 9.09-1.39 2.8-2.92 4.51-4 4.5-1.22-0.01-3.38-3.29-7.13-10.77-2.95-5.91-7.29-15.48-9.63-21.25-2.34-5.77-5.21-11.58-6.37-12.89-1.17-1.32-4.6-4.02-7.62-6.01-3.02-1.99-10-5.5-15.5-7.8-5.5-2.3-18.55-6.5-29-9.34-10.45-2.83-22.23-5.45-26.18-5.81l-7.19-0.65c-5.91 6.3-10.46 13.73-13.93 20.57-3.46 6.84-6.55 14.23-6.87 16.43-0.47 3.32-0.12 4.55 2.05 7.25 2.37 2.94 2.56 3.8 2 9-0.6 5.59-0.53 5.84 2.75 8.78 1.85 1.67 6.07 4.32 9.37 5.89 3.3 1.57 7.13 2.84 8.5 2.82 1.51-0.02 3.58-1.25 5.25-3.13 1.51-1.71 3.42-3.11 4.25-3.11 0.83 0 5.66 1.19 10.75 2.64 5.79 1.65 10.28 2.4 12 2 1.51-0.35 4.1-1.76 5.75-3.14 1.65-1.37 3.79-2.52 4.75-2.54 0.96-0.03 2.27 0.53 2.9 1.25 0.63 0.71 1.92 5.11 2.88 9.79 0.95 4.68 1.73 12.1 1.72 16.5 0 5.47-0.64 9.74-2.01 13.5-1.1 3.02-2.61 9.05-3.37 13.38-0.75 4.34-1.94 8.16-2.65 8.5-0.7 0.34-2.5-0.54-4-1.97-1.49-1.42-4.74-3.74-7.22-5.16-2.48-1.42-6.52-3.27-9-4.12-2.48-0.85-6.98-1.83-10-2.18-3.53-0.4-8.19-0.05-13 0.96-4.12 0.87-8.4 1.6-9.5 1.62-1.1 0.02-2.9-0.93-4-2.12-1.1-1.18-4.7-4.22-8-6.74-3.3-2.53-9.15-6.03-13-7.78-3.85-1.75-10.83-3.96-15.5-4.91-6.07-1.23-10.72-1.55-16.25-1.1-4.26 0.34-11.01 1.72-15 3.07-3.99 1.35-8.6 2.99-10.25 3.65-1.65 0.66-4.24 0.91-5.75 0.55l-2.75-0.65c0.47-25 0.23-27.29-1.89-33.5-1.32-3.85-5.09-12.4-8.39-19-3.88-7.77-8.59-19.94-13.35-34.5-4.34-13.25-9.6-27.02-12.81-33.5-4.18-8.45-7.13-12.84-12.75-18.91-4.02-4.36-10.46-10.11-14.31-12.79-3.85-2.68-10.37-6.26-14.5-7.96-4.12-1.7-9.98-3.27-13-3.5-4-0.3-7.27 0.21-12 1.88zm-348 121.87c-4.12 1.09-8.85 2.77-10.5 3.73-1.65 0.97-4.37 3.77-6.05 6.22-1.68 2.45-4.04 7.39-5.25 10.96-1.21 3.57-2.91 9.65-3.77 13.5-1.02 4.51-1.78 14.48-2.14 28-0.36 13.26-0.12 25.24 0.63 32.5 0.65 6.32 2.29 16.68 3.64 23 1.35 6.32 3.79 16.23 5.41 22 1.62 5.77 4.37 13.87 6.1 18 1.74 4.12 5 10.65 7.25 14.5 2.24 3.85 5.9 8.98 8.13 11.4 2.23 2.43 5.85 5.22 8.05 6.2 2.2 0.99 5.8 1.91 8 2.04 2.2 0.14 7.26-0.29 11.25-0.95 3.99-0.65 7.24-1.53 7.22-1.94-0.02-0.41-2.04-1.99-4.5-3.5-2.46-1.51-6.34-5.11-8.63-8-2.28-2.89-6.28-9.75-8.88-15.25-2.6-5.5-5.79-13.15-7.09-17-1.29-3.85-2.36-7.07-2.36-7.16-0.01-0.09-3.16 0.52-7.01 1.35-5.85 1.27-7.12 1.3-7.75 0.16-0.42-0.74-1.7-4.5-2.86-8.35-1.16-3.85-2.98-11.05-4.06-16-1.07-4.95-2.56-13.73-3.3-19.5-0.74-5.77-1.66-15.45-2.05-21.5-0.38-6.05-0.43-14.26-0.09-18.25 0.5-5.89 0.99-7.44 2.61-8.25 1.1-0.55 4.66-1.34 7.91-1.75l5.91-0.75c2.61-17.05 4.42-25.38 5.71-29.5 1.29-4.13 3.95-9.86 5.91-12.75 2.9-4.27 3.23-5.24 1.81-5.19-0.96 0.03-5.12 0.94-9.25 2.03zm710.31 1.16c1.52 1.79 3.62 5.05 4.66 7.25 1.04 2.2 2.82 7.6 3.96 12 1.15 4.4 2.64 11.74 3.33 16.31 1.04 6.99 1.56 8.36 3.24 8.66 1.1 0.2 4.48 0.84 7.5 1.44 5.06 0.99 5.56 1.33 6.26 4.33 0.42 1.79 0.76 8.66 0.75 15.26 0 6.6-0.7 17.62-1.54 24.5-0.84 6.87-2.65 17.9-4 24.5-1.36 6.6-3.43 14.93-4.61 18.5-1.17 3.57-2.18 6.62-2.25 6.76-0.06 0.14-2.36-0.2-5.11-0.76-2.75-0.56-6.01-1.24-7.25-1.51-2.06-0.45-2.56 0.39-5.87 9.76-1.99 5.64-5.48 13.83-7.75 18.22-2.27 4.38-6.2 10.23-8.74 13-2.53 2.76-6.25 5.93-8.26 7.03-2 1.1-3.65 2.23-3.66 2.5-0.01 0.27 3.71 1.24 8.26 2.14 6.18 1.22 9.66 1.41 13.77 0.73 3.87-0.64 6.68-1.88 9.5-4.21 2.2-1.82 6.08-6.42 8.63-10.23 2.55-3.81 6.1-9.86 7.88-13.43 1.79-3.57 4.77-11.23 6.63-17 1.86-5.77 4.7-16.57 6.32-24 1.61-7.43 3.63-19.57 4.48-27 0.86-7.43 1.56-19.24 1.56-26.25 0-7.01-0.49-17.14-1.09-22.5-0.6-5.36-1.95-13.13-3-17.25-1.05-4.13-3.45-10.65-5.34-14.5-1.89-3.85-4.7-8.16-6.25-9.59-1.55-1.42-4.84-3.3-7.32-4.17-2.47-0.87-6.86-2.07-9.75-2.66-2.89-0.6-5.81-1.08-6.49-1.08-0.68 0 0.02 1.46 1.55 3.25zm-736.44 4.93c-2.4 0.44-7.07 2.11-10.37 3.71-3.3 1.6-7.54 4.65-9.43 6.76-1.88 2.12-4.54 6.33-5.9 9.35-1.37 3.02-3.39 9.77-4.51 15-1.68 7.92-2.03 13.4-2.09 33-0.05 18.12 0.35 26.13 1.75 35 1 6.32 2.69 15.32 3.76 20 1.07 4.68 2.37 9.4 2.9 10.5 0.52 1.1 2.38 6.27 4.12 11.5 1.73 5.23 4.84 13.1 6.91 17.5 2.06 4.4 5.46 10.25 7.54 13 2.09 2.75 5.18 6.23 6.87 7.73 1.69 1.51 4.66 3.51 6.58 4.44 1.93 0.94 5.98 1.89 9 2.12 3.03 0.23 7.3-0.08 9.5-0.69 2.2-0.6 4.68-1.56 5.5-2.12 1.33-0.9 1.32-1.16-0.09-2.25-0.87-0.68-3.28-2.58-5.36-4.23-2.08-1.65-5.47-5.48-7.52-8.5-2.06-3.02-4.56-7.07-5.57-9-1-1.93-3.74-8.23-6.09-14l-4.27-10.5c-6.67 0.64-10.17 0.86-12.09 0.91l-3.49 0.09c-3.33-11.63-5.27-19.73-6.47-25.5-1.2-5.77-2.82-14.77-3.61-20-0.81-5.43-1.42-16.79-1.42-26.5 0.01-9.35 0.34-17.55 0.75-18.23 0.4-0.67 3.43-1.75 6.73-2.38 3.3-0.63 6.45-1.25 7-1.38 0.55-0.12 1.57-3.77 2.27-8.11 0.7-4.35 2-10.83 2.89-14.4 0.89-3.57 2.64-8.75 3.9-11.5 1.27-2.75 3.23-6.46 4.37-8.25 1.14-1.79 1.68-3.39 1.19-3.56-0.48-0.16-2.84 0.06-5.25 0.49zm766.84 2.57c1.66 2.06 3.75 5.21 4.65 7 0.9 1.79 2.77 7.41 4.15 12.5 1.37 5.09 2.84 12.26 3.25 15.93l0.74 6.69 15 3.63c1.29 8.52 1.42 17.3 1.11 25-0.32 7.7-1.27 18.5-2.12 24-0.86 5.5-2.71 15.18-4.13 21.5-1.42 6.32-3.33 13.52-4.26 16-1.56 4.17-1.93 4.49-5.14 4.42-1.9-0.05-5.26-0.45-7.46-0.88l-4-0.79c-2.89 8.33-6.11 15.7-9.02 21.75-3.26 6.76-7.19 13.12-10.21 16.5-2.69 3.02-6.67 6.6-8.83 7.94l-3.94 2.44c9.65 3.3 12.72 3.64 18 3.26 5.42-0.4 8.02-1.16 11.5-3.37 2.48-1.58 6.67-5.54 9.33-8.82 2.66-3.27 6.32-8.88 8.14-12.45 1.83-3.57 4.94-11.23 6.94-17 1.99-5.77 4.06-11.4 4.6-12.5 0.54-1.1 1.87-5.82 2.96-10.5 1.1-4.68 2.89-14.35 4-21.5 1.1-7.15 2.29-17.73 2.63-23.5 0.34-5.77 0.13-17.02-0.47-25-0.6-7.98-2.02-18.1-3.14-22.5-1.13-4.4-3.08-10.25-4.34-13-1.26-2.75-3.84-6.75-5.72-8.88-1.89-2.14-5.9-5.13-8.93-6.65-3.02-1.52-8.01-3.26-11.07-3.87-3.07-0.6-5.95-1.1-6.41-1.1-0.46 0 0.52 1.69 2.19 3.75zm-812.21 62.38c-2.75 1.11-5.83 2.78-6.85 3.7-1.02 0.92-2.49 2.91-3.25 4.42-0.94 1.84-1.42 6.46-1.46 14-0.04 7.91 0.59 14.37 2.13 21.75 1.49 7.16 3.38 12.73 5.93 17.5 2.38 4.45 4.79 7.55 6.62 8.52 1.94 1.02 4.46 1.34 7.72 1 4.52-0.49 4.81-0.69 4.38-3.02-0.25-1.38-1.86-9.25-3.56-17.5-1.7-8.25-3.56-19.05-4.12-24-0.56-4.95-1.03-13.39-1.03-18.75-0.01-5.36-0.35-9.73-0.76-9.7-0.41 0.03-3 0.97-5.75 2.08zm856.16 11.6c-0.43 7.57-1.85 20.07-3.14 27.77-1.3 7.7-3.31 17.82-4.47 22.5-1.16 4.68-1.98 8.59-1.83 8.7 0.16 0.12 2.83 0.34 5.95 0.5 4.92 0.26 6.02-0.04 8.28-2.2 1.43-1.38 2.59-2.95 2.58-3.5-0.01-0.55 1.57-4.15 3.52-8 2.66-5.24 4.07-10.02 5.61-19 1.52-8.78 1.91-14.15 1.47-20-0.49-6.53-1.12-8.73-3.39-12-1.53-2.2-4.34-4.74-6.26-5.66-1.91-0.91-4.39-1.93-5.51-2.27-1.94-0.59-2.06-0.04-2.81 13.16zm21.95 19.93c-0.47 3.76-1.81 10.56-2.98 15.11-2.12 8.24-2.12 8.27-0.13 8.8 1.1 0.3 4.24 0.4 6.97 0.24 4.65-0.29 5.13-0.58 7.21-4.31 1.23-2.2 2.54-6.48 2.9-9.5 0.38-3.19 0.18-7.07-0.46-9.25-0.62-2.06-2.13-4.39-3.37-5.18-1.24-0.78-3.83-1.72-5.77-2.08l-3.52-0.67zm-902.11-3.74c-2.26 1-4.54 2.93-5.25 4.43-0.68 1.46-1.23 4.11-1.22 5.9 0.01 1.79 0.46 5.16 1 7.5 0.54 2.34 1.99 5.82 3.22 7.73 1.24 1.91 2.7 3.66 3.25 3.89 0.55 0.23 3.38-0.1 6.28-0.73 2.89-0.62 5.26-1.36 5.26-1.64 0-0.27-0.92-5-2.04-10.5-1.11-5.5-2.02-11.91-2.01-14.25 0.01-3.76-0.24-4.24-2.24-4.18-1.23 0.04-4.05 0.87-6.25 1.85zm442-207.45c-3.3 1.39-8.42 4.22-11.39 6.28-2.97 2.06-7.65 6-10.41 8.75-2.75 2.75-6.38 7.03-8.05 9.5-1.67 2.48-4.82 8.33-7 13-2.17 4.68-5.92 14.58-8.32 22-2.4 7.43-4.36 14.18-4.37 15 0 1.07 0.8 0.75 2.77-1.11 1.53-1.43 5.47-4.41 8.77-6.61 3.3-2.2 7.92-4.96 10.25-6.14 2.34-1.17 4.48-2.14 4.75-2.14 0.28 0-4.84 5.29-11.38 11.75-6.53 6.46-15.19 16.25-19.25 21.75-4.06 5.5-9.12 13.6-11.25 18-2.12 4.4-4.54 10.7-5.36 14-1.21 4.87-1.29 7.42-0.41 13.5 0.63 4.31 2.34 10.06 4.01 13.5 1.68 3.45 4.78 7.62 7.29 9.81 2.39 2.09 7.73 5.76 11.85 8.13 4.13 2.38 13.58 7.35 21 11.05 7.43 3.69 15.42 8.02 17.75 9.61 2.34 1.6 4.59 2.91 5 2.92 0.42 0-1.27-2.06-3.75-4.58-2.47-2.53-8.1-6.98-12.5-9.89-4.4-2.91-12.05-7.38-17-9.93-4.95-2.56-11.13-6.21-13.75-8.13-2.61-1.92-6.11-5.63-7.79-8.24-1.67-2.61-3.74-7.22-4.61-10.25-1.04-3.63-1.36-7.2-0.94-10.5 0.34-2.75 2.13-8.15 3.97-12 1.84-3.85 6.17-10.82 9.62-15.5 3.46-4.67 9.93-12.07 14.39-16.44 4.46-4.37 10.81-9.93 14.11-12.36 3.3-2.42 8.03-5.44 10.5-6.7 2.48-1.27 7.2-3.01 10.5-3.88 3.3-0.87 9.38-1.6 13.5-1.61 4.78-0.03 9.5 0.64 13 1.83 3.03 1.03 7.08 2.68 9 3.67 1.93 0.98 7.1 4.53 11.5 7.87 4.4 3.35 11.2 9.24 15.1 13.1 3.91 3.86 9.91 10.85 13.34 15.52 3.43 4.68 7.66 11.42 9.4 14.98 2.4 4.91 3.26 8.18 3.54 13.5 0.33 6.07-0.01 7.89-2.5 13.41-1.76 3.91-4.61 8-7.38 10.58-2.47 2.31-6.97 5.76-10 7.68-3.02 1.91-9.95 5.92-15.39 8.91-5.74 3.16-12.58 7.96-16.29 11.44-3.52 3.3-6.27 6.12-6.11 6.25 0.16 0.14 4.12-1.95 8.79-4.65 4.68-2.69 9.97-5.84 11.75-7 1.79-1.15 3.7-2.1 4.25-2.1 0.55 0 5.78-2.59 11.61-5.75 5.83-3.16 13.09-8 16.14-10.75 3.04-2.75 6.53-7.02 7.76-9.5 1.22-2.47 2.79-6.97 3.49-10 0.71-3.04 1.08-8.62 0.83-12.5-0.33-5.13-1.32-8.87-3.71-14-1.79-3.85-4.88-9.7-6.87-13-1.99-3.3-7.74-11.17-12.77-17.5-5.04-6.32-12.05-14.08-15.57-17.25-3.52-3.16-6.07-5.97-5.66-6.25 0.42-0.27 3.12 0.81 6 2.41 2.89 1.59 7.84 4.97 11 7.5 3.17 2.52 5.99 4.48 6.28 4.34 0.29-0.14-1.67-7-4.36-15.25-2.68-8.25-6.42-18.37-8.32-22.5-1.89-4.12-5.44-10.37-7.89-13.89-2.45-3.52-7.83-9.28-11.96-12.81-4.12-3.53-10.41-7.86-13.98-9.61-5.08-2.5-8-3.25-13.5-3.47-5.67-0.22-8.16 0.21-13.02 2.25zm-194.5 60.62c-4.67 1.06-13.45 3.33-19.5 5.05-6.05 1.71-16.17 5.32-22.5 8.02-6.32 2.7-12.96 6.02-14.75 7.37-1.78 1.36-4.31 4.61-5.61 7.22-1.3 2.61-3.18 7.23-4.18 10.25-1 3.03-5.3 12.48-9.55 21-4.24 8.53-10.83 20.68-14.62 27-3.79 6.33-8.05 13.53-9.45 16-1.41 2.48-3.52 7.09-4.7 10.25-1.17 3.16-2.78 9.46-3.56 14-0.89 5.12-1.17 10.34-0.74 13.75l0.69 5.5c3.48-13.95 5.94-20.92 7.72-24.5l3.22-6.5c0.95 26.6 1.45 30.15 3.53 35.94 1.68 4.66 4.02 8.61 7.09 12 2.52 2.79 8.82 7.83 14 11.22 5.18 3.38 11.89 7.17 14.91 8.42 4.52 1.86 7.38 2.27 16 2.27 8.46 0.01 11.67-0.43 16.5-2.24 3.3-1.23 6.9-2.85 8-3.58 1.87-1.26 1.68-1.45-3-3.05-2.75-0.93-5.67-1.99-6.5-2.34-0.82-0.35 2.89-0.75 8.25-0.89 5.67-0.14 9.75-0.67 9.75-1.25 0-0.55-3.03-2.78-6.75-4.97-3.71-2.18-10.23-6.9-14.5-10.5l-7.75-6.53c-5.81 4.41-9.52 6.85-12 8.27-2.47 1.42-7.29 3.17-10.71 3.9-3.42 0.73-6.44 1.11-6.72 0.83-0.28-0.27 1.73-2.19 4.46-4.25 2.74-2.06 6.82-6.11 9.07-9 2.25-2.89 5.35-7.95 6.89-11.25 1.54-3.3 3.3-8.36 3.91-11.25 0.61-2.89 1.1-7.27 1.1-9.75 0-2.47-1.14-10.01-2.54-16.75-2.18-10.47-2.47-13.85-1.97-23.25 0.56-10.7 0.53-10.93-1.2-8.66-0.98 1.29-3.96 6.24-6.62 11l-4.82 8.66c0.89-13.56 2.29-21.44 3.67-26.25 1.38-4.81 3.13-10.55 3.89-12.75 1.16-3.4 1.16-4.59-0.03-8-0.78-2.2-1.18-4.79-0.89-5.75 0.43-1.46 1.34-1.01 5.51 2.75 3.92 3.53 5.76 4.5 8.5 4.5 1.93 0 4.52-0.51 5.75-1.13 1.24-0.63 4.62-3.1 7.5-5.5l5.25-4.37c3.88 8.53 5 11.23 5 11.5 0 0.28-1.35 0.5-3 0.5q-3 0-3 1.5c0 0.83 1.02 2.18 2.25 3.01 1.24 0.83 3.27 1.5 4.5 1.5 1.24 0 3.83-0.68 5.75-1.51 2.67-1.14 3.5-2.09 3.5-4 0-1.37-0.7-5.54-1.56-9.25-0.86-3.71-1.42-8.32-1.25-10.25 0.28-3.13 0.79-2.31 4.81 7.87 2.48 6.25 4.84 11.54 5.25 11.75 0.42 0.21 1.88-0.07 3.25-0.62 1.64-0.65 2.5-1.77 2.49-3.25-0.01-1.24-0.9-6.52-1.99-11.75-1.08-5.22-1.98-10.29-1.98-11.25-0.01-0.96 0.32-1.58 0.73-1.38 0.42 0.21 3 5.4 5.75 11.53 4.38 9.78 5.25 11.09 7 10.52 1.1-0.35 2.45-1.04 3-1.53 0.66-0.59-0.11-4.94-2.23-12.64-1.78-6.46-3.24-12.31-3.25-13-0.01-0.69 0.43-1.02 0.98-0.75 0.55 0.28 3.03 4.55 5.5 9.5 2.48 4.95 4.95 9.23 5.5 9.5 0.55 0.28 1.68 0.28 2.5 0 0.83-0.27 1.5-1.51 1.5-2.75 0-1.24-2.61-7.65-5.8-14.25-3.19-6.6-6.56-12.34-7.5-12.75-0.93-0.41-3.38-0.71-5.45-0.66-2.06 0.04-7.57 0.95-12.25 2zm397-1.17c-0.82 0.47-4.2 6.56-7.5 13.53-4.81 10.17-5.78 13.01-4.89 14.37 0.61 0.92 1.74 1.81 2.5 1.97 0.87 0.18 2.83-2.64 5.21-7.5 2.1-4.28 4.68-8.91 5.73-10.29 1.75-2.28 1.91-2.33 1.93-0.5 0 1.1-1.33 6.95-2.98 13-1.64 6.05-3 11.23-3.02 11.5-0.02 0.28 1.1 1.06 2.5 1.75 1.39 0.69 2.86 1.09 3.27 0.89 0.42-0.2 2.24-3.92 4.06-8.25 1.81-4.34 4.16-9.46 5.2-11.39 1.91-3.5 1.91-3.5 1.95-0.75 0.03 1.51-0.88 7.14-2.01 12.5-1.12 5.36-1.82 10.43-1.54 11.25 0.28 0.83 1.54 1.82 2.8 2.22 1.26 0.39 2.6 0.39 2.96 0 0.37-0.4 2.33-4.77 4.37-9.72 2.03-4.95 4.09-9.79 4.58-10.75 0.49-0.96 1.12-1.64 1.42-1.5 0.29 0.14-0.42 5.65-1.58 12.25-2.03 11.58-2.03 12.05-0.28 13.27 1 0.7 3.17 1.54 4.82 1.87 1.7 0.33 4.3 0 5.99-0.77 1.64-0.75 3.1-2.16 3.25-3.12 0.2-1.33-0.44-1.75-2.74-1.75-1.65 0-3.01-0.11-3.02-0.25-0.01-0.14 1.23-3.07 2.75-6.51l2.77-6.26c6.98 7.12 10.24 9.82 11.75 10.6 1.52 0.78 4.33 1.42 6.25 1.42 2.74 0 4.59-0.97 8.5-4.5 4.18-3.76 5.09-4.21 5.52-2.75 0.29 0.96-0.13 3.33-0.93 5.25-1.37 3.29-1.26 4.13 1.86 14 1.82 5.78 3.86 13.88 4.52 18 0.66 4.13 1.05 9.26 0.87 11.41l-0.34 3.91c-6.62-13.03-9.46-17.94-10.57-19.32l-2.02-2.5c1.19 19.54 0.92 22.74-1.31 33.5-1.43 6.88-2.6 15.09-2.6 18.25 0 3.33 1.04 9.02 2.46 13.5 1.35 4.26 4.18 10.45 6.29 13.75 2.12 3.3 5.85 7.66 8.3 9.7 2.45 2.03 5.58 4.58 6.95 5.67l2.5 1.99c-6.97-0.78-11.47-1.88-14.5-2.94-3.02-1.07-7.63-3.73-10.25-5.93-2.61-2.19-4.97-3.99-5.25-3.99-0.27 0-3.53 2.42-7.25 5.37-3.71 2.96-9.67 7.36-13.25 9.8-3.57 2.43-7.28 4.73-8.25 5.12-0.96 0.39-1.52 1.16-1.25 1.71 0.28 0.55 4.44 1.02 9.25 1.03 7.98 0.03 8.58 0.17 6.75 1.52-1.1 0.82-2.9 1.49-4 1.48-1.1 0-2.67 0.45-3.5 1.01-1.29 0.86-1.22 1.21 0.5 2.51 1.1 0.83 4.48 2.49 7.5 3.68 4.37 1.72 7.56 2.16 15.5 2.14 7.76-0.02 11.35-0.52 16-2.21 3.3-1.21 9.51-4.33 13.81-6.93 4.29-2.6 10.14-6.8 13-9.33 2.85-2.53 6.39-6.8 7.86-9.5 1.47-2.69 3.43-7.82 4.36-11.4 1.28-4.93 1.6-9.57 1.33-19.24-0.19-7.02-0.24-12.75-0.11-12.75 0.14-0.01 1.6 2.69 3.25 5.99 1.65 3.3 4.14 10.16 5.53 15.25 1.39 5.09 2.75 9.48 3.03 9.75 0.27 0.28 0.49-3.32 0.48-8-0.01-5.02-0.79-11.56-1.92-16-1.05-4.12-3.01-9.97-4.34-13-1.34-3.02-5.96-11.35-10.27-18.5-4.31-7.15-10.44-17.95-13.62-24-3.19-6.05-8.17-16.85-11.09-24.01-2.91-7.16-6.08-14.25-7.05-15.75-0.96-1.51-3.43-3.86-5.5-5.23-2.06-1.36-7.8-4.24-12.75-6.39-4.95-2.15-15.3-5.71-23-7.91-7.7-2.19-17.37-4.72-21.5-5.61-4.12-0.9-9.07-1.61-11-1.58-1.92 0.02-4.17 0.43-5 0.9zm-330.5 96.68c-3.85 0.77-9.92 2.79-13.5 4.49-3.57 1.7-8.18 4.4-10.25 6-2.06 1.6-3.52 3.14-3.25 3.41 0.28 0.28 2.98-0.4 6-1.5 3.03-1.1 6.26-2 7.18-2 1.09 0-0.32 2-4.07 5.75l-5.74 5.75c8.73 7.95 14.93 11.77 22.63 15.52 6.6 3.22 15.73 6.89 20.28 8.17 4.55 1.27 8.26 2.54 8.25 2.81-0.01 0.28-5.76 0.65-12.77 0.82-7.02 0.18-12.98 0.5-13.26 0.72-0.27 0.22 0.81 2.55 2.41 5.18 1.6 2.63 8.8 10.64 16 17.8 8.08 8.03 17.41 16.08 24.36 21 6.2 4.39 10.93 8.11 10.5 8.26-0.42 0.16-2.68-0.18-5.02-0.75-3.31-0.8-4.17-0.75-3.9 0.22 0.2 0.69 2.33 2.63 4.75 4.3 2.42 1.68 8.9 4.53 14.4 6.33 6.61 2.15 12.89 3.46 18.5 3.83 5.69 0.38 11.65 0.03 18-1.05 5.23-0.89 11.75-2.28 14.5-3.1 2.75-0.82 7.14-2.85 9.75-4.52 3.51-2.24 5.41-4.41 7.24-8.29 1.37-2.89 2.78-7.5 3.13-10.25l0.63-5c-8.52-1.23-10.33-1.91-9.75-2.4 0.55-0.47 2.69-1.36 4.75-1.98 2.07-0.61 3.77-1.68 3.8-2.37 0.03-0.69-1.66-2.84-3.75-4.78-2.09-1.94-6.38-4.97-9.55-6.75-3.16-1.77-5.63-3.43-5.5-3.68 0.14-0.26 2.05 0.02 4.25 0.61 2.2 0.59 5.69 1.93 7.75 2.96 2.07 1.04 3.98 1.89 4.25 1.89 0.28 0 0.5-1.35 0.5-3 0-1.65-1.12-5.25-2.5-8-1.84-3.69-4.14-6.15-8.75-9.38-3.43-2.41-9.62-6.07-13.75-8.14-4.12-2.06-13.35-5.68-20.5-8.03-7.15-2.35-16.6-5.01-21-5.91-4.4-0.9-14.07-2.1-21.5-2.66-7.42-0.57-14.62-1.39-16-1.84-2.29-0.75-1.93-1.08 4.5-4.02 3.85-1.77 9.15-3.51 11.77-3.87 2.62-0.35 4.75-0.99 4.75-1.4-0.01-0.41-4.18-2.75-9.27-5.19-5.23-2.51-12.61-5.11-17-6-4.26-0.86-9.88-1.52-12.5-1.46-2.61 0.05-7.9 0.72-11.75 1.5zm258 0c-3.85 0.78-10.15 2.85-14 4.61-3.85 1.75-8.35 4.08-10 5.18l-3 2.01c10.08 2.03 15.7 3.9 19 5.48 5.35 2.55 5.73 2.93 3.5 3.4-1.37 0.3-9.25 1.04-17.5 1.65-8.25 0.62-17.92 1.8-21.5 2.64-3.57 0.84-11 2.92-16.5 4.61-5.5 1.7-14.27 4.96-19.5 7.25-5.22 2.28-11.97 5.99-15 8.25-3.02 2.25-6.71 5.38-8.19 6.96-1.49 1.57-3.4 4.55-4.25 6.61-0.86 2.06-1.56 4.88-1.56 6.25v2.5c11.24-3.98 15.15-5 15.93-4.82 0.79 0.18-1.12 1.56-4.25 3.07-3.12 1.51-7.5 4.44-9.72 6.5-2.23 2.06-4.04 4.2-4.02 4.75 0.02 0.55 2.62 1.85 5.8 2.89 4.72 1.55 5.4 2.03 3.76 2.69-1.1 0.43-3.8 1.08-6 1.43l-4 0.65c1.16 8.01 2.51 12.37 3.75 14.84 1.24 2.48 3.83 5.53 5.75 6.79 1.93 1.26 5.98 3.22 9 4.36 3.03 1.13 10.23 2.91 16 3.96 5.78 1.05 13.43 1.91 17 1.91 3.58 0 10.1-0.91 14.5-2.02 4.4-1.11 11.6-3.78 16-5.92 4.4-2.15 8.68-4.69 9.5-5.65 1.42-1.64 1.18-1.7-4-1.03-3.38 0.45-5.11 0.37-4.5-0.2 0.55-0.51 4.38-3.18 8.5-5.93 4.13-2.76 11.33-8.37 16-12.46 4.68-4.1 10.81-10.12 13.62-13.38 2.82-3.26 6.99-8.63 9.28-11.93 2.28-3.3 4.14-6.56 4.13-7.25-0.02-0.92-2.99-1.27-11.28-1.32-6.18-0.04-12.15-0.4-13.25-0.81-1.47-0.55 0.37-1.33 7-2.98 4.95-1.24 13.28-4.27 18.5-6.75 5.23-2.48 12.55-6.84 16.27-9.7 3.72-2.85 6.98-5.75 7.25-6.44 0.26-0.69-1.43-2.94-3.77-5.01-2.33-2.07-5.6-4.75-7.25-5.97-1.65-1.21-2.43-2.22-1.75-2.24 0.69-0.01 3.84 0.82 7 1.85 3.17 1.03 6.65 2.22 7.75 2.65 1.54 0.6 1.31 0.05-1-2.4-1.65-1.75-6.15-4.71-10-6.59-3.85-1.87-10.48-4.11-14.75-4.97-4.26-0.86-9.88-1.53-12.5-1.47-2.61 0.05-7.9 0.73-11.75 1.5zm-325.5 18.74c-2.47 0.67-6.3 2.31-8.5 3.66-2.2 1.35-5.97 4.26-8.39 6.48-2.41 2.21-5.51 5.82-6.88 8.02-2 3.22-2.36 4.79-1.86 8 0.34 2.2 1.74 5.46 3.12 7.25 1.38 1.79 4.88 4.4 7.76 5.79 3.74 1.81 7.56 2.7 13.25 3.08 5.93 0.4 10.46 0.01 17.5-1.49 5.23-1.12 10.63-2.32 12-2.67l2.5-0.63c-3.87 3.15-8.74 5.78-13.32 7.87-6.79 3.1-7.98 3.97-6.5 4.71 1.01 0.5 6.32 0.61 11.82 0.24 5.5-0.36 12.93-1.5 16.5-2.53 3.58-1.03 9.09-3.05 12.25-4.5 3.17-1.44 5.75-3.07 5.75-3.62 0-0.56-2.72-0.98-6.25-0.97l-6.25 0.04c3.1-3.32 5.92-5.35 8.25-6.67 2.34-1.32 4.25-2.85 4.25-3.4 0-0.55-2.36-3.52-5.25-6.61-2.88-3.09-7.83-7.59-11-10-3.16-2.41-6.98-4.94-8.5-5.62-1.51-0.67-2.97-1.47-3.25-1.77-0.27-0.31-2.3-1.32-4.5-2.26-2.2-0.94-6.02-2.15-8.5-2.7-2.47-0.54-6.07-0.97-8-0.95-1.92 0.03-5.52 0.59-8 1.25zm399.25 0.17c-2.88 0.82-7.38 2.57-10 3.89-2.61 1.31-7.67 4.54-11.25 7.17-3.57 2.63-8.86 7.18-11.75 10.11-2.88 2.93-5.25 5.77-5.25 6.32 0 0.55 2.82 3.14 6.25 5.75l6.25 4.75-13 1c6.98 4.22 11.7 6.41 15 7.59 3.3 1.18 10.73 2.64 16.5 3.24 6.85 0.72 11.33 0.77 12.87 0.14 2.16-0.88 1.5-1.4-7.5-5.85-5.42-2.69-9.42-5.07-8.87-5.31 0.55-0.23 5.39 0.51 10.75 1.64 5.37 1.13 12.34 2.01 15.5 1.95 3.17-0.05 8-0.77 10.75-1.59 2.75-0.82 6.8-2.71 9-4.2 2.2-1.49 5.03-4.26 6.28-6.16 1.25-1.9 2.28-4.8 2.28-6.45 0-1.73-1.23-4.69-2.91-7-1.6-2.2-4.65-5.66-6.78-7.69-2.12-2.03-7.02-5.14-10.87-6.91-4.45-2.05-9-3.34-12.5-3.55-3.02-0.18-7.86 0.34-10.75 1.16zm-503.48 48.76c-0.41 1.23-0.74 4.93-0.74 8.23 0 3.3 0.34 6.54 0.74 7.19 0.4 0.65 2.42 1.89 4.48 2.75 2.07 0.86 6.45 2.24 9.75 3.06 3.3 0.83 6 1.16 5.99 0.75-0.01-0.41-2.29-3.22-5.08-6.25-2.79-3.02-7.1-8.2-9.58-11.5-2.48-3.3-4.58-6.1-4.67-6.23-0.09-0.13-0.49 0.77-0.89 2zm620.25 3.51c-1.92 3.15-6.2 8.55-9.5 12-3.31 3.45-5.79 6.49-5.52 6.75 0.28 0.26 3.65-0.49 7.5-1.67 3.85-1.17 8.35-2.9 10-3.84 2.05-1.16 3.23-2.79 3.72-5.11 0.39-1.87 0.46-4.98 0.16-6.91-0.3-1.92-0.74-4.29-0.96-5.25-0.23-0.96-0.75-1.73-1.17-1.72-0.41 0.02-2.32 2.6-4.23 5.75zm-443.02 6.72c0 0.83 1.34 4.99 2.97 9.25 1.64 4.26 4.59 10.45 6.57 13.75 1.97 3.3 5.25 7.73 7.28 9.83 2.02 2.11 5.48 4.91 7.68 6.22 2.2 1.31 7.38 3.54 11.5 4.97 4.13 1.42 10.65 2.82 14.5 3.11l7 0.51c-9.3-5.14-15.82-9.17-20.5-12.26-4.67-3.09-12.28-9.17-16.9-13.5-4.67-4.38-10.66-11.32-13.5-15.63-2.8-4.26-5.43-7.75-5.85-7.75-0.41 0-0.75 0.68-0.75 1.5zm264.44 9.2c-3.82 4.79-9.86 11.21-13.44 14.27-3.57 3.06-9.42 7.66-13 10.22-3.57 2.55-10.1 6.74-14.5 9.31l-8 4.66c10.9-0.71 17.77-2.18 22.5-3.77 5.22-1.75 10.34-4.32 13.25-6.62 2.62-2.07 7-6.81 9.74-10.52 2.75-3.71 6.29-9.9 7.88-13.75 1.58-3.85 3.09-8.24 3.35-9.75 0.25-1.51 0.17-2.75-0.2-2.75-0.36 0-3.77 3.92-7.58 8.7zm-294.6-7.13c-0.28 0.31-9.47 1.02-20.42 1.57l-19.92 1.01c-12.4 9-18.82 13.13-22.27 14.98-3.45 1.86-6.11 3.82-5.91 4.37 0.2 0.55 2.35 1.59 4.77 2.31 2.43 0.72 8.69 1.58 13.91 1.9 8.11 0.51 10.61 0.26 17-1.66 4.13-1.25 10.09-3.57 13.25-5.16 3.28-1.64 9.22-6.23 13.79-10.64 4.43-4.26 8.03-8.09 8-8.5-0.02-0.41-0.41-0.75-0.87-0.75-0.46 0-1.06 0.26-1.33 0.57zm330.32 0.79c-0.09 0.36 1.76 2.73 4.09 5.29 2.34 2.55 6.73 6.46 9.75 8.69 3.03 2.22 7.75 5.07 10.5 6.33 2.75 1.26 8.15 2.97 12 3.8 3.85 0.82 9.25 1.49 12 1.48 2.75-0.01 8.6-0.67 13-1.47 4.4-0.8 8.45-1.88 9-2.4 0.65-0.61-1.13-2-5-3.9-3.3-1.63-9.87-5.82-14.61-9.32l-8.62-6.36c-23.07-1.19-32.51-1.82-35.86-2.16-3.36-0.34-6.17-0.33-6.25 0.02zm-167.35 31c-1.91 2.28-6.14 5.56-9.39 7.3-3.25 1.74-8.84 4.11-12.42 5.28-3.57 1.16-13.47 3.86-22 6-8.52 2.14-19.77 4.39-25 4.99-5.22 0.6-9.65 1.2-9.83 1.34-0.18 0.13-0.08 1.36 0.22 2.73 0.3 1.38 1.6 3.63 2.88 5 1.29 1.38 2.59 3.18 2.9 4 0.47 1.23-0.53 1.5-5.55 1.5h-6.12c0.48 5.43 1.92 9.48 3.53 12.5 1.6 3.03 4.73 6.96 6.94 8.75 2.22 1.79 5.16 3.7 6.53 4.25 1.38 0.55 3.85 1 5.5 1 1.65 0 4.35-0.67 6-1.5l3-1.5c0.03 6.65 1 10.41 2.27 12.88 1.3 2.54 3.7 5.23 5.73 6.41 2.75 1.6 4.47 1.9 8 1.39 2.48-0.35 8.1-1.31 12.5-2.12 4.4-0.82 10.82-1.5 14.25-1.52 5.8-0.04 6.35-0.24 7.64-2.79 0.76-1.51 1.74-5.22 2.18-8.25 0.43-3.02 0.67-7.97 0.52-11-0.15-3.02-0.68-6.51-1.18-7.75-0.5-1.24-1.92-3.16-3.16-4.27-1.77-1.59-3.64-2.02-8.75-2.02-3.57 0-9.42 0.88-13 1.95-3.57 1.07-9.65 4.02-13.5 6.55-5.6 3.69-7.84 4.6-11.25 4.57-3.5-0.02-4.86-0.64-7.75-3.53-1.92-1.92-3.5-4.17-3.5-5 0-1.33 0.31-1.33 2.75 0 1.52 0.82 4.22 1.49 6 1.5 1.89 0 7.56-2.11 13.5-5.02 6.63-3.25 14.33-6.03 21.75-7.86 6.33-1.56 12.52-3.12 13.75-3.47 1.51-0.44 3.23-2.71 5.22-6.9l2.96-6.25c1.65 4.65 2.68 7.3 3.35 8.88 0.67 1.59 2.01 3.28 2.97 3.75 0.97 0.48 5.92 1.75 11 2.81 5.09 1.07 11.05 2.58 13.25 3.36 2.2 0.78 6.93 2.87 10.5 4.64 3.58 1.77 6.95 3.61 7.5 4.1 0.55 0.48 3.03 1.19 5.5 1.57 3.29 0.5 5.38 0.24 7.75-0.96 2.83-1.43 3.25-1.45 3.25-0.15 0 0.83-1.53 3.08-3.4 5-2.73 2.82-4.15 3.5-7.25 3.49-2.77-0.02-5.95-1.29-11.35-4.54-4.12-2.48-10.42-5.41-14-6.5-3.57-1.1-9.2-2-12.5-2-4.48-0.01-6.69 0.5-8.75 2.02-1.56 1.15-3.18 3.66-3.74 5.78-0.55 2.06-1 6-1.01 8.75-0.01 2.75 0.46 7.48 1.03 10.5 0.58 3.03 1.82 6.3 2.76 7.28 1.27 1.33 3.27 1.79 7.71 1.79 3.3 0 9.6 0.66 14 1.47 4.4 0.81 9.8 1.78 12 2.15 3.27 0.55 4.68 0.23 7.71-1.75 2.05-1.34 4.62-4.01 5.72-5.94 1.21-2.11 2.02-5.38 2.04-8.25l0.03-4.75c4.65 2.33 7.24 3.01 8.75 3.03 1.52 0.01 4.33-0.61 6.25-1.39 1.93-0.78 5.04-2.7 6.93-4.27 1.88-1.58 4.69-5.57 6.24-8.87 1.56-3.3 2.84-7.57 2.84-9.5l0.02-3.5c-8.55 1.16-11.03 1.28-11.03 1 0-0.27 1.58-2.86 3.51-5.75 1.92-2.89 3.5-5.81 3.5-6.5 0-0.75-1.88-1.44-4.76-1.73-2.61-0.27-9.25-1.19-14.75-2.04-5.5-0.85-16.3-3.36-24-5.57-7.7-2.22-16.47-4.93-19.5-6.03-3.02-1.11-7.3-3.04-9.5-4.3-2.2-1.27-5.62-4.11-7.61-6.33l-3.61-4.03zm-134.81 5.89c0 2.34 0.67 6.84 1.5 10 0.83 3.17 2.7 8.12 4.15 11 1.45 2.89 4.55 7.73 6.89 10.75 2.33 3.03 5.43 6.63 6.88 8l2.64 2.5c-0.04-4.26-0.54-7.86-1.14-10.75-0.6-2.88-2.82-8.85-4.92-13.25-2.11-4.4-6.12-11.26-8.91-15.25-2.8-3.98-5.53-7.25-6.08-7.25-0.55 0-1 1.92-1.01 4.25zm274.01-2.25c-1.1 1.1-3.83 4.82-6.07 8.25-2.23 3.44-5.62 9.4-7.51 13.25-1.9 3.85-4.09 10.38-4.86 14.5-0.78 4.13-1.22 7.62-0.99 7.75 0.24 0.14 1.77-0.76 3.41-2 1.63-1.23 5.01-4.95 7.5-8.25 2.49-3.3 5.91-9.6 7.61-14 1.88-4.85 3.29-10.65 3.6-14.75 0.27-3.71 0.23-6.75-0.1-6.75-0.32 0-1.49 0.9-2.59 2zm-252.02 10.25c-0.01 0.69 0.5 2.83 1.14 4.75 0.63 1.93 2.33 5.05 3.77 6.95 1.54 2.03 4.86 4.45 8.11 5.9 3.02 1.35 8.2 2.67 11.5 2.93q6 0.47 5-0.53c-0.55-0.55-7.19-5.56-14.75-11.12-7.57-5.57-13.98-10.13-14.25-10.13-0.28 0-0.51 0.57-0.52 1.25zm221.41 6c-5.45 3.99-12.16 9-14.9 11.13l-4.99 3.87c11.62-1.08 16.8-2.18 19-3.13 2.2-0.95 5.21-3.28 6.69-5.17 1.47-1.9 3.39-5.13 4.25-7.2 0.85-2.06 1.56-4.42 1.56-5.25 0-0.82-0.39-1.5-0.85-1.5-0.47 0-5.31 3.27-10.76 7.25zm-215.28 19.19c-0.06 0.86 0.79 3.36 1.89 5.56 1.1 2.2 3.23 4.92 4.75 6.04 1.7 1.26 4.27 2.02 6.75 2.01l4-0.02c-6.98-7.03-10.86-10.44-13.14-12.11-3.2-2.35-4.16-2.69-4.25-1.48zm214.89 2.85c-3.03 2.5-6.74 5.93-8.25 7.63l-2.75 3.08c5.81 0.01 8.51-0.66 9.75-1.49 1.23-0.83 3.37-3.53 4.75-6.01 1.37-2.47 2.38-5.23 2.25-6.13-0.19-1.24-1.56-0.55-5.75 2.92zm-17.8 19.02c-2.37 2.31-7.21 6.06-10.76 8.35-3.55 2.28-7.62 5.65-9.04 7.5-2.18 2.82-2.49 4.04-2.03 7.84 0.31 2.48 0.69 4.63 0.84 4.8 0.16 0.16 2.09-0.43 4.29-1.32 2.2-0.89 5.99-3.27 8.43-5.29 2.43-2.03 5.46-5.26 6.72-7.19 1.26-1.92 3.43-6.42 4.83-10 1.4-3.57 2.53-7.06 2.53-7.75-0.01-0.68-0.35-1.22-0.76-1.19-0.42 0.03-2.69 1.94-5.05 4.25zm-177.93-0.56c0.31 1.52 1.48 5.23 2.59 8.25 1.11 3.03 3.99 7.75 6.41 10.5 2.42 2.75 6.93 6.35 10.03 8 3.7 1.98 5.94 2.66 6.57 2 0.53-0.55 1.04-2.12 1.15-3.5 0.11-1.37 0.15-3.51 0.09-4.75-0.06-1.23-1.17-3.48-2.46-5-1.29-1.51-5.45-4.64-9.25-6.94-3.8-2.31-8.59-5.8-10.65-7.75-2.07-1.96-4.05-3.56-4.41-3.56-0.36 0-0.39 1.24-0.07 2.75zm85.7 74c-1.29 0.99-2 2.3-1.63 3 0.51 0.96 1.64 1.01 4.91 0.19 2.33-0.58 5.71-0.81 7.5-0.5 2.23 0.39 3.25 0.17 3.26-0.69 0.01-0.68-0.55-1.82-1.25-2.51-0.69-0.7-3.34-1.26-5.89-1.25-2.85 0.01-5.5 0.69-6.9 1.76z"/>
	</g>
</svg>